<?xml version="1.0" encoding="utf-8"?>
<!-- Generator: Adobe Illustrator 26.3.1, SVG Export Plug-In . SVG Version: 6.00 Build 0)  -->
<svg version="1.1" xmlns="http://www.w3.org/2000/svg" xmlns:xlink="http://www.w3.org/1999/xlink" x="0px" y="0px"
	 viewBox="0 0 500 500" style="enable-background:new 0 0 500 500;" xml:space="preserve">
<style type="text/css">
	.st0{fill:#EBEBEB;}
	.st1{fill:#E6E6E6;}
	.st2{fill:#F0F0F0;}
	.st3{fill:#F5F5F5;}
	.st4{fill:#FAFAFA;}
	.st5{display:none;}
	.st6{display:inline;}
	.st7{fill:#407BFF;}
	.st8{opacity:0.9;fill:#FFFFFF;}
	.st9{fill:#BA70FF;}
	.st10{opacity:0.1;}
	.st11{opacity:0.1;fill:#2F2B38;}
	.st12{opacity:0.2;fill:#2F2B38;}
	.st13{fill:#FFFFFF;}
	.st14{fill:#E0E0E0;}
</style>
<g id="Background_Complete">
	<g>
		<g>
			<rect y="382.4" class="st0" width="500" height="0.25"/>
			<rect x="416.78" y="398.49" class="st0" width="18.89" height="0.25"/>
			<rect x="293.05" y="396.75" class="st0" width="29.47" height="0.25"/>
			<rect x="368.67" y="389.21" class="st0" width="47.11" height="0.25"/>
			<rect x="52.46" y="390.89" class="st0" width="10.97" height="0.25"/>
			<rect x="72.33" y="390.89" class="st0" width="38.56" height="0.25"/>
			<rect x="171" y="395.11" class="st0" width="54.15" height="0.25"/>
			<path class="st0" d="M237.01,337.8H43.92c-3.15,0-5.71-2.56-5.71-5.71V60.66c0-3.15,2.56-5.71,5.71-5.71h193.1
				c3.15,0,5.71,2.56,5.71,5.71v271.43C242.72,335.24,240.16,337.8,237.01,337.8z M43.92,55.2c-3.01,0-5.46,2.45-5.46,5.46v271.43
				c0,3.01,2.45,5.46,5.46,5.46h193.1c3.01,0,5.46-2.45,5.46-5.46V60.66c0-3.01-2.45-5.46-5.46-5.46H43.92z"/>
			<path class="st0" d="M453.31,337.8h-193.1c-3.15,0-5.71-2.56-5.71-5.71V60.66c0-3.15,2.56-5.71,5.71-5.71h193.1
				c3.15,0,5.71,2.56,5.71,5.71v271.43C459.02,335.24,456.46,337.8,453.31,337.8z M260.21,55.2c-3.01,0-5.46,2.45-5.46,5.46v271.43
				c0,3.01,2.45,5.46,5.46,5.46h193.1c3.01,0,5.46-2.45,5.46-5.46V60.66c0-3.01-2.45-5.46-5.46-5.46H260.21z"/>
		</g>
		<g>
			<rect x="416.78" y="398.49" class="st0" width="18.89" height="0.25"/>
			<rect x="293.05" y="396.75" class="st0" width="29.47" height="0.25"/>
			<rect x="368.67" y="389.21" class="st0" width="47.11" height="0.25"/>
			<rect x="52.46" y="390.89" class="st0" width="10.97" height="0.25"/>
			<rect x="72.33" y="390.89" class="st0" width="38.56" height="0.25"/>
			<rect x="171" y="395.11" class="st0" width="54.15" height="0.25"/>
		</g>
	</g>
	<g>
		<g>
			<g>
				
					<rect x="381.87" y="162.21" transform="matrix(-1 -1.224647e-16 1.224647e-16 -1 786.7641 329.2112)" class="st1" width="23.03" height="4.78"/>
				
					<rect x="132.14" y="162.21" transform="matrix(-1 -1.224647e-16 1.224647e-16 -1 514.0081 329.2112)" class="st2" width="249.72" height="4.78"/>
			</g>
			<g>
				<polygon class="st3" points="273.79,82.71 334.83,82.71 325.22,162.21 264.17,162.21 				"/>
				<polygon class="st4" points="284.9,93.13 321.2,93.13 314.11,151.79 277.8,151.79 				"/>
			</g>
			<g>
				<polygon class="st3" points="185.31,86.34 259.36,86.34 250.18,162.21 176.14,162.21 				"/>
				<polygon class="st4" points="195.91,96.28 246.35,96.28 239.58,152.27 189.14,152.27 				"/>
			</g>
			<g>
				<polygon class="st2" points="313.63,109.93 364.65,109.93 358.33,162.21 307.3,162.21 				"/>
				<polygon class="st4" points="320.93,116.78 355.69,116.78 351.02,155.36 316.26,155.36 				"/>
			</g>
		</g>
		<path class="st1" d="M435.35,230.72h-31.54c-11.23,0-21.36,8.08-24.01,19.14l-8.33,34.79l-17.12-0.06h-0.05
			c-8.16,0-15.17,5.8-16.7,13.82l-2.28,11.91c-3.45,0.5-6.4,3.13-7.23,6.61h12.1l-14.22,65.46h3.61l14.22-65.46h9.95l-14.22,65.46
			h3.61l14.22-65.46H397l14.22,65.46h3.61l-14.22-65.46h9.95l14.22,65.46h3.61l-14.22-65.46h-1.49c11.22,0,21.33-8.07,23.98-19.12
			l11.96-49.96C450.78,238.91,444.42,230.72,435.35,230.72z M368.37,297.58c-1.75,7.32-8.45,12.66-15.88,12.66h-12.65l2.12-10.98
			c1.13-5.91,6.32-10.2,12.33-10.2h0.04l16.06,0.05L368.37,297.58z"/>
		<g>
			<g>
				
					<rect x="193.79" y="222.11" transform="matrix(-1 -1.224647e-16 1.224647e-16 -1 422.0029 596.3926)" class="st2" width="34.43" height="152.17"/>
				
					<rect x="70.04" y="374.28" transform="matrix(-1 -1.224647e-16 1.224647e-16 -1 291.6453 756.6803)" class="st2" width="151.56" height="8.12"/>
				<rect x="63.43" y="222.11" class="st3" width="130.36" height="152.17"/>
				<rect x="76.97" y="237.88" class="st2" width="103.29" height="66.09"/>
				<rect x="76.97" y="316.5" class="st2" width="103.29" height="42.01"/>
				<path class="st3" d="M101.8,240.51h53.62c1.42,0,2.58-1.16,2.58-2.58v-0.59c0-1.42-1.16-2.58-2.58-2.58H101.8
					c-1.42,0-2.58,1.16-2.58,2.58v0.59C99.22,239.34,100.38,240.51,101.8,240.51z"/>
				<path class="st3" d="M101.8,319.38h53.62c1.42,0,2.58-1.16,2.58-2.58v-0.59c0-1.42-1.16-2.58-2.58-2.58H101.8
					c-1.42,0-2.58,1.16-2.58,2.58v0.59C99.22,318.22,100.38,319.38,101.8,319.38z"/>
			</g>
		</g>
		<path class="st1" d="M329.26,230.72h-31.54c-11.23,0-21.36,8.08-24.01,19.14l-8.33,34.79l-17.12-0.06h-0.05
			c-8.16,0-15.17,5.8-16.7,13.82l-2.28,11.91c-3.45,0.5-6.4,3.13-7.23,6.61h12.1l-14.22,65.46h3.61l14.22-65.46h9.95l-14.22,65.46
			h3.61l14.22-65.46h39.65l14.22,65.46h3.61l-14.22-65.46h9.95l14.22,65.46h3.61l-14.22-65.46h-1.49c11.22,0,21.33-8.07,23.98-19.12
			l11.96-49.96C344.69,238.91,338.34,230.72,329.26,230.72z M262.29,297.58c-1.75,7.32-8.45,12.66-15.88,12.66h-12.65l2.12-10.98
			c1.13-5.91,6.32-10.2,12.33-10.2h0.04l16.06,0.05L262.29,297.58z"/>
	</g>
</g>
<g id="Background_Simple" class="st5">
	<g class="st6">
		<path class="st7" d="M370.25,241.68c-4.59-57.79-53.39-112.63-107.88-138.94C186.6,66.15,113.65,66.84,89.09,134.04
			c-23.72,64.92,15.52,93.45,98.39,128.76C266.79,296.58,375.85,312.13,370.25,241.68z"/>
		<path class="st8" d="M370.25,241.68c-4.59-57.79-53.39-112.63-107.88-138.94C186.6,66.15,113.65,66.84,89.09,134.04
			c-23.72,64.92,15.52,93.45,98.39,128.76C266.79,296.58,375.85,312.13,370.25,241.68z"/>
	</g>
</g>
<g id="Shadow_1_">
	<ellipse id="_x3C_Path_x3E__325_" class="st3" cx="250" cy="416.24" rx="193.89" ry="11.32"/>
</g>
<g id="Character_1_">
</g>
<g id="Envelope">
	<g>
		<g>
			
				<rect x="409.62" y="239.36" transform="matrix(0.9954 -0.0957 0.0957 0.9954 -21.639 40.3726)" class="st9" width="0.95" height="12.86"/>
			
				<rect x="410.92" y="256.65" transform="matrix(0.9954 -0.0957 0.0957 0.9954 -22.911 40.5387)" class="st9" width="0.95" height="5.19"/>
			
				<rect x="176.14" y="216.98" transform="matrix(-0.9954 0.0957 -0.0957 -0.9954 612.8696 544.1779)" class="st9" width="234.5" height="139.6"/>
			
				<rect x="176.14" y="216.98" transform="matrix(-0.9954 0.0957 -0.0957 -0.9954 612.8696 544.1779)" class="st10" width="234.5" height="139.6"/>
		</g>
		<polygon class="st11" points="294,293.09 170,228.52 403.42,206.08 		"/>
		<path class="st9" d="M265.75,152.38L170,228.52l233.42-22.44l-108.5-56.51C285.5,144.67,274.07,145.77,265.75,152.38z"/>
		<path class="st12" d="M394.75,206.92l-103.09-53.69c-7.11-3.7-15.74-2.87-22.01,2.12l-90.98,72.34L394.75,206.92z"/>
		<polygon class="st13" points="351.64,205.21 383.23,213.65 383.99,221.53 294,293.09 192.02,239.98 190.5,224.23 		"/>
		<polyline class="st14" points="351.64,205.21 357.61,221.75 383.23,213.65 		"/>
		<polyline class="st2" points="351.64,205.21 354.71,218.85 383.23,213.65 		"/>
		<path class="st9" d="M312.65,278.24l104.12,66.81l-233.42,22.44l89.49-85.42C283.65,271.76,300.09,270.18,312.65,278.24z"/>
	</g>
</g>
</svg>
