<?xml version="1.0" encoding="utf-8"?>
<!-- Generator: Adobe Illustrator 26.3.1, SVG Export Plug-In . SVG Version: 6.00 Build 0)  -->
<svg version="1.1" xmlns="http://www.w3.org/2000/svg" xmlns:xlink="http://www.w3.org/1999/xlink" x="0px" y="0px"
	 viewBox="0 0 500 500" style="enable-background:new 0 0 500 500;" xml:space="preserve">
<style type="text/css">
	.st0{fill:#FAFAFA;}
	.st1{fill:#EBEBEB;}
	.st2{fill:#F0F0F0;}
	.st3{fill:#FFFFFF;}
	.st4{fill:#F5F5F5;}
	.st5{fill:#E0E0E0;}
	.st6{fill:#E6E6E6;}
	.st7{fill:#382A38;}
	.st8{fill:#9C51DE;}
	.st9{opacity:0.15;}
	.st10{fill:#634C64;}
	.st11{fill:#4E3D4F;}
</style>
<g id="Floor">
	<path id="floor" class="st0" d="M412.28,437.75c-89.63,39.2-234.93,39.2-324.56,0c-89.63-39.19-89.63-102.74,0-141.94
		c89.63-39.19,234.93-39.19,324.56,0C501.91,335.01,501.91,398.56,412.28,437.75z"/>
</g>
<g id="Shadows">
	<path id="Shadow_2_" class="st1" d="M434.75,383.35c-19.2,9.15-50.33,9.15-69.53,0c-19.2-9.15-19.2-23.99,0-33.14
		c19.2-9.15,50.33-9.15,69.53,0C453.95,359.36,453.95,374.2,434.75,383.35z"/>
</g>
<g id="Plant">
</g>
<g id="Photos_1_">
	<g id="Photo_3_">
		<g id="XMLID_44_">
			<g id="XMLID_48_">
				<polygon id="XMLID_63_" class="st2" points="284.73,71.21 284.73,253.25 99.81,360.01 103.98,368.55 284.73,264.2 
					292.82,264.95 292.82,71.99 				"/>
				<g id="XMLID_59_">
					<path id="XMLID_62_" class="st2" d="M247.57,171.42l1.51-2.11l-9.56-5.52v0l-0.07-0.04l0,0.01c-1.43-0.81-3.31-0.41-4.25,1.04
						l-26.34,40.55l-27.29-23.63l1.13-1.69l-9.46-5.46l-0.01,0.01c-1.43-0.87-3.35-0.5-4.31,0.95L99.82,279.26l0.01,74.27l9.48,5.48
						l170.69-104.02l0-52.37L247.57,171.42z"/>
					<path id="XMLID_61_" class="st0" d="M109.3,359.01l0-74.27L178.41,181c1.07-1.6,3.3-1.91,4.76-0.64l35.19,30.47l26.34-40.55
						c1.09-1.68,3.45-1.96,4.9-0.56l39.88,38.38v43.76c0,1.94-1.04,3.73-2.72,4.7L109.3,359.01z"/>
					<polygon id="XMLID_60_" class="st2" points="218.35,210.82 232.58,223.14 220.13,208.09 					"/>
				</g>
				<g id="XMLID_49_">
					<path id="XMLID_55_" class="st3" d="M298.93,68.24c-0.01-0.11-0.04-0.22-0.06-0.32c-0.26-1.44-1.26-2.96-2.44-3.65L292,61.72
						c-1.39-0.81-3.65-0.81-5.05,0L92.87,173.77c-0.7,0.41-1.33,1.1-1.8,1.89c-0.46,0.79-0.74,1.68-0.74,2.49v191.27
						c0,1.61,1.13,3.57,2.53,4.38l4.42,2.56c1.21,0.7,3.09,0.79,4.47,0.27c0.06-0.02,0.12-0.05,0.18-0.07
						c0.13-0.05,0.27-0.12,0.41-0.2l56.16-32.41l137.93-79.64c1.39-0.81,2.52-2.77,2.52-4.38V68.65
						C298.96,68.51,298.94,68.37,298.93,68.24z M292.82,256.56c0,1.61-1.13,3.57-2.53,4.38L157,337.5l-49.91,29.23
						c-1.39,0.81-2.52,0.15-2.52-1.46v-178.9c0-0.81,0.28-1.69,0.74-2.49s1.09-1.49,1.79-1.89L290.28,76.2
						c1.4-0.82,2.53-0.16,2.53,1.46V256.56z"/>
					<path id="XMLID_54_" class="st2" d="M102.35,376.35c-0.14,0.08-0.28,0.15-0.41,0.2c-0.06,0.02-0.12,0.05-0.18,0.07
						c-1.38,0.53-3.26,0.43-4.47-0.27l-4.42-2.56c-1.4-0.81-2.53-2.77-2.53-4.38V178.15c0-0.81,0.28-1.69,0.74-2.49
						c2.78,1.6,5.99,3.46,9.48,5.47c1.54,0.89,3.13,1.8,4.75,2.74c-0.46,0.79-0.74,1.68-0.74,2.49v178.9c0,1.61,1.13,2.26,2.52,1.46
						L102.35,376.35z"/>
					<path id="XMLID_50_" class="st0" d="M298.93,68.24c-0.01-0.11-0.04-0.22-0.06-0.32c-0.3-1.06-1.28-1.41-2.44-0.74
						L102.35,179.26c-0.7,0.4-1.33,1.1-1.8,1.88c-0.46,0.79-0.74,1.69-0.74,2.5l0.01,191.25c0,1.38,0.83,2.05,1.94,1.73
						c0.06-0.02,0.12-0.05,0.18-0.07c0.13-0.05,0.27-0.12,0.41-0.2L296.43,264.3c1.39-0.81,2.52-2.77,2.52-4.38V68.65
						C298.96,68.51,298.94,68.37,298.93,68.24z M292.82,256.56c0,1.61-1.13,3.57-2.53,4.38l-183.2,105.79
						c-1.39,0.81-2.52,0.15-2.52-1.46v-178.9c0-0.81,0.28-1.69,0.74-2.49s1.09-1.49,1.79-1.89L290.28,76.2
						c1.4-0.82,2.53-0.16,2.53,1.46V256.56z"/>
				</g>
			</g>
			<g id="XMLID_45_">
				<path id="XMLID_47_" class="st2" d="M265.07,125.2l4.79-8.14l-8.21-4.78c0,0,0,0,0,0l-0.01,0l0,0c-2.4-1.38-5.72-1.18-9.39,0.93
					c-7.34,4.24-13.29,14.55-13.29,23.02c0,4.18,1.45,7.13,3.8,8.54l0,0.01l0.07,0.04c0.02,0.01,0.03,0.02,0.05,0.03l7.9,4.59
					l4.58-7.77C260.07,137.65,263.8,131.31,265.07,125.2z"/>
				
					<ellipse id="XMLID_46_" transform="matrix(0.5 -0.866 0.866 0.5 14.7633 292.0588)" class="st0" cx="260.31" cy="133.24" rx="18.8" ry="10.85"/>
			</g>
		</g>
	</g>
	<g id="Photo_2_">
		<g id="XMLID_7_">
			<g id="XMLID_28_">
				<polygon id="XMLID_43_" class="st1" points="307.73,84.21 307.73,266.25 122.81,373.01 126.98,381.55 307.73,277.2 
					315.82,277.95 315.82,84.99 				"/>
				<g id="XMLID_39_">
					<path id="XMLID_42_" class="st1" d="M270.57,184.42l1.51-2.11l-9.56-5.52v0l-0.07-0.04l0,0.01c-1.43-0.81-3.31-0.41-4.25,1.04
						l-26.34,40.55l-27.29-23.63l1.13-1.69l-9.46-5.46l-0.01,0.01c-1.43-0.87-3.35-0.5-4.31,0.95l-69.11,103.74l0.01,74.27
						l9.48,5.48l170.69-104.02l0-52.37L270.57,184.42z"/>
					<path id="XMLID_41_" class="st4" d="M132.3,372.01l0-74.27L201.41,194c1.07-1.6,3.3-1.91,4.76-0.64l35.19,30.47l26.34-40.55
						c1.09-1.68,3.45-1.96,4.9-0.56l39.88,38.38v43.76c0,1.94-1.04,3.73-2.72,4.7L132.3,372.01z"/>
					<polygon id="XMLID_40_" class="st1" points="241.35,223.82 255.58,236.14 243.13,221.09 					"/>
				</g>
				<g id="XMLID_29_">
					<path id="XMLID_35_" class="st0" d="M321.93,81.24c-0.01-0.11-0.04-0.22-0.06-0.32c-0.26-1.44-1.26-2.96-2.44-3.65L315,74.72
						c-1.39-0.81-3.65-0.81-5.05,0L115.87,186.77c-0.7,0.41-1.33,1.1-1.8,1.89c-0.46,0.79-0.74,1.68-0.74,2.49v191.27
						c0,1.61,1.13,3.57,2.53,4.38l4.42,2.56c1.21,0.7,3.09,0.79,4.47,0.27c0.06-0.02,0.12-0.05,0.18-0.07
						c0.13-0.05,0.27-0.12,0.41-0.2l56.16-32.41l137.93-79.64c1.39-0.81,2.52-2.77,2.52-4.38V81.65
						C321.96,81.51,321.94,81.37,321.93,81.24z M315.82,269.56c0,1.61-1.13,3.57-2.53,4.38L180,350.5l-49.91,29.23
						c-1.39,0.81-2.52,0.15-2.52-1.46v-178.9c0-0.81,0.28-1.69,0.74-2.49c0.46-0.79,1.09-1.49,1.79-1.89L313.28,89.2
						c1.4-0.82,2.53-0.16,2.53,1.46V269.56z"/>
					<path id="XMLID_34_" class="st2" d="M125.35,389.35c-0.14,0.08-0.28,0.15-0.41,0.2c-0.06,0.02-0.12,0.05-0.18,0.07
						c-1.38,0.53-3.26,0.43-4.47-0.27l-4.42-2.56c-1.4-0.81-2.53-2.77-2.53-4.38V191.15c0-0.81,0.28-1.69,0.74-2.49
						c2.78,1.6,5.99,3.46,9.48,5.47c1.54,0.89,3.13,1.8,4.75,2.74c-0.46,0.79-0.74,1.68-0.74,2.49v178.9c0,1.61,1.13,2.26,2.52,1.46
						L125.35,389.35z"/>
					<path id="XMLID_30_" class="st4" d="M321.93,81.24c-0.01-0.11-0.04-0.22-0.06-0.32c-0.3-1.06-1.28-1.41-2.44-0.74
						L125.35,192.26c-0.7,0.4-1.33,1.1-1.8,1.88c-0.46,0.79-0.74,1.69-0.74,2.5l0.01,191.25c0,1.38,0.83,2.05,1.94,1.73
						c0.06-0.02,0.12-0.05,0.18-0.07c0.13-0.05,0.27-0.12,0.41-0.2L319.43,277.3c1.39-0.81,2.52-2.77,2.52-4.38V81.65
						C321.96,81.51,321.94,81.37,321.93,81.24z M315.82,269.56c0,1.61-1.13,3.57-2.53,4.38l-183.2,105.79
						c-1.39,0.81-2.52,0.15-2.52-1.46v-178.9c0-0.81,0.28-1.69,0.74-2.49c0.46-0.79,1.09-1.49,1.79-1.89L313.28,89.2
						c1.4-0.82,2.53-0.16,2.53,1.46V269.56z"/>
				</g>
			</g>
			<g id="XMLID_9_">
				<path id="XMLID_27_" class="st1" d="M288.07,138.2l4.79-8.14l-8.21-4.78c0,0,0,0,0,0l-0.01,0l0,0c-2.4-1.38-5.72-1.18-9.39,0.93
					c-7.34,4.24-13.29,14.55-13.29,23.02c0,4.18,1.45,7.13,3.8,8.54l0,0.01l0.07,0.04c0.02,0.01,0.03,0.02,0.05,0.03l7.9,4.59
					l4.58-7.77C283.07,150.65,286.8,144.31,288.07,138.2z"/>
				
					<ellipse id="XMLID_24_" transform="matrix(0.5 -0.866 0.866 0.5 15.0051 318.4775)" class="st4" cx="283.31" cy="146.24" rx="18.8" ry="10.85"/>
			</g>
		</g>
	</g>
	<g id="Photo_1_">
		<g id="XMLID_4_">
			<g id="XMLID_10_">
				<polygon id="XMLID_26_" class="st5" points="330.73,97.21 330.73,279.25 145.81,386.01 149.98,394.55 330.73,290.2 
					338.82,290.95 338.82,97.99 				"/>
				<g id="XMLID_21_">
					<path id="XMLID_25_" class="st6" d="M293.57,197.42l1.51-2.11l-9.56-5.52v0l-0.07-0.04l0,0.01c-1.43-0.81-3.31-0.41-4.25,1.04
						l-26.34,40.55l-27.29-23.63l1.13-1.69l-9.46-5.46l-0.01,0.01c-1.43-0.87-3.35-0.5-4.31,0.95l-69.11,103.74l0.01,74.27
						l9.48,5.48l170.69-104.02l0-52.37L293.57,197.42z"/>
					<path id="XMLID_23_" class="st1" d="M155.3,385.01l0-74.27L224.41,207c1.07-1.6,3.3-1.91,4.76-0.64l35.19,30.47l26.34-40.55
						c1.09-1.68,3.45-1.96,4.9-0.56l39.88,38.38v43.76c0,1.94-1.04,3.73-2.72,4.7L155.3,385.01z"/>
					<polygon id="XMLID_22_" class="st6" points="264.35,236.82 278.58,249.14 266.13,234.09 					"/>
				</g>
				<g id="XMLID_11_">
					<path id="XMLID_17_" class="st2" d="M344.93,94.24c-0.01-0.11-0.04-0.22-0.06-0.32c-0.26-1.44-1.26-2.96-2.44-3.65L338,87.72
						c-1.39-0.81-3.65-0.81-5.05,0L138.87,199.77c-0.7,0.41-1.33,1.1-1.8,1.89c-0.46,0.79-0.74,1.68-0.74,2.49v191.27
						c0,1.61,1.13,3.57,2.53,4.38l4.42,2.56c1.21,0.7,3.09,0.79,4.47,0.27c0.06-0.02,0.12-0.05,0.18-0.07
						c0.13-0.05,0.27-0.12,0.41-0.2l56.16-32.41l137.93-79.64c1.39-0.81,2.52-2.77,2.52-4.38V94.65
						C344.96,94.51,344.94,94.37,344.93,94.24z M338.82,282.56c0,1.61-1.13,3.57-2.53,4.38L203,363.5l-49.91,29.23
						c-1.39,0.81-2.52,0.15-2.52-1.46v-178.9c0-0.81,0.28-1.69,0.74-2.49c0.46-0.79,1.09-1.49,1.79-1.89l183.2-105.79
						c1.4-0.82,2.53-0.16,2.53,1.46V282.56z"/>
					<path id="XMLID_16_" class="st5" d="M148.35,402.35c-0.14,0.08-0.28,0.15-0.41,0.2c-0.06,0.02-0.12,0.05-0.18,0.07
						c-1.38,0.53-3.26,0.43-4.47-0.27l-4.42-2.56c-1.4-0.81-2.53-2.77-2.53-4.38V204.15c0-0.81,0.28-1.69,0.74-2.49
						c2.78,1.6,5.99,3.46,9.48,5.47c1.54,0.89,3.13,1.8,4.75,2.74c-0.46,0.79-0.74,1.68-0.74,2.49v178.9c0,1.61,1.13,2.26,2.52,1.46
						L148.35,402.35z"/>
					<path id="XMLID_12_" class="st1" d="M344.93,94.24c-0.01-0.11-0.04-0.22-0.06-0.32c-0.3-1.06-1.28-1.41-2.44-0.74
						L148.35,205.26c-0.7,0.4-1.33,1.1-1.8,1.88c-0.46,0.79-0.74,1.69-0.74,2.5l0.01,191.25c0,1.38,0.83,2.05,1.94,1.73
						c0.06-0.02,0.12-0.05,0.18-0.07c0.13-0.05,0.27-0.12,0.41-0.2L342.43,290.3c1.39-0.81,2.52-2.77,2.52-4.38V94.65
						C344.96,94.51,344.94,94.37,344.93,94.24z M338.82,282.56c0,1.61-1.13,3.57-2.53,4.38l-183.2,105.79
						c-1.39,0.81-2.52,0.15-2.52-1.46v-178.9c0-0.81,0.28-1.69,0.74-2.49c0.46-0.79,1.09-1.49,1.79-1.89l183.2-105.79
						c1.4-0.82,2.53-0.16,2.53,1.46V282.56z"/>
				</g>
			</g>
			<g id="XMLID_5_">
				<path id="XMLID_8_" class="st6" d="M311.07,151.2l4.79-8.14l-8.21-4.78c0,0,0,0,0,0l-0.01,0l0,0c-2.4-1.38-5.72-1.18-9.39,0.93
					c-7.34,4.24-13.29,14.55-13.29,23.02c0,4.18,1.45,7.13,3.8,8.54l0,0.01l0.07,0.04c0.02,0.01,0.03,0.02,0.05,0.03l7.9,4.59
					l4.58-7.77C306.07,163.65,309.8,157.31,311.07,151.2z"/>
				
					<ellipse id="XMLID_6_" transform="matrix(0.5 -0.866 0.866 0.5 15.2468 344.8963)" class="st1" cx="306.31" cy="159.24" rx="18.8" ry="10.85"/>
			</g>
		</g>
	</g>
</g>
<g id="Character">
	<g>
		<g id="Photo">
			<g id="XMLID_766_">
				<g id="XMLID_16066_">
					<polygon id="XMLID_3097_" class="st7" points="354.73,111.21 354.73,293.25 169.81,400.01 173.98,408.55 354.73,304.2 
						362.82,304.95 362.82,111.99 					"/>
					<g id="XMLID_3197_">
						<path id="XMLID_3201_" class="st8" d="M317.57,211.42l1.51-2.11l-9.56-5.52v0l-0.07-0.04l0,0.01
							c-1.43-0.81-3.31-0.41-4.25,1.04l-26.34,40.55l-27.29-23.63l1.13-1.69l-9.46-5.46l-0.01,0.01c-1.43-0.87-3.35-0.5-4.31,0.95
							l-69.11,103.74l0.01,74.27l9.48,5.48l170.69-104.02l0-52.37L317.57,211.42z"/>
						<path id="XMLID_3198_" class="st9" d="M317.57,211.42l1.51-2.11l-9.56-5.52v0l-0.07-0.04l0,0.01
							c-1.43-0.81-3.31-0.41-4.25,1.04l-26.34,40.55l-27.29-23.63l1.13-1.69l-9.46-5.46l-0.01,0.01c-1.43-0.87-3.35-0.5-4.31,0.95
							l-69.11,103.74l0.01,74.27l9.48,5.48l170.69-104.02l0-52.37L317.57,211.42z"/>
						<path id="XMLID_3095_" class="st8" d="M179.3,399.01l0-74.27L248.41,221c1.07-1.6,3.3-1.91,4.76-0.64l35.19,30.47l26.34-40.55
							c1.09-1.68,3.45-1.96,4.9-0.56l39.88,38.38v43.76c0,1.94-1.04,3.73-2.72,4.7L179.3,399.01z"/>
						<polygon id="XMLID_3200_" class="st9" points="288.35,250.82 302.58,263.14 290.13,248.09 						"/>
					</g>
					<g id="XMLID_16068_">
						<path id="XMLID_16098_" class="st10" d="M368.93,108.24c-0.01-0.11-0.04-0.22-0.06-0.32c-0.26-1.44-1.26-2.96-2.44-3.65
							l-4.44-2.56c-1.39-0.81-3.65-0.81-5.05,0L162.87,213.77c-0.7,0.41-1.33,1.1-1.8,1.89c-0.46,0.79-0.74,1.68-0.74,2.49v191.27
							c0,1.61,1.13,3.57,2.53,4.38l4.42,2.56c1.21,0.7,3.09,0.79,4.47,0.27c0.06-0.02,0.12-0.05,0.18-0.07
							c0.13-0.05,0.27-0.12,0.41-0.2l56.16-32.41l137.93-79.64c1.39-0.81,2.52-2.77,2.52-4.38V108.65
							C368.96,108.51,368.94,108.37,368.93,108.24z M362.82,296.56c0,1.61-1.13,3.57-2.53,4.38L227,377.5l-49.91,29.23
							c-1.39,0.81-2.52,0.15-2.52-1.46v-178.9c0-0.81,0.28-1.69,0.74-2.49c0.46-0.79,1.09-1.49,1.79-1.89l183.2-105.79
							c1.4-0.82,2.53-0.16,2.53,1.46V296.56z"/>
						<path id="XMLID_16083_" class="st7" d="M172.35,416.35c-0.14,0.08-0.28,0.15-0.41,0.2c-0.06,0.02-0.12,0.05-0.18,0.07
							c-1.38,0.53-3.26,0.43-4.47-0.27l-4.42-2.56c-1.4-0.81-2.53-2.77-2.53-4.38V218.15c0-0.81,0.28-1.69,0.74-2.49
							c2.78,1.6,5.99,3.46,9.48,5.47c1.54,0.89,3.13,1.8,4.75,2.74c-0.46,0.79-0.74,1.68-0.74,2.49v178.9
							c0,1.61,1.13,2.26,2.52,1.46L172.35,416.35z"/>
						<path id="XMLID_16091_" class="st11" d="M368.93,108.24c-0.01-0.11-0.04-0.22-0.06-0.32c-0.3-1.06-1.28-1.41-2.44-0.74
							L172.35,219.26c-0.7,0.4-1.33,1.1-1.8,1.88c-0.46,0.79-0.74,1.69-0.74,2.5l0.01,191.25c0,1.38,0.83,2.05,1.94,1.73
							c0.06-0.02,0.12-0.05,0.18-0.07c0.13-0.05,0.27-0.12,0.41-0.2L366.43,304.3c1.39-0.81,2.52-2.77,2.52-4.38V108.65
							C368.96,108.51,368.94,108.37,368.93,108.24z M362.82,296.56c0,1.61-1.13,3.57-2.53,4.38l-183.2,105.79
							c-1.39,0.81-2.52,0.15-2.52-1.46v-178.9c0-0.81,0.28-1.69,0.74-2.49c0.46-0.79,1.09-1.49,1.79-1.89l183.2-105.79
							c1.4-0.82,2.53-0.16,2.53,1.46V296.56z"/>
					</g>
				</g>
				<g id="XMLID_924_">
					<g id="XMLID_909_">
						<path id="XMLID_927_" class="st8" d="M335.07,165.2l4.79-8.14l-8.21-4.78c0,0,0,0,0,0l-0.01,0l0,0
							c-2.4-1.38-5.72-1.18-9.39,0.93c-7.34,4.24-13.29,14.55-13.29,23.02c0,4.18,1.45,7.13,3.8,8.54l0,0.01l0.07,0.04
							c0.02,0.01,0.03,0.02,0.05,0.03l7.9,4.59l4.58-7.77C330.07,177.65,333.8,171.31,335.07,165.2z"/>
						<path id="XMLID_2_" class="st9" d="M335.07,165.2l4.79-8.14l-8.21-4.78c0,0,0,0,0,0l-0.01,0l0,0
							c-2.4-1.38-5.72-1.18-9.39,0.93c-7.34,4.24-13.29,14.55-13.29,23.02c0,4.18,1.45,7.13,3.8,8.54l0,0.01l0.07,0.04
							c0.02,0.01,0.03,0.02,0.05,0.03l7.9,4.59l4.58-7.77C330.07,177.65,333.8,171.31,335.07,165.2z"/>
					</g>
					
						<ellipse id="XMLID_3199_" transform="matrix(0.5 -0.866 0.866 0.5 15.1226 372.6811)" class="st8" cx="330.31" cy="173.24" rx="18.8" ry="10.85"/>
				</g>
			</g>
		</g>
	</g>
</g>
<g id="Cloud">
	<g id="Clouds_2_">
		<path id="XMLID_3290_" class="st4" d="M159.68,75.82l-11.96,6.9c0.06-0.53,0.1-1.06,0.1-1.58v-3.46c0-6.16-4.33-8.66-9.67-5.58
			c-2.16,1.25-4.15,3.23-5.76,5.54c-0.87-7.75-6.96-10.64-14.34-6.37c-7.99,4.61-14.46,15.83-14.46,25.05v5.18
			c0,2.39,0.44,4.4,1.22,6l-9.93,5.73c-2.96,1.71-5.36,5.87-5.36,9.29c0,3.42,2.4,4.81,5.36,3.1l64.8-37.41
			c2.96-1.71,5.36-5.87,5.36-9.29C165.05,75.5,162.65,74.11,159.68,75.82z"/>
	</g>
</g>
</svg>
