<?xml version="1.0" encoding="utf-8"?>
<!-- Generator: Adobe Illustrator 26.3.1, SVG Export Plug-In . SVG Version: 6.00 Build 0)  -->
<svg version="1.1" xmlns="http://www.w3.org/2000/svg" xmlns:xlink="http://www.w3.org/1999/xlink" x="0px" y="0px"
	 viewBox="0 0 750 500" style="enable-background:new 0 0 750 500;" xml:space="preserve">
<style type="text/css">
	.st0{fill:none;}
	.st1{fill:#E0E0E0;}
	.st2{fill-rule:evenodd;clip-rule:evenodd;fill:#E0E0E0;}
	.st3{fill:#FAFAFA;}
	.st4{fill:#EBEBEB;}
	.st5{display:none;}
	.st6{display:inline;opacity:0.4;}
	.st7{fill:#263238;}
	.st8{fill:#455A64;}
	.st9{fill:#FFFFFF;}
	.st10{fill:#B26DE8;}
	.st11{fill:#2A3829;}
	.st12{font-family:'MyriadPro-Regular';}
	.st13{font-size:12px;}
	.st14{fill:#E8505B;}
	.st15{fill:none;stroke:#F3A7AD;stroke-width:0.05;stroke-miterlimit:10;}
</style>
<g id="Background_Complete">
	<g>
		<g>
			<g>
				<g>
					<g>
						<g>
							<path class="st0" d="M686.98,215.55c-1.62,2.23-3.51,4.2-5.61,5.89l1.46,7.4l-11.41,5.06l-4.51-6.05
								c-2.66,0.42-5.39,0.5-8.13,0.21l-4.2,6.26l-11.64-4.49l1.09-7.46c-2.23-1.62-4.21-3.51-5.89-5.61l-7.4,1.46l-5.06-11.4
								l6.05-4.51c-0.42-2.66-0.5-5.39-0.2-8.13l-6.26-4.2l4.49-11.64l7.46,1.09c1.62-2.23,3.51-4.2,5.61-5.89l-1.46-7.4l11.41-5.06
								l4.51,6.05c2.66-0.42,5.39-0.5,8.13-0.21l4.2-6.26l11.64,4.49l-1.09,7.46c2.23,1.62,4.21,3.51,5.89,5.61l7.4-1.46l5.06,11.41
								l-6.05,4.51c0.42,2.66,0.5,5.39,0.2,8.13l6.26,4.2l-4.49,11.64L686.98,215.55L686.98,215.55z M674.38,202.83
								c2.66-6.9-0.78-14.65-7.68-17.3c-6.9-2.66-14.65,0.78-17.3,7.68c-2.66,6.9,0.78,14.65,7.68,17.3
								C663.98,213.17,671.73,209.73,674.38,202.83z"/>
						</g>
					</g>
				</g>
			</g>
			<g>
				<g>
					<g>
						<g>
							<g>
								<path class="st1" d="M674.38,202.83c0,0-0.26,1.18-1.44,2.99c-1.16,1.76-3.49,4.16-7.24,5.3c-1.85,0.55-4.03,0.79-6.29,0.37
									c-2.24-0.43-4.59-1.39-6.53-3.11c-0.99-0.83-1.86-1.85-2.59-2.99c-0.74-1.13-1.32-2.41-1.67-3.77
									c-0.78-2.71-0.63-5.76,0.42-8.56c1.1-2.78,3.04-5.14,5.43-6.63c1.18-0.77,2.46-1.33,3.77-1.67c1.3-0.36,2.63-0.53,3.92-0.48
									c2.59,0.03,4.98,0.89,6.93,2.07c1.96,1.2,3.41,2.84,4.41,4.49c2.02,3.36,2.13,6.7,1.81,8.79
									C674.98,201.78,674.38,202.83,674.38,202.83c-0.09-0.03,0.4-1.12,0.64-3.22c0.23-2.06,0.02-5.28-1.97-8.47
									c-0.99-1.57-2.41-3.11-4.29-4.24c-1.87-1.1-4.15-1.9-6.61-1.91c-1.22-0.04-2.48,0.13-3.71,0.48
									c-1.24,0.33-2.45,0.86-3.56,1.6c-2.26,1.41-4.08,3.64-5.12,6.27c-0.99,2.64-1.13,5.52-0.41,8.08
									c0.33,1.29,0.87,2.5,1.57,3.57c0.68,1.08,1.5,2.05,2.43,2.85c1.82,1.65,4.05,2.58,6.18,3.02c2.15,0.43,4.23,0.23,6.02-0.26
									c3.62-1.03,5.94-3.28,7.15-4.95C673.93,203.94,674.3,202.79,674.38,202.83z"/>
							</g>
						</g>
					</g>
				</g>
			</g>
			<g>
				<g>
					<g>
						<g>
							<g>
								<path class="st1" d="M686.98,215.55c0-0.01,0.15,0,0.47,0.04c0.35,0.04,0.81,0.1,1.42,0.18c1.3,0.17,3.17,0.43,5.59,0.75
									l-0.13,0.08c1.13-2.99,2.62-6.92,4.42-11.67l0.07,0.23c-1.9-1.26-4.02-2.67-6.28-4.17l-0.11-0.07l0.01-0.14
									c0.26-2.52,0.23-5.25-0.23-8.07l-0.02-0.15l0.12-0.09c1.88-1.41,3.92-2.94,6.04-4.52l-0.09,0.33
									c-1.6-3.59-3.3-7.4-5.09-11.39l0.34,0.17c-2.29,0.46-4.81,0.96-7.4,1.47l-0.19,0.04l-0.12-0.15
									c-1.57-1.95-3.55-3.89-5.84-5.54l-0.16-0.12l0.03-0.2c0.33-2.31,0.7-4.86,1.08-7.46l0.22,0.37
									c-3.66-1.4-7.61-2.92-11.65-4.47l0.43-0.13c-1.31,1.95-2.74,4.09-4.19,6.26l-0.12,0.18l-0.22-0.02
									c-2.5-0.27-5.28-0.24-8.03,0.21l-0.22,0.04l-0.13-0.18c-1.41-1.89-2.95-3.96-4.51-6.05l0.45,0.12
									c-3.61,1.6-7.48,3.32-11.4,5.06l0.22-0.42c0.46,2.34,0.96,4.86,1.46,7.4l0.05,0.23l-0.18,0.15
									c-1.99,1.6-3.92,3.58-5.53,5.81l0,0l0,0c-0.16,0.07,0.37-0.15-0.37,0.16l-0.01,0l-0.01,0l-0.03,0l-0.06-0.01l-0.12-0.02
									l-0.23-0.03l-0.47-0.07l-0.94-0.14l-1.87-0.27c-1.24-0.18-2.48-0.36-3.72-0.54l0.41-0.24c-1.52,3.93-3.01,7.82-4.49,11.64
									l-0.14-0.45c2.11,1.41,4.19,2.81,6.26,4.2l0.19,0.13l-0.02,0.23c-0.3,2.7-0.22,5.41,0.2,8.03l0.04,0.22l-0.18,0.13
									c-2.05,1.52-4.06,3.02-6.05,4.5l0.12-0.44c1.72,3.9,3.41,7.7,5.05,11.41l-0.39-0.2c2.51-0.49,4.98-0.98,7.4-1.45l0.21-0.04
									l0.13,0.16c1.72,2.15,3.69,4.01,5.82,5.56l0.16,0.12l-0.03,0.2c-0.38,2.56-0.74,5.04-1.1,7.46l-0.2-0.34
									c4.09,1.59,7.96,3.09,11.63,4.51l-0.35,0.11c1.48-2.2,2.87-4.26,4.21-6.25l0.09-0.14l0.17,0.02
									c2.86,0.32,5.55,0.21,8.06-0.18l0.15-0.02l0.09,0.12c1.63,2.2,3.1,4.19,4.49,6.06l-0.27-0.07c4.43-1.94,8.2-3.59,11.43-5.01
									l-0.1,0.19c-0.56-2.96-1.03-5.39-1.41-7.41l-0.01-0.07l0.06-0.05c2.14-1.71,3.52-3.22,4.4-4.24
									c0.41-0.5,0.73-0.89,0.96-1.17C686.87,215.67,686.98,215.54,686.98,215.55c0,0.01-0.09,0.15-0.27,0.42
									c-0.19,0.27-0.49,0.68-0.92,1.21c-0.85,1.05-2.21,2.6-4.34,4.35l0.04-0.12c0.41,2.02,0.91,4.44,1.51,7.39l0.03,0.13
									L682.9,229c-3.22,1.44-6.97,3.13-11.38,5.11l-0.16,0.07l-0.11-0.15c-1.4-1.87-2.88-3.84-4.53-6.03l0.24,0.1
									c-2.55,0.41-5.29,0.54-8.2,0.23l0.26-0.12c-1.33,2-2.71,4.07-4.18,6.27l-0.13,0.2l-0.22-0.08
									c-3.68-1.41-7.55-2.89-11.65-4.46l-0.24-0.09l0.04-0.25c0.35-2.42,0.71-4.9,1.08-7.46l0.13,0.32
									c-2.18-1.57-4.2-3.47-5.96-5.66l0.33,0.12c-2.42,0.48-4.89,0.97-7.4,1.47l-0.28,0.06l-0.11-0.26
									c-1.65-3.71-3.34-7.51-5.07-11.4l-0.12-0.27l0.23-0.18c1.99-1.48,4-2.99,6.04-4.51l-0.14,0.36
									c-0.43-2.68-0.51-5.46-0.21-8.23l0.16,0.35c-2.07-1.38-4.16-2.78-6.26-4.19l-0.25-0.17l0.11-0.28
									c1.47-3.83,2.97-7.71,4.48-11.65l0.11-0.29l0.3,0.04c1.23,0.18,2.47,0.36,3.72,0.54l1.87,0.27l0.94,0.14l0.47,0.07
									l0.23,0.03l0.12,0.02l0.06,0.01l0.03,0l0.01,0l0.01,0c-0.73,0.31-0.2,0.08-0.37,0.15l0,0l0,0c1.66-2.29,3.63-4.32,5.68-5.96
									l-0.14,0.37c-0.5-2.54-1-5.06-1.46-7.4l-0.06-0.3l0.28-0.12c3.92-1.74,7.8-3.45,11.41-5.05l0.28-0.12l0.18,0.24
									c1.55,2.09,3.09,4.16,4.5,6.05l-0.36-0.14c2.82-0.45,5.67-0.48,8.23-0.2l-0.34,0.16c1.46-2.17,2.9-4.31,4.2-6.26l0.16-0.24
									l0.27,0.1c4.04,1.56,7.98,3.09,11.64,4.5l0.26,0.1l-0.04,0.27c-0.38,2.6-0.76,5.15-1.1,7.46l-0.13-0.32
									c2.33,1.69,4.35,3.68,5.94,5.68l-0.31-0.11c2.59-0.51,5.11-1,7.4-1.45l0.24-0.05l0.1,0.22c1.77,4.01,3.45,7.82,5.03,11.42
									l0.09,0.2l-0.18,0.13c-2.13,1.58-4.17,3.09-6.06,4.49l0.1-0.24c0.45,2.87,0.47,5.64,0.18,8.2l-0.1-0.21
									c2.25,1.52,4.35,2.94,6.24,4.22l0.13,0.09l-0.06,0.14c-1.85,4.73-3.39,8.64-4.55,11.62l-0.04,0.09l-0.1-0.02
									c-2.4-0.38-4.24-0.67-5.52-0.87c-0.61-0.1-1.08-0.18-1.43-0.24C687.15,215.6,686.99,215.56,686.98,215.55z"/>
							</g>
						</g>
					</g>
				</g>
			</g>
		</g>
		<g>
			<g>
				<g>
					<g>
						<path class="st2" d="M604.64,115.2c-2.29,3.15-4.96,5.94-7.93,8.33l2.06,10.46l-16.13,7.15l-6.37-8.55
							c-3.76,0.6-7.62,0.71-11.5,0.29l-5.94,8.85l-16.46-6.35l1.54-10.55c-3.16-2.29-5.95-4.96-8.33-7.93l-10.46,2.06l-7.15-16.13
							l8.55-6.37c-0.6-3.76-0.71-7.62-0.29-11.5l-8.86-5.93l6.34-16.47l10.55,1.54c2.29-3.16,4.96-5.94,7.93-8.33l-2.06-10.46
							l16.13-7.15l6.37,8.55c3.76-0.6,7.62-0.71,11.5-0.29l5.94-8.85l16.46,6.34L595,54.48c3.16,2.29,5.95,4.96,8.33,7.93
							l10.46-2.06l7.15,16.13l-8.55,6.37c0.6,3.76,0.71,7.62,0.29,11.5l8.85,5.93l-6.34,16.46L604.64,115.2L604.64,115.2z
							 M586.83,97.21c3.76-9.75-1.1-20.71-10.85-24.47c-9.75-3.76-20.71,1.1-24.47,10.85c-3.76,9.75,1.1,20.71,10.85,24.47
							C572.12,111.83,583.07,106.97,586.83,97.21z"/>
					</g>
				</g>
			</g>
		</g>
		<g>
			<g>
				<g>
					<g>
						<path class="st2" d="M686.39,137.93c-1.27,1.75-2.75,3.29-4.39,4.61l1.14,5.79l-8.93,3.96l-3.53-4.73
							c-2.08,0.33-4.22,0.39-6.37,0.16l-3.29,4.9l-9.11-3.51l0.85-5.84c-1.75-1.27-3.29-2.75-4.61-4.39l-5.79,1.14l-3.96-8.93
							l4.73-3.53c-0.33-2.08-0.39-4.22-0.16-6.37l-4.9-3.29l3.51-9.12l5.84,0.85c1.27-1.75,2.75-3.29,4.39-4.61l-1.14-5.79
							l8.93-3.96l3.53,4.74c2.08-0.33,4.22-0.39,6.37-0.16l3.29-4.9l9.11,3.51l-0.85,5.84c1.75,1.27,3.29,2.75,4.61,4.39l5.79-1.14
							l3.96,8.93l-4.73,3.53c0.33,2.08,0.39,4.22,0.16,6.37l4.9,3.29l-3.51,9.11L686.39,137.93L686.39,137.93z M676.53,127.97
							c2.08-5.4-0.61-11.46-6.01-13.55c-5.4-2.08-11.46,0.61-13.55,6.01c-2.08,5.4,0.61,11.46,6.01,13.55
							C668.39,136.06,674.45,133.37,676.53,127.97z"/>
					</g>
				</g>
			</g>
		</g>
	</g>
	<g>
		<g>
			<g>
				<g>
					<g>
						<path class="st0" d="M490.01,37.66c1.47,1.1,2.77,2.38,3.88,3.8l4.95-0.9l3.27,7.66l-4.08,2.95c0.26,1.78,0.28,3.6,0.06,5.43
							l4.14,2.86l-3.1,7.72l-4.97-0.8c-1.1,1.47-2.38,2.77-3.8,3.88l0.9,4.95l-7.66,3.27l-2.95-4.08c-1.78,0.26-3.6,0.28-5.43,0.06
							l-2.86,4.14l-7.73-3.1l0.8-4.97c-1.47-1.1-2.77-2.38-3.88-3.8l-4.95,0.9l-3.27-7.66l4.08-2.95c-0.26-1.78-0.28-3.6-0.06-5.43
							l-4.14-2.86l3.1-7.72l4.97,0.8c1.1-1.47,2.38-2.77,3.8-3.88l-0.9-4.95l7.66-3.27l2.95,4.08c1.78-0.26,3.6-0.28,5.43-0.06
							l2.86-4.14l7.72,3.1L490.01,37.66L490.01,37.66z M481.41,45.94c-4.58-1.84-9.78,0.38-11.62,4.96
							c-1.84,4.58,0.38,9.78,4.96,11.62c4.58,1.84,9.78-0.38,11.62-4.96C488.2,52.98,485.99,47.78,481.41,45.94z"/>
					</g>
				</g>
			</g>
		</g>
		<g>
			<g>
				<g>
					<g>
						<g>
							<path class="st1" d="M481.41,45.94c0,0,0.79,0.18,1.98,0.99c1.17,0.79,2.74,2.37,3.47,4.88c0.35,1.24,0.49,2.7,0.19,4.2
								c-0.31,1.49-0.97,3.05-2.14,4.32c-0.56,0.65-1.25,1.22-2.02,1.7c-0.76,0.48-1.62,0.86-2.53,1.08
								c-1.81,0.49-3.85,0.37-5.7-0.36c-1.84-0.76-3.4-2.08-4.37-3.69c-0.5-0.79-0.86-1.65-1.08-2.53
								c-0.23-0.87-0.33-1.76-0.28-2.62c0.04-1.73,0.64-3.31,1.45-4.6c0.82-1.29,1.93-2.25,3.04-2.9c2.26-1.31,4.49-1.36,5.88-1.12
								C480.71,45.53,481.41,45.94,481.41,45.94c-0.02,0.06-0.75-0.28-2.14-0.45c-1.37-0.17-3.52-0.06-5.67,1.24
								c-1.05,0.65-2.1,1.58-2.87,2.82c-0.75,1.24-1.31,2.75-1.34,4.39c-0.04,0.82,0.06,1.66,0.28,2.48
								c0.21,0.83,0.55,1.64,1.03,2.39c0.92,1.52,2.39,2.76,4.13,3.48c1.75,0.68,3.67,0.81,5.39,0.35c0.86-0.21,1.67-0.56,2.4-1.01
								c0.73-0.44,1.38-0.98,1.92-1.59c1.11-1.2,1.76-2.68,2.07-4.09c0.31-1.43,0.19-2.82-0.12-4.02c-0.65-2.43-2.13-3.99-3.24-4.81
								C482.14,46.26,481.38,46,481.41,45.94z"/>
						</g>
					</g>
				</g>
			</g>
		</g>
		<g>
			<g>
				<g>
					<g>
						<g>
							<path class="st1" d="M490.01,37.66c-0.01,0,0-0.1,0.03-0.31c0.03-0.23,0.08-0.54,0.13-0.94c0.13-0.86,0.31-2.11,0.55-3.72
								l0.05,0.09c-1.98-0.78-4.59-1.81-7.74-3.06l0.16-0.05c-0.86,1.26-1.82,2.65-2.84,4.15l-0.05,0.07l-0.09-0.01
								c-1.68-0.2-3.5-0.2-5.38,0.08l-0.1,0.01l-0.06-0.08c-0.92-1.27-1.92-2.64-2.96-4.07l0.22,0.06
								c-2.41,1.03-4.96,2.13-7.65,3.28l0.12-0.22c0.28,1.53,0.59,3.22,0.91,4.95l0.02,0.13l-0.1,0.08
								c-1.32,1.03-2.63,2.33-3.75,3.84l-0.08,0.11l-0.13-0.02c-1.54-0.24-3.24-0.52-4.97-0.79l0.25-0.14
								c-0.97,2.43-2.02,5.05-3.09,7.73l-0.09-0.28c1.29,0.89,2.7,1.87,4.14,2.86l0.12,0.08l-0.02,0.15
								c-0.21,1.67-0.21,3.52,0.06,5.36l0.02,0.15l-0.12,0.09c-1.28,0.92-2.67,1.93-4.08,2.95l0.08-0.3
								c1.04,2.42,2.15,5.02,3.27,7.65l-0.28-0.15c1.56-0.29,3.25-0.59,4.95-0.9l0.15-0.03l0.1,0.12c1.05,1.34,2.35,2.65,3.82,3.75
								l0,0l0,0c0.04,0.11-0.1-0.25,0.1,0.25l0,0l0,0.01l0,0.02l-0.01,0.04l-0.01,0.08l-0.03,0.16l-0.05,0.31l-0.1,0.62l-0.2,1.25
								c-0.13,0.83-0.27,1.65-0.4,2.48l-0.16-0.28c2.61,1.05,5.19,2.08,7.72,3.11l-0.3,0.09c0.96-1.39,1.92-2.77,2.86-4.14
								l0.09-0.13l0.15,0.02c1.8,0.22,3.61,0.2,5.36-0.05l0.15-0.02l0.09,0.12c1,1.38,1.98,2.74,2.95,4.08l-0.29-0.08
								c2.61-1.11,5.17-2.2,7.66-3.26l-0.14,0.26c-0.3-1.68-0.6-3.33-0.9-4.95l-0.02-0.14l0.11-0.09c1.45-1.13,2.71-2.42,3.76-3.83
								l0.08-0.11l0.13,0.02c1.7,0.28,3.35,0.54,4.96,0.81l-0.23,0.13c1.1-2.71,2.13-5.28,3.12-7.72l0.07,0.23
								c-1.45-1.01-2.82-1.96-4.13-2.87l-0.09-0.06l0.01-0.11c0.24-1.91,0.19-3.7-0.04-5.38l-0.01-0.1l0.08-0.06
								c1.48-1.07,2.82-2.03,4.09-2.93l-0.05,0.18c-1.25-2.97-2.32-5.5-3.23-7.67l0.13,0.07c-1.98,0.35-3.6,0.63-4.96,0.87
								l-0.05,0.01l-0.03-0.04c-1.12-1.45-2.12-2.38-2.79-2.98c-0.33-0.28-0.58-0.5-0.77-0.65
								C490.09,37.73,490.01,37.66,490.01,37.66c0.01,0,0.1,0.06,0.28,0.19c0.18,0.13,0.45,0.33,0.8,0.62
								c0.69,0.58,1.72,1.5,2.86,2.94l-0.08-0.03c1.35-0.26,2.97-0.56,4.94-0.94l0.09-0.02l0.04,0.08c0.93,2.16,2.02,4.68,3.3,7.64
								l0.05,0.11l-0.1,0.07c-1.26,0.92-2.59,1.89-4.07,2.96l0.07-0.16c0.25,1.7,0.31,3.53,0.08,5.47l-0.08-0.17
								c1.32,0.91,2.69,1.85,4.14,2.85l0.13,0.09l-0.06,0.15c-0.98,2.44-2,5.01-3.09,7.73l-0.06,0.16l-0.17-0.03
								c-1.61-0.26-3.26-0.52-4.97-0.79l0.21-0.09c-1.07,1.44-2.36,2.77-3.83,3.92l0.08-0.22c0.3,1.62,0.6,3.27,0.91,4.95l0.03,0.19
								l-0.17,0.07c-2.49,1.06-5.04,2.16-7.65,3.27l-0.18,0.08l-0.11-0.16c-0.97-1.34-1.95-2.7-2.95-4.07l0.24,0.1
								c-1.79,0.26-3.65,0.29-5.49,0.06l0.24-0.11c-0.94,1.37-1.9,2.75-2.86,4.14l-0.12,0.17l-0.19-0.08
								c-2.54-1.02-5.12-2.05-7.73-3.1l-0.19-0.08l0.03-0.2c0.13-0.82,0.26-1.65,0.4-2.48l0.2-1.25l0.1-0.62l0.05-0.31l0.03-0.16
								l0.01-0.08l0.01-0.04l0-0.02l0-0.01l0,0c0.2,0.49,0.05,0.14,0.1,0.25l0,0l0,0c-1.51-1.13-2.85-2.46-3.92-3.84l0.25,0.09
								c-1.7,0.31-3.39,0.62-4.95,0.9l-0.2,0.04l-0.08-0.19c-1.12-2.63-2.23-5.23-3.26-7.66l-0.08-0.18l0.16-0.12
								c1.41-1.02,2.8-2.02,4.08-2.95l-0.1,0.24c-0.27-1.89-0.27-3.78-0.06-5.49l0.1,0.23c-1.43-0.99-2.85-1.97-4.13-2.86
								l-0.16-0.11l0.07-0.18c1.08-2.68,2.13-5.3,3.11-7.72l0.07-0.17l0.18,0.03c1.73,0.28,3.43,0.56,4.96,0.81l-0.21,0.09
								c1.15-1.54,2.5-2.87,3.85-3.91l-0.08,0.2c-0.31-1.73-0.62-3.42-0.89-4.95l-0.03-0.16l0.15-0.06
								c2.69-1.14,5.25-2.23,7.66-3.25l0.13-0.06L472,29.6c1.03,1.43,2.02,2.81,2.94,4.09l-0.16-0.07c1.92-0.27,3.77-0.26,5.47-0.04
								l-0.14,0.06c1.04-1.49,2-2.88,2.88-4.13l0.06-0.09l0.1,0.04c3.14,1.28,5.73,2.34,7.71,3.15l0.06,0.03l-0.01,0.06
								c-0.27,1.59-0.49,2.82-0.63,3.68c-0.07,0.4-0.13,0.72-0.17,0.95C490.04,37.55,490.02,37.66,490.01,37.66z"/>
						</g>
					</g>
				</g>
			</g>
		</g>
	</g>
	<g>
		<g>
			<rect x="80.15" y="142.21" class="st1" width="80.42" height="83.83"/>
		</g>
		<g>
			<rect x="74.7" y="142.21" class="st3" width="80.42" height="83.83"/>
			<path class="st1" d="M155.15,226.06H74.68v-83.88h80.47V226.06z M74.73,226.01h80.37v-83.78H74.73V226.01z"/>
		</g>
		<g>
			<rect x="85.51" y="153.48" class="st3" width="58.8" height="61.29"/>
		</g>
		<g>
			<g>
				<path class="st1" d="M85.51,215.18c0.05,0.05-0.51,0.7-1.45,1.69c-0.94,0.99-2.26,2.33-3.74,3.79
					c-1.48,1.46-2.84,2.76-3.84,3.68s-1.65,1.47-1.7,1.42c-0.05-0.05,0.5-0.69,1.44-1.68c0.94-0.99,2.26-2.34,3.75-3.8
					c1.48-1.46,2.85-2.76,3.85-3.68C84.83,215.66,85.47,215.12,85.51,215.18z"/>
			</g>
		</g>
		<g>
			<g>
				<path class="st1" d="M144.31,215.03c0.06-0.05,0.7,0.51,1.69,1.45c0.99,0.94,2.33,2.26,3.79,3.74c1.46,1.48,2.76,2.84,3.68,3.84
					c0.92,1,1.47,1.65,1.42,1.7c-0.05,0.05-0.69-0.5-1.68-1.44c-0.99-0.94-2.34-2.26-3.8-3.75c-1.46-1.48-2.76-2.85-3.68-3.85
					C144.8,215.72,144.26,215.07,144.31,215.03z"/>
			</g>
		</g>
		<g>
			<g>
				<path class="st1" d="M144.15,153.64c-0.05-0.06,0.51-0.7,1.45-1.69c0.94-0.99,2.26-2.33,3.74-3.79
					c1.48-1.46,2.84-2.76,3.84-3.68c1-0.92,1.65-1.47,1.7-1.42c0.05,0.05-0.5,0.69-1.44,1.68s-2.26,2.34-3.75,3.8
					c-1.48,1.46-2.85,2.76-3.85,3.68C144.84,153.15,144.2,153.7,144.15,153.64z"/>
			</g>
		</g>
		<g>
			<g>
				<path class="st1" d="M85.35,153.79c-0.06,0.05-0.7-0.51-1.69-1.45c-0.99-0.94-2.33-2.26-3.79-3.74
					c-1.46-1.48-2.76-2.84-3.68-3.84c-0.92-1-1.47-1.65-1.42-1.7c0.05-0.05,0.69,0.5,1.68,1.44c0.99,0.94,2.34,2.26,3.8,3.75
					c1.46,1.48,2.76,2.85,3.68,3.85C84.87,153.1,85.41,153.74,85.35,153.79z"/>
			</g>
		</g>
		<g>
			<g>
				<path class="st1" d="M144.15,214.77c0,0-0.01-0.1-0.01-0.3c0-0.21-0.01-0.49-0.01-0.86c-0.01-0.77-0.01-1.87-0.03-3.31
					c-0.01-2.9-0.03-7.13-0.06-12.49c-0.03-10.74-0.07-26.03-0.12-44.34l0.23,0.23c-17.12,0.01-37.22,0.02-58.63,0.03h-0.01
					l0.26-0.26c-0.01,22.5-0.03,43.54-0.04,61.29l-0.22-0.22c17.57,0.05,32.2,0.09,42.46,0.11c5.12,0.03,9.16,0.04,11.93,0.06
					c1.37,0.01,2.42,0.02,3.16,0.03c0.35,0.01,0.62,0.01,0.82,0.01C144.05,214.76,144.15,214.77,144.15,214.77
					c0,0-0.08,0.01-0.26,0.01c-0.19,0-0.45,0.01-0.79,0.01c-0.72,0.01-1.76,0.01-3.11,0.03c-2.76,0.01-6.77,0.03-11.88,0.06
					c-10.29,0.03-24.97,0.07-42.6,0.11l-0.22,0l0-0.22c-0.01-17.75-0.02-38.8-0.04-61.29l0-0.26h0.26h0.01
					c21.41,0.01,41.52,0.02,58.63,0.03l0.23,0l0,0.23c-0.05,18.37-0.09,33.71-0.12,44.48c-0.03,5.34-0.05,9.55-0.06,12.44
					c-0.01,1.42-0.02,2.51-0.03,3.26c-0.01,0.35-0.01,0.63-0.01,0.83C144.16,214.68,144.16,214.77,144.15,214.77z"/>
			</g>
		</g>
		<g>
			<rect x="105.1" y="174.31" class="st4" width="19.62" height="19.62"/>
		</g>
	</g>
	<g>
		<g>
			<rect x="120.72" y="52.51" class="st1" width="50.62" height="52.76"/>
		</g>
		<g>
			<rect x="117.3" y="52.51" class="st3" width="50.62" height="52.76"/>
			<path class="st1" d="M167.93,105.29h-50.65V52.5h50.65V105.29z M117.31,105.26h50.58V52.53h-50.58V105.26z"/>
		</g>
		<g>
			<rect x="124.1" y="59.61" class="st3" width="37.01" height="38.58"/>
		</g>
		<g>
			<g>
				<path class="st1" d="M124.1,98.44c0.03,0.03-0.32,0.44-0.91,1.06c-0.59,0.62-1.42,1.47-2.35,2.38
					c-0.93,0.92-1.79,1.73-2.42,2.31c-0.63,0.58-1.04,0.92-1.07,0.89c-0.03-0.03,0.32-0.43,0.91-1.06c0.59-0.62,1.42-1.47,2.36-2.39
					c0.93-0.92,1.79-1.74,2.42-2.32C123.67,98.75,124.07,98.41,124.1,98.44z"/>
			</g>
		</g>
		<g>
			<g>
				<path class="st1" d="M161.11,98.35c0.03-0.03,0.44,0.32,1.06,0.91c0.62,0.59,1.47,1.42,2.38,2.35c0.92,0.93,1.73,1.79,2.31,2.42
					c0.58,0.63,0.92,1.04,0.89,1.07c-0.03,0.03-0.43-0.32-1.06-0.91c-0.62-0.59-1.47-1.42-2.39-2.36c-0.92-0.93-1.74-1.79-2.32-2.42
					C161.41,98.78,161.07,98.38,161.11,98.35z"/>
			</g>
		</g>
		<g>
			<g>
				<path class="st1" d="M161.01,59.71c-0.03-0.03,0.32-0.44,0.91-1.06c0.59-0.62,1.42-1.47,2.35-2.38
					c0.93-0.92,1.79-1.73,2.42-2.31c0.63-0.58,1.04-0.92,1.07-0.89c0.03,0.03-0.32,0.43-0.91,1.06c-0.59,0.62-1.42,1.47-2.36,2.39
					c-0.93,0.92-1.79,1.74-2.42,2.32C161.44,59.4,161.04,59.75,161.01,59.71z"/>
			</g>
		</g>
		<g>
			<g>
				<path class="st1" d="M124,59.81c-0.03,0.03-0.44-0.32-1.06-0.91c-0.62-0.59-1.47-1.42-2.38-2.35c-0.92-0.93-1.73-1.79-2.31-2.42
					c-0.58-0.63-0.92-1.04-0.89-1.07c0.03-0.03,0.43,0.32,1.06,0.91c0.62,0.59,1.47,1.42,2.39,2.36c0.92,0.93,1.74,1.79,2.32,2.42
					C123.69,59.37,124.03,59.78,124,59.81z"/>
			</g>
		</g>
		<g>
			<g>
				<path class="st1" d="M161.01,98.18c0,0-0.01-0.07-0.01-0.19c0-0.13,0-0.31-0.01-0.54c0-0.48-0.01-1.18-0.02-2.08
					c-0.01-1.83-0.02-4.49-0.04-7.86c-0.02-6.76-0.04-16.38-0.07-27.91l0.14,0.14c-10.77,0.01-23.43,0.01-36.9,0.02h0l0.16-0.16
					c-0.01,14.16-0.02,27.41-0.02,38.58l-0.14-0.14c11.06,0.03,20.27,0.05,26.72,0.07c3.23,0.02,5.76,0.03,7.51,0.04
					c0.86,0.01,1.52,0.01,1.99,0.02c0.22,0,0.39,0.01,0.51,0.01C160.94,98.18,161,98.18,161.01,98.18c0,0-0.05,0.01-0.16,0.01
					c-0.12,0-0.29,0-0.5,0.01c-0.46,0-1.11,0.01-1.96,0.02c-1.74,0.01-4.26,0.02-7.47,0.04c-6.48,0.02-15.72,0.04-26.81,0.07
					l-0.14,0l0-0.14c-0.01-11.17-0.01-24.42-0.02-38.58l0-0.16h0.16h0c13.48,0.01,26.13,0.01,36.9,0.02h0.14l0,0.14
					c-0.03,11.56-0.06,21.22-0.07,28c-0.02,3.36-0.03,6.01-0.04,7.83c-0.01,0.89-0.01,1.58-0.02,2.05c0,0.22-0.01,0.4-0.01,0.52
					C161.01,98.13,161.01,98.19,161.01,98.18z"/>
			</g>
		</g>
		<g>
			<rect x="136.43" y="72.72" class="st4" width="12.35" height="12.35"/>
		</g>
	</g>
</g>
<g id="Background_Simple" class="st5">
	<g class="st6">
		<path class="st1" d="M133.08,314.35c-39.17-38.02-54.23-98.19-40.2-150.95c14.04-52.76,55.65-96.72,106.62-116.27
			c50.97-19.55,110-15.15,158.86,9.21c31.01,15.46,57.69,38.2,86.56,57.37s61.68,35.24,96.32,34.53
			c31.32-0.64,63.09-14.9,93.05-5.74c22.82,6.98,51.17,19.01,68.25,48.91c17.33,30.35,23.99,79.9,20,109.61
			c-6.27,46.67-46.42,100.76-97.26,130.56c-40.65,23.82-92.83,24.4-139.63,29.78c-75.83,8.73-154.64,8.9-226.12-17.89
			c-71.48-26.79-134.71-84.58-151.71-159"/>
	</g>
</g>
<g id="Floor">
	<g>
		<g>
			<g>
				<path class="st7" d="M713.81,456.84c0,0.14-146.46,0.26-327.08,0.26c-180.68,0-327.11-0.12-327.11-0.26
					c0-0.14,146.43-0.26,327.11-0.26C567.36,456.58,713.81,456.69,713.81,456.84z"/>
			</g>
		</g>
	</g>
</g>
<g id="Device">
	<g>
		<g>
			<g>
				<g>
					<g>
						<g>
							<g>
								<g>
									<g>
										<g>
											<path class="st8" d="M606.63,98.69H202.01c-6.98,0-12.63,5.65-12.63,12.63v285.79c0,6.98,5.65,12.63,12.63,12.63H357.3
												c0,0,9.88,30.55-20.74,46.35h145.2c0,0-34.57-11.85-25.68-46.35h150.55c6.97,0,12.63-5.65,12.63-12.63V111.32
												C619.26,104.35,613.6,98.69,606.63,98.69z"/>
										</g>
									</g>
								</g>
							</g>
						</g>
						<g>
							<g>
								<g>
									<g>
										<g>
											<path class="st7" d="M409.72,379.68c5.5,7.87-3.11,16.48-10.98,10.98c-0.26-0.18-0.5-0.42-0.68-0.68
												c-5.49-7.86,3.11-16.47,10.98-10.98C409.31,379.19,409.54,379.42,409.72,379.68z"/>
										</g>
									</g>
								</g>
							</g>
						</g>
					</g>
					<g>
						<g>
							<g>
								<g>
									<g>
										<g>
											<g>
												<path class="st3" d="M606.01,359.48H201.79c-1.81,0-3.27-1.47-3.27-3.27V119.1c0-1.81,1.47-3.27,3.27-3.27h404.22
													c1.81,0,3.27,1.47,3.27,3.27V356.2C609.28,358.01,607.82,359.48,606.01,359.48z"/>
											</g>
										</g>
										<g>
											<g>
												<path class="st9" d="M606.01,359.98H201.79c-2.08,0-3.77-1.69-3.77-3.77V119.1c0-2.08,1.69-3.77,3.77-3.77h404.22
													c2.08,0,3.77,1.69,3.77,3.77V356.2C609.78,358.28,608.09,359.98,606.01,359.98z M201.79,116.32
													c-1.53,0-2.77,1.24-2.77,2.77V356.2c0,1.53,1.24,2.77,2.77,2.77h404.22c1.53,0,2.77-1.24,2.77-2.77V119.1
													c0-1.53-1.24-2.77-2.77-2.77H201.79z"/>
											</g>
										</g>
									</g>
								</g>
							</g>
							<g>
								<g>
									<g>
										<g>
											<g>
												<path class="st8" d="M232.2,125.23c0,1.81-1.47,3.28-3.28,3.28c-1.81,0-3.28-1.47-3.28-3.28c0-1.81,1.47-3.28,3.28-3.28
													C230.73,121.95,232.2,123.42,232.2,125.23z"/>
											</g>
										</g>
									</g>
								</g>
							</g>
							<g>
								<g>
									<g>
										<g>
											<g>
												<path class="st8" d="M212.32,125.23c0,1.81-1.47,3.28-3.28,3.28c-1.81,0-3.28-1.47-3.28-3.28
													c0-1.81,1.47-3.28,3.28-3.28C210.85,121.95,212.32,123.42,212.32,125.23z"/>
											</g>
										</g>
									</g>
								</g>
							</g>
							<g>
								<g>
									<g>
										<g>
											<g>
												<path class="st8" d="M221.87,125.23c0,1.81-1.47,3.28-3.28,3.28c-1.81,0-3.28-1.47-3.28-3.28
													c0-1.81,1.47-3.28,3.28-3.28C220.4,121.95,221.87,123.42,221.87,125.23z"/>
											</g>
										</g>
									</g>
								</g>
							</g>
						</g>
					</g>
				</g>
				<g>
					<g>
						<g>
							<g>
								<path class="st7" d="M609.58,135.08c0,0.14-92.09,0.26-205.67,0.26c-113.62,0-205.69-0.12-205.69-0.26
									c0-0.14,92.07-0.26,205.69-0.26C517.49,134.82,609.58,134.94,609.58,135.08z"/>
							</g>
						</g>
					</g>
				</g>
			</g>
		</g>
		<g>
			<g>
				<g>
					<path class="st10" d="M387.14,319.98h-97.03c-6.82,0-12.34-5.53-12.34-12.34v0c0-6.82,5.53-12.34,12.34-12.34h97.03
						c6.82,0,12.34,5.53,12.34,12.34v0C399.49,314.46,393.96,319.98,387.14,319.98z"/>
				</g>
			</g>
			<g>
				<g>
					<g>
						<path class="st11" d="M508.34,319.98c-0.03-0.1,1.88,0.22,5.03-1.14c1.52-0.72,3.36-1.9,4.82-3.92
							c1.48-1.97,2.57-4.82,2.35-8.05c-0.18-3.19-1.78-6.77-4.98-9.08c-1.56-1.17-3.51-1.97-5.61-2.25
							c-1.05-0.14-2.14-0.12-3.25-0.11c-1.11,0-2.24,0-3.4,0.01c-9.22,0.01-19.72,0.02-31.32,0.04
							c-46.42,0.02-110.53,0.05-181.34,0.08c-2.16,0.04-4.33,0.57-6.17,1.7c-1.87,1.09-3.38,2.7-4.43,4.57
							c-2.07,3.75-1.96,8.59,0.32,12.16c1.09,1.81,2.71,3.27,4.53,4.29c1.86,0.97,3.93,1.5,6.03,1.45c4.25,0,8.46,0,12.63,0
							c16.7,0.01,32.8,0.01,48.15,0.02c30.68,0.02,58.32,0.04,81.53,0.06c23.2,0.03,41.98,0.06,54.96,0.08
							c6.48,0.02,11.52,0.04,14.94,0.05c1.7,0.01,3,0.02,3.89,0.03C507.89,319.97,508.34,319.98,508.34,319.98s-0.45,0.02-1.32,0.03
							c-0.89,0.01-2.18,0.01-3.89,0.03c-3.43,0.01-8.46,0.03-14.94,0.05c-12.99,0.02-31.76,0.05-54.96,0.08
							c-23.21,0.02-50.84,0.03-81.53,0.06c-15.34,0-31.45,0.01-48.15,0.02c-4.17,0-8.39,0-12.63,0c-2.16,0.05-4.34-0.5-6.27-1.51
							c-1.9-1.07-3.59-2.58-4.72-4.47c-2.38-3.73-2.5-8.77-0.34-12.68c1.09-1.94,2.68-3.63,4.62-4.76c1.92-1.18,4.19-1.74,6.44-1.77
							c70.81,0.03,134.92,0.06,181.34,0.08c11.6,0.01,22.1,0.03,31.32,0.04c1.15,0,2.28,0,3.4,0.01c1.11,0,2.21-0.02,3.29,0.13
							c2.15,0.29,4.13,1.11,5.72,2.32c3.26,2.37,4.87,6.02,5.04,9.26c0.21,3.28-0.91,6.17-2.43,8.15c-1.49,2.04-3.36,3.22-4.9,3.93
							c-1.57,0.7-2.89,0.88-3.75,1C508.79,319.99,508.34,319.98,508.34,319.98z"/>
					</g>
				</g>
			</g>
			<g>
				<g>
					<path class="st10" d="M416.9,333.79c0-2.04,0.47-3.87,1.29-5.19h0.75c-0.88,1.52-1.26,3.22-1.26,5.19
						c0,1.97,0.39,3.67,1.26,5.19h-0.75C417.37,337.64,416.9,335.83,416.9,333.79z"/>
				</g>
				<g>
					<path class="st10" d="M426.36,334.79h-1.55v2.04H424v-2.04h-4.38v-0.58l4.12-5.15h0.89l-3.97,5.01h3.37v-1.8h0.78v1.8h1.55
						V334.79z"/>
				</g>
				<g>
					<path class="st10" d="M427.09,332.95c0-2.47,1.3-3.95,3.09-3.95c1.8,0,3.11,1.48,3.11,3.95c0,2.47-1.31,3.95-3.11,3.95
						C428.39,336.9,427.09,335.42,427.09,332.95z M432.47,332.95c0-2.07-0.93-3.22-2.29-3.22c-1.35,0-2.29,1.14-2.29,3.22
						c0,2.07,0.93,3.22,2.29,3.22C431.54,336.17,432.47,335.02,432.47,332.95z"/>
				</g>
				<g>
					<path class="st10" d="M434.32,331.12c0-1.26,0.71-2.11,1.75-2.11c1.03,0,1.75,0.83,1.75,2.11c0,1.28-0.72,2.11-1.75,2.11
						C435.03,333.23,434.32,332.38,434.32,331.12z M437.27,331.12c0-1.01-0.48-1.61-1.2-1.61c-0.73,0-1.2,0.61-1.2,1.61
						c0,1,0.47,1.61,1.2,1.61C436.79,332.73,437.27,332.13,437.27,331.12z M440.77,329.07h0.65l-5.3,7.77h-0.66L440.77,329.07z
						 M439.08,334.78c0-1.26,0.72-2.11,1.75-2.11c1.04,0,1.75,0.84,1.75,2.11c0,1.26-0.71,2.11-1.75,2.11
						C439.8,336.89,439.08,336.04,439.08,334.78z M442.03,334.78c0-1-0.47-1.61-1.2-1.61c-0.72,0-1.2,0.6-1.2,1.61
						c0,1.01,0.48,1.61,1.2,1.61C441.56,336.39,442.03,335.78,442.03,334.78z"/>
				</g>
				<g>
					<path class="st10" d="M443.27,338.98c0.89-1.52,1.28-3.22,1.28-5.19c0-1.97-0.39-3.67-1.28-5.19h0.75
						c0.83,1.32,1.3,3.15,1.3,5.19c0,2.04-0.47,3.85-1.3,5.19H443.27z"/>
				</g>
			</g>
			<text transform="matrix(1 0 0 1 364.0783 337.7801)" class="st12 st13">Installing</text>
		</g>
		<g>
			<g>
				<path class="st7" d="M331.3,165.91v2.5h4.37v1.75h-4.37v3.44h-2.19v-9.44h7.14v1.75H331.3z"/>
			</g>
			<g>
				<path class="st7" d="M337.73,164.16h2.19v9.44h-2.19V164.16z"/>
			</g>
			<g>
				<path class="st7" d="M348.17,173.6l-1.82-2.63h-0.11h-1.9v2.63h-2.18v-9.44h4.09c2.52,0,4.1,1.31,4.1,3.43
					c0,1.42-0.71,2.46-1.94,2.98l2.12,3.04H348.17z M346.12,165.94h-1.78v3.29h1.78c1.33,0,2.01-0.62,2.01-1.65
					C348.13,166.55,347.46,165.94,346.12,165.94z"/>
			</g>
			<g>
				<path class="st7" d="M360.66,173.6l-0.01-5.67l-2.78,4.67h-0.98l-2.77-4.55v5.54h-2.05v-9.44h1.81l3.53,5.87l3.48-5.87h1.79
					l0.03,9.44H360.66z"/>
			</g>
			<g>
				<path class="st7" d="M379.17,164.16l-3.09,9.44h-2.35l-2.08-6.39l-2.14,6.39h-2.33l-3.1-9.44h2.27l2.13,6.64l2.23-6.64h2.02
					l2.16,6.69l2.2-6.69H379.17z"/>
			</g>
			<g>
				<path class="st7" d="M386.3,171.58h-4.38l-0.84,2.02h-2.24l4.21-9.44h2.16l4.22,9.44h-2.29L386.3,171.58z M385.61,169.92
					l-1.5-3.61l-1.5,3.61H385.61z"/>
			</g>
			<g>
				<path class="st7" d="M396.43,173.6l-1.82-2.63h-0.11h-1.9v2.63h-2.19v-9.44h4.09c2.52,0,4.1,1.31,4.1,3.43
					c0,1.42-0.71,2.46-1.94,2.98l2.12,3.04H396.43z M394.38,165.94h-1.78v3.29h1.78c1.34,0,2.01-0.62,2.01-1.65
					C396.39,166.55,395.71,165.94,394.38,165.94z"/>
			</g>
			<g>
				<path class="st7" d="M407.64,171.85v1.75h-7.31v-9.44h7.14v1.75h-4.96v2.05h4.38v1.7h-4.38v2.19H407.64z"/>
			</g>
			<g>
				<path class="st7" d="M421.69,164.16l-4.14,9.44h-1.34l-4.15-9.44h1.46l3.4,7.76l3.43-7.76H421.69z"/>
			</g>
			<g>
				<path class="st7" d="M429.74,172.43v1.17h-6.85v-9.44h6.66v1.17h-5.31v2.9h4.73v1.15h-4.73v3.05H429.74z"/>
			</g>
			<g>
				<path class="st7" d="M438.24,173.6l-2.04-2.9c-0.19,0.01-0.39,0.03-0.59,0.03h-2.33v2.87h-1.35v-9.44h3.68
					c2.45,0,3.94,1.24,3.94,3.29c0,1.46-0.75,2.51-2.08,2.98l2.24,3.17H438.24z M438.2,167.45c0-1.35-0.9-2.12-2.63-2.12h-2.29v4.25
					h2.29C437.3,169.58,438.2,168.8,438.2,167.45z"/>
			</g>
			<g>
				<path class="st7" d="M440.87,172.52l0.5-1.05c0.7,0.63,1.9,1.09,3.12,1.09c1.63,0,2.33-0.63,2.33-1.46
					c0-2.31-5.72-0.85-5.72-4.36c0-1.46,1.13-2.7,3.62-2.7c1.11,0,2.25,0.3,3.04,0.84l-0.45,1.08c-0.82-0.53-1.75-0.77-2.59-0.77
					c-1.61,0-2.29,0.67-2.29,1.5c0,2.31,5.72,0.86,5.72,4.33c0,1.44-1.16,2.68-3.66,2.68C443.05,173.71,441.63,173.22,440.87,172.52
					z"/>
			</g>
			<g>
				<path class="st7" d="M450.11,164.16h1.35v9.44h-1.35V164.16z"/>
			</g>
			<g>
				<path class="st7" d="M453.53,168.88c0-2.77,2.13-4.83,5.03-4.83c2.87,0,5,2.05,5,4.83c0,2.78-2.13,4.83-5,4.83
					C455.66,173.71,453.53,171.65,453.53,168.88z M462.21,168.88c0-2.09-1.56-3.63-3.66-3.63c-2.12,0-3.68,1.54-3.68,3.63
					c0,2.09,1.56,3.63,3.68,3.63C460.65,172.51,462.21,170.97,462.21,168.88z"/>
			</g>
			<g>
				<path class="st7" d="M473.75,164.16v9.44h-1.11l-5.67-7.04v7.04h-1.35v-9.44h1.11l5.67,7.04v-7.04H473.75z"/>
			</g>
		</g>
		<g>
			<g>
				<g>
					<rect x="374.6" y="203.79" class="st10" width="58" height="58"/>
				</g>
			</g>
			<g>
				<g>
					<polygon class="st3" points="397.95,213.12 397.8,234.82 389.55,234.82 403.98,254.21 417.33,234.89 409.22,234.89 
						409.44,213.12 					"/>
				</g>
			</g>
			<g>
				<g>
					<path class="st10" d="M443.47,217.58h-11.01c-1.61,0-2.91-1.31-2.91-2.91v-0.26c0-1.61,1.3-2.91,2.91-2.91h11.01
						c1.61,0,2.91,1.3,2.91,2.91v0.26C446.38,216.28,445.07,217.58,443.47,217.58z"/>
				</g>
			</g>
			<g>
				<g>
					<path class="st10" d="M443.47,229.59h-11.01c-1.61,0-2.91-1.31-2.91-2.91v-0.26c0-1.61,1.3-2.91,2.91-2.91h11.01
						c1.61,0,2.91,1.3,2.91,2.91v0.26C446.38,228.28,445.07,229.59,443.47,229.59z"/>
				</g>
			</g>
			<g>
				<g>
					<path class="st10" d="M443.47,241.59h-11.01c-1.61,0-2.91-1.3-2.91-2.91v-0.26c0-1.61,1.3-2.91,2.91-2.91h11.01
						c1.61,0,2.91,1.3,2.91,2.91v0.26C446.38,240.28,445.07,241.59,443.47,241.59z"/>
				</g>
			</g>
			<g>
				<g>
					<path class="st10" d="M443.47,253.59h-11.01c-1.61,0-2.91-1.3-2.91-2.91v-0.26c0-1.61,1.3-2.91,2.91-2.91h11.01
						c1.61,0,2.91,1.3,2.91,2.91v0.26C446.38,252.29,445.07,253.59,443.47,253.59z"/>
				</g>
			</g>
			<g>
				<g>
					<path class="st10" d="M376.18,217.58h-11.01c-1.61,0-2.91-1.31-2.91-2.91v-0.26c0-1.61,1.31-2.91,2.91-2.91h11.01
						c1.61,0,2.91,1.3,2.91,2.91v0.26C379.1,216.28,377.79,217.58,376.18,217.58z"/>
				</g>
			</g>
			<g>
				<g>
					<path class="st10" d="M376.18,229.59h-11.01c-1.61,0-2.91-1.31-2.91-2.91v-0.26c0-1.61,1.31-2.91,2.91-2.91h11.01
						c1.61,0,2.91,1.3,2.91,2.91v0.26C379.1,228.28,377.79,229.59,376.18,229.59z"/>
				</g>
			</g>
			<g>
				<g>
					<path class="st10" d="M376.18,241.59h-11.01c-1.61,0-2.91-1.3-2.91-2.91v-0.26c0-1.61,1.31-2.91,2.91-2.91h11.01
						c1.61,0,2.91,1.3,2.91,2.91v0.26C379.1,240.28,377.79,241.59,376.18,241.59z"/>
				</g>
			</g>
			<g>
				<g>
					<path class="st10" d="M376.18,253.59h-11.01c-1.61,0-2.91-1.3-2.91-2.91v-0.26c0-1.61,1.31-2.91,2.91-2.91h11.01
						c1.61,0,2.91,1.3,2.91,2.91v0.26C379.1,252.29,377.79,253.59,376.18,253.59z"/>
				</g>
			</g>
			<g>
				<g>
					<path class="st10" d="M387.97,194.33v11.01c0,1.61-1.3,2.91-2.91,2.91h-0.26c-1.61,0-2.91-1.3-2.91-2.91v-11.01
						c0-1.61,1.3-2.91,2.91-2.91h0.26C386.66,191.42,387.97,192.72,387.97,194.33z"/>
				</g>
			</g>
			<g>
				<g>
					<path class="st10" d="M399.97,194.33v11.01c0,1.61-1.3,2.91-2.91,2.91h-0.26c-1.61,0-2.91-1.3-2.91-2.91v-11.01
						c0-1.61,1.3-2.91,2.91-2.91h0.26C398.66,191.42,399.97,192.72,399.97,194.33z"/>
				</g>
			</g>
			<g>
				<g>
					<path class="st10" d="M411.97,194.33v11.01c0,1.61-1.3,2.91-2.91,2.91h-0.26c-1.61,0-2.91-1.3-2.91-2.91v-11.01
						c0-1.61,1.3-2.91,2.91-2.91h0.26C410.67,191.42,411.97,192.72,411.97,194.33z"/>
				</g>
			</g>
			<g>
				<g>
					<path class="st10" d="M423.98,194.33v11.01c0,1.61-1.3,2.91-2.91,2.91h-0.26c-1.61,0-2.91-1.3-2.91-2.91v-11.01
						c0-1.61,1.3-2.91,2.91-2.91h0.26C422.67,191.42,423.98,192.72,423.98,194.33z"/>
				</g>
			</g>
			<g>
				<g>
					<path class="st10" d="M387.97,260.99V272c0,1.61-1.3,2.91-2.91,2.91h-0.26c-1.61,0-2.91-1.3-2.91-2.91v-11.01
						c0-1.61,1.3-2.91,2.91-2.91h0.26C386.66,258.08,387.97,259.38,387.97,260.99z"/>
				</g>
			</g>
			<g>
				<g>
					<path class="st10" d="M399.97,260.99V272c0,1.61-1.3,2.91-2.91,2.91h-0.26c-1.61,0-2.91-1.3-2.91-2.91v-11.01
						c0-1.61,1.3-2.91,2.91-2.91h0.26C398.66,258.08,399.97,259.38,399.97,260.99z"/>
				</g>
			</g>
			<g>
				<g>
					<path class="st10" d="M411.97,260.99V272c0,1.61-1.3,2.91-2.91,2.91h-0.26c-1.61,0-2.91-1.3-2.91-2.91v-11.01
						c0-1.61,1.3-2.91,2.91-2.91h0.26C410.67,258.08,411.97,259.38,411.97,260.99z"/>
				</g>
			</g>
			<g>
				<g>
					<path class="st10" d="M423.98,260.99V272c0,1.61-1.3,2.91-2.91,2.91h-0.26c-1.61,0-2.91-1.3-2.91-2.91v-11.01
						c0-1.61,1.3-2.91,2.91-2.91h0.26C422.67,258.08,423.98,259.38,423.98,260.99z"/>
				</g>
			</g>
		</g>
		<g>
			<g>
				<g>
					<path class="st14" d="M353.24,237.65c0,0-0.26,0.02-0.77,0.03c-0.53,0.01-1.28,0.02-2.24,0.03c-1.99,0.01-4.86,0.03-8.51,0.06
						c-7.36,0.02-17.86,0.05-30.49,0.09l0.15-0.06c-7.59,6.87-16.39,14.84-25.82,23.37l-0.07,0.07l-0.1,0c-3.56,0-7.3,0-11.11,0
						c-14.46-0.01-28.1-0.02-39.94-0.03l0.15-0.05c-10.98,9.13-20.21,16.79-26.71,22.2c-3.24,2.67-5.79,4.78-7.56,6.24
						c-0.86,0.7-1.54,1.25-2.01,1.63c-0.22,0.17-0.39,0.31-0.52,0.41c-0.12,0.09-0.18,0.13-0.18,0.13c0,0,0.05-0.06,0.16-0.16
						c0.13-0.11,0.29-0.26,0.5-0.44c0.46-0.4,1.12-0.96,1.96-1.69c1.75-1.48,4.28-3.62,7.48-6.34c6.47-5.44,15.65-13.15,26.59-22.34
						l0.06-0.05l0.08,0c11.83-0.01,25.48-0.02,39.94-0.03c3.81,0,7.55,0,11.11,0l-0.17,0.07c9.45-8.52,18.26-16.46,25.87-23.32
						l0.06-0.06l0.08,0c12.63,0.04,23.12,0.07,30.49,0.09c3.65,0.03,6.52,0.05,8.51,0.06c0.96,0.01,1.71,0.03,2.24,0.03
						C352.98,237.63,353.24,237.65,353.24,237.65z"/>
				</g>
			</g>
		</g>
		<g>
			<g>
				<g>
					<path class="st14" d="M303.25,215.2c0.01,0,0.02,0.09,0.03,0.28c0.01,0.22,0.02,0.48,0.03,0.81c0.01,0.76,0.03,1.79,0.05,3.1
						c0.02,2.74,0.05,6.62,0.09,11.37l0,0.09l-0.07,0.06c-5.18,4.52-11.84,10.33-19.16,16.71l-0.07,0.06h-0.1c-0.96,0-1.98,0-3.01,0
						c-12.13-0.03-23.11-0.06-31.11-0.08c-3.94-0.03-7.15-0.06-9.43-0.08c-1.08-0.02-1.93-0.04-2.56-0.05
						c-0.59-0.02-0.89-0.03-0.89-0.05c0-0.02,0.31-0.04,0.89-0.05c0.63-0.01,1.49-0.03,2.56-0.05c2.27-0.02,5.48-0.05,9.43-0.08
						c8-0.02,18.98-0.05,31.11-0.08c1.03,0,2.05,0,3.01,0l-0.17,0.06c7.35-6.35,14.04-12.13,19.24-16.62l-0.07,0.15
						c0.04-4.75,0.07-8.63,0.09-11.37c0.02-1.31,0.04-2.35,0.05-3.1c0.01-0.33,0.02-0.59,0.03-0.81
						C303.23,215.29,303.24,215.2,303.25,215.2z"/>
				</g>
			</g>
		</g>
		<g>
			<g>
				<g>
					<path class="st14" d="M290.97,279.21c-0.01,0-0.02-0.1-0.03-0.29c-0.01-0.23-0.02-0.5-0.03-0.84
						c-0.01-0.79-0.03-1.86-0.06-3.21c-0.02-2.83-0.05-6.78-0.09-11.55l0-0.09l0.07-0.06c4.4-4.15,9.79-9.23,15.59-14.71
						c2.15-2.02,4.24-3.98,6.22-5.84l0.07-0.07l0.1,0c8.23,0.04,15.41,0.07,20.6,0.09c2.52,0.03,4.56,0.06,6.03,0.08
						c0.67,0.02,1.2,0.03,1.62,0.04c0.37,0.01,0.56,0.03,0.56,0.05c0,0.02-0.19,0.03-0.56,0.05c-0.41,0.01-0.95,0.03-1.62,0.04
						c-1.46,0.02-3.5,0.04-6.03,0.07c-5.19,0.02-12.37,0.05-20.6,0.09l0.17-0.07c-1.98,1.86-4.07,3.83-6.21,5.85
						c-5.83,5.45-11.24,10.51-15.66,14.64l0.07-0.16c-0.04,4.77-0.07,8.73-0.09,11.55c-0.02,1.34-0.04,2.41-0.06,3.21
						c-0.01,0.34-0.02,0.61-0.03,0.84C290.99,279.11,290.98,279.21,290.97,279.21z"/>
				</g>
			</g>
		</g>
		<g>
			<g>
				<g>
					<path class="st14" d="M332.16,232.91c0,0.01-0.15,0.02-0.44,0.03c-0.31,0.01-0.74,0.02-1.28,0.03
						c-1.16,0.01-2.81,0.03-4.93,0.05c-4.3,0.02-10.47,0.05-18.05,0.09l0.13-0.05c-6.65,6.03-14.77,13.4-23.79,21.58l-0.07,0.06
						l-0.1,0c-6.25,0-12.96,0.01-19.89,0.01c-11.5-0.01-22.4-0.02-32.09-0.02l0.15-0.06c-10.11,8.45-18.66,15.6-24.71,20.65
						c-3.01,2.49-5.39,4.47-7.05,5.84c-0.81,0.66-1.43,1.17-1.88,1.53c-0.2,0.16-0.36,0.29-0.49,0.39
						c-0.11,0.09-0.17,0.13-0.17,0.12c0-0.01,0.05-0.06,0.15-0.15c0.12-0.11,0.27-0.24,0.47-0.42c0.44-0.38,1.05-0.91,1.83-1.59
						c1.64-1.4,3.99-3.41,6.96-5.94c6.02-5.09,14.53-12.29,24.59-20.8l0.07-0.06l0.09,0c9.69-0.01,20.59-0.02,32.09-0.02
						c6.92,0,13.63,0.01,19.89,0.01l-0.17,0.06c9.05-8.15,17.2-15.49,23.87-21.49l0.06-0.05l0.07,0c7.58,0.04,13.75,0.06,18.05,0.09
						c2.11,0.02,3.77,0.04,4.93,0.05c0.54,0.01,0.97,0.02,1.28,0.03C332.01,232.89,332.16,232.9,332.16,232.91z"/>
				</g>
			</g>
		</g>
		<g>
			<g>
				<g>
					<path class="st14" d="M608.27,249.74c0,0.01-0.09,0.01-0.27,0.02c-0.2,0.01-0.47,0.01-0.81,0.02c-0.74,0.01-1.8,0.02-3.17,0.04
						c-2.8,0.02-6.85,0.04-11.98,0.07l-0.06,0l-0.05-0.05c-8.73-8.69-22.13-22.04-37.61-37.46l0.18,0.07c-4.9,0-10.01,0-15.22,0
						c-4.66,0-9.23,0-13.67,0l-0.11,0l-0.08-0.08c-3.68-3.69-7.24-7.25-10.65-10.66l0.17,0.07c-8.53-0.01-16.39-0.03-23.32-0.04
						l0.17-0.09c-2.44,3.54-4.66,6.77-6.65,9.66l-0.05,0.07l-0.09,0c-6.5-0.03-11.68-0.06-15.27-0.08
						c-1.76-0.02-3.13-0.03-4.08-0.04c-0.45-0.01-0.79-0.02-1.05-0.02c-0.24-0.01-0.36-0.02-0.36-0.02c0-0.01,0.12-0.02,0.36-0.02
						c0.26-0.01,0.61-0.01,1.05-0.02c0.95-0.01,2.32-0.03,4.08-0.04c3.59-0.02,8.77-0.04,15.27-0.08l-0.14,0.07
						c1.97-2.9,4.17-6.14,6.59-9.7l0.06-0.09l0.11,0c6.93-0.01,14.79-0.03,23.32-0.04l0.1,0l0.07,0.07
						c3.41,3.41,6.98,6.97,10.66,10.65l-0.18-0.08c4.44,0,9.01,0,13.67,0c5.21,0,10.32,0,15.22,0h0.11l0.07,0.08
						c15.42,15.48,28.77,28.88,37.46,37.61l-0.11-0.04c5.13,0.03,9.19,0.05,11.98,0.07c1.37,0.02,2.42,0.03,3.17,0.04
						c0.34,0.01,0.61,0.02,0.81,0.02C608.18,249.72,608.27,249.73,608.27,249.74z"/>
				</g>
			</g>
		</g>
		<g>
			<g>
				<g>
					<path class="st14" d="M608.27,254.59c0,0.01-0.11,0.02-0.34,0.02c-0.25,0.01-0.57,0.01-0.99,0.02
						c-0.9,0.01-2.18,0.03-3.83,0.04c-3.37,0.02-8.23,0.04-14.3,0.08l-0.07,0l-0.05-0.05c-9.2-9.17-22.47-22.39-37.45-37.32
						l0.18,0.08c-2.36,0-4.87,0-7.41,0c-22.02-0.03-41.94-0.06-56.4-0.08c-7.2-0.03-13.03-0.06-17.09-0.08
						c-2-0.02-3.56-0.04-4.65-0.05c-0.51-0.01-0.91-0.02-1.21-0.03c-0.27-0.01-0.41-0.02-0.41-0.03s0.14-0.02,0.41-0.03
						c0.3-0.01,0.7-0.01,1.21-0.03c1.09-0.01,2.65-0.03,4.65-0.05c4.06-0.02,9.89-0.05,17.09-0.08c14.45-0.02,34.38-0.05,56.4-0.08
						c2.54,0,5.05,0,7.41,0l0.11,0l0.08,0.08c14.93,14.98,28.15,28.25,37.32,37.45l-0.12-0.05c6.07,0.03,10.93,0.06,14.3,0.08
						c1.65,0.02,2.93,0.03,3.83,0.04c0.42,0.01,0.74,0.02,0.99,0.02C608.16,254.58,608.27,254.58,608.27,254.59z"/>
				</g>
			</g>
		</g>
		<g>
			<g>
				<g>
					<path class="st14" d="M608.27,228.71c0,0-0.19,0.02-0.56,0.03c-0.4,0.01-0.95,0.02-1.65,0.03c-1.48,0.01-3.59,0.03-6.28,0.06
						c-5.46,0.02-13.24,0.05-22.65,0.09l-0.09,0l-0.06-0.07c-5.77-5.91-12.56-12.86-19.88-20.37l0.18,0.08c-3.51,0-7.2,0-10.94,0
						c-7.07,0-13.9-0.01-20.29-0.01h-0.1l-0.07-0.07c-3.44-3.3-6.7-6.42-9.75-9.34l0.16,0.06c-10.97-0.04-20.16-0.07-26.63-0.09
						c-3.2-0.03-5.72-0.05-7.48-0.06c-0.84-0.01-1.5-0.03-1.97-0.03c-0.21-0.01-0.37-0.01-0.51-0.02c-0.11-0.01-0.17-0.01-0.17-0.02
						c0-0.01,0.06-0.01,0.17-0.02c0.14,0,0.3-0.01,0.51-0.02c0.48-0.01,1.13-0.02,1.97-0.03c1.76-0.01,4.29-0.04,7.48-0.06
						c6.47-0.02,15.66-0.06,26.63-0.09l0.09,0l0.07,0.06c3.05,2.91,6.33,6.03,9.78,9.31l-0.17-0.07c6.39,0,13.22-0.01,20.29-0.01
						c3.75,0,7.43,0,10.94,0h0.11l0.08,0.08c7.3,7.52,14.06,14.49,19.82,20.42l-0.15-0.07c9.41,0.04,17.19,0.07,22.65,0.09
						c2.69,0.03,4.81,0.05,6.28,0.06c0.7,0.01,1.25,0.02,1.65,0.03C608.08,228.69,608.27,228.71,608.27,228.71z"/>
				</g>
			</g>
		</g>
		<g>
			<g>
				<g>
					<path class="st14" d="M608.27,261c0,0.01-0.13,0.02-0.39,0.03c-0.28,0.01-0.66,0.01-1.15,0.02c-1.04,0.01-2.53,0.03-4.44,0.05
						c-3.89,0.02-9.49,0.05-16.46,0.08l-0.07,0l-0.05-0.05c-8.83-8.29-20.84-19.56-34.35-32.23l0.18,0.07c-4.11,0-8.42,0-12.8,0
						c-2.09,0-4.16,0-6.21,0l0.19-0.08c-9.42,10.19-18.19,19.66-25.68,27.75l-0.07,0.07l-0.1,0c-11.52-0.04-21.1-0.07-27.82-0.09
						c-3.33-0.03-5.95-0.05-7.77-0.06c-0.87-0.01-1.55-0.02-2.04-0.03c-0.46-0.01-0.7-0.03-0.7-0.03s0.24-0.02,0.7-0.03
						c0.49-0.01,1.17-0.02,2.04-0.03c1.82-0.01,4.44-0.03,7.77-0.06c6.72-0.02,16.3-0.05,27.82-0.09l-0.16,0.07
						c7.47-8.11,16.22-17.6,25.62-27.81l0.08-0.08h0.11c2.05,0,4.12,0,6.21,0c4.39,0,8.69,0,12.8,0l0.1,0l0.07,0.07
						c13.46,12.72,25.43,24.03,34.24,32.35l-0.12-0.05c6.97,0.03,12.57,0.06,16.46,0.08c1.91,0.02,3.4,0.04,4.44,0.05
						c0.49,0.01,0.87,0.02,1.15,0.02C608.14,260.98,608.27,260.99,608.27,261z"/>
				</g>
			</g>
		</g>
		<g>
			<g>
				<g>
					<path class="st14" d="M553.29,225.64c0,0.01-0.17,0.03-0.5,0.04c-0.37,0.01-0.86,0.02-1.46,0.04
						c-1.33,0.02-3.19,0.04-5.52,0.07c-4.78,0.02-11.49,0.06-19.38,0.09l0.17-0.07c-3.87,4.11-8.19,8.69-12.74,13.52
						c-3.23,3.42-6.35,6.71-9.22,9.75l-0.07,0.08l-0.11,0c-9.27-0.04-17.26-0.07-22.99-0.09c-2.81-0.03-5.06-0.05-6.65-0.07
						c-0.74-0.02-1.33-0.03-1.78-0.04c-0.4-0.01-0.61-0.03-0.61-0.04s0.21-0.03,0.61-0.04c0.44-0.01,1.03-0.02,1.78-0.04
						c1.6-0.02,3.85-0.04,6.65-0.07c5.73-0.02,13.72-0.06,22.99-0.09l-0.18,0.08c2.87-3.04,5.98-6.34,9.21-9.76
						c4.56-4.82,8.89-9.39,12.77-13.49l0.07-0.07l0.1,0c7.9,0.04,14.6,0.07,19.38,0.09c2.33,0.03,4.19,0.05,5.52,0.07
						c0.61,0.02,1.09,0.03,1.46,0.04C553.12,225.61,553.29,225.63,553.29,225.64z"/>
				</g>
			</g>
		</g>
		<g>
			<g>
				<path class="st14" d="M304.14,215.37c0,0.49-0.4,0.89-0.89,0.89c-0.49,0-0.89-0.4-0.89-0.89c0-0.49,0.4-0.89,0.89-0.89
					C303.74,214.48,304.14,214.88,304.14,215.37z"/>
			</g>
		</g>
		<g>
			<g>
				<path class="st14" d="M354.22,237.65c0,0.49-0.4,0.89-0.89,0.89c-0.49,0-0.89-0.4-0.89-0.89c0-0.49,0.4-0.89,0.89-0.89
					C353.82,236.76,354.22,237.16,354.22,237.65z"/>
			</g>
		</g>
		<g>
			<g>
				<path class="st14" d="M237.94,247.42c0,0.49-0.4,0.89-0.89,0.89s-0.89-0.4-0.89-0.89c0-0.49,0.4-0.89,0.89-0.89
					S237.94,246.93,237.94,247.42z"/>
			</g>
		</g>
		<g>
			<g>
				<circle class="st14" cx="464.74" cy="211.23" r="0.89"/>
			</g>
		</g>
		<g>
			<g>
				<path class="st14" d="M480.41,198.99c0,0.49-0.4,0.89-0.89,0.89c-0.49,0-0.89-0.4-0.89-0.89s0.4-0.89,0.89-0.89
					C480.01,198.1,480.41,198.5,480.41,198.99z"/>
			</g>
		</g>
		<g>
			<g>
				<path class="st14" d="M553.65,225.64c0,0.49-0.4,0.89-0.89,0.89c-0.49,0-0.89-0.4-0.89-0.89s0.4-0.89,0.89-0.89
					C553.25,224.75,553.65,225.15,553.65,225.64z"/>
			</g>
		</g>
		<g>
			<g>
				<circle class="st14" cx="474.09" cy="248.64" r="0.89"/>
			</g>
		</g>
		<g>
			<g>
				<g>
					<path class="st7" d="M456.08,410.01c0,0.14-22.22,0.26-49.62,0.26c-27.41,0-49.62-0.12-49.62-0.26s22.21-0.26,49.62-0.26
						C433.86,409.75,456.08,409.87,456.08,410.01z"/>
				</g>
			</g>
		</g>
	</g>
</g>
<g id="Character">
</g>
<g id="Plant">
</g>
</svg>
