<?xml version="1.0" encoding="utf-8"?>
<!-- Generator: Adobe Illustrator 26.3.1, SVG Export Plug-In . SVG Version: 6.00 Build 0)  -->
<svg version="1.1" id="Layer_1" xmlns="http://www.w3.org/2000/svg" xmlns:xlink="http://www.w3.org/1999/xlink" x="0px" y="0px"
	 viewBox="0 0 539 567" style="enable-background:new 0 0 539 567;" xml:space="preserve">
<style type="text/css">
	.st0{fill-rule:evenodd;clip-rule:evenodd;fill:url(#SVGID_1_);}
	.st1{fill-rule:evenodd;clip-rule:evenodd;fill:url(#SVGID_00000141430938705286925510000009045942563515614366_);}
	.st2{fill-rule:evenodd;clip-rule:evenodd;fill:url(#SVGID_00000014635742030942440420000007854204985315966391_);}
	.st3{fill-rule:evenodd;clip-rule:evenodd;fill:url(#SVGID_00000052090551782896848460000009771932132326666898_);}
	.st4{fill-rule:evenodd;clip-rule:evenodd;fill:#F4F3B9;}
	.st5{fill-rule:evenodd;clip-rule:evenodd;fill:url(#SVGID_00000030446587404483392840000001397440350721662646_);}
	.st6{fill-rule:evenodd;clip-rule:evenodd;fill:url(#SVGID_00000140694996321601901310000016002512003552472986_);}
	.st7{fill-rule:evenodd;clip-rule:evenodd;fill:url(#SVGID_00000070829250395281876790000011545996297559904911_);}
	.st8{fill-rule:evenodd;clip-rule:evenodd;fill:url(#SVGID_00000035519530853569043560000013221280474993484215_);}
	.st9{fill-rule:evenodd;clip-rule:evenodd;fill:url(#SVGID_00000057119022010223186880000013665669355893008782_);}
	.st10{fill-rule:evenodd;clip-rule:evenodd;fill:#EFC671;}
	.st11{fill:url(#SVGID_00000085223016965044462630000013958448907405519272_);}
	.st12{fill:url(#SVGID_00000172433302406772080670000013678559921202035634_);}
	.st13{fill:url(#SVGID_00000084508210692473343300000005490868750774158473_);}
	.st14{fill:url(#SVGID_00000026850418189761271660000014746064489455855006_);}
	.st15{fill:url(#SVGID_00000183966177906037416250000015518274306750551428_);}
	.st16{fill:url(#SVGID_00000178887252184815032160000000948066213080672949_);}
	.st17{fill:url(#SVGID_00000029760526699146593970000007736217227217422477_);}
	.st18{fill:url(#SVGID_00000093178078134696420570000002152464012346587561_);}
	.st19{fill:url(#SVGID_00000078753219789655681060000007214373374489903799_);}
	.st20{fill:url(#SVGID_00000171719578684464380170000001010141367916120464_);}
	.st21{fill:url(#SVGID_00000114066207995410816710000016161040951612291483_);}
	.st22{fill:url(#SVGID_00000055690914945508518430000010585401271988840107_);}
	.st23{fill:url(#SVGID_00000011739798278795204790000007317777583383426688_);}
	.st24{fill:url(#SVGID_00000091724303114175762520000009343574001324465063_);}
	.st25{fill:url(#SVGID_00000079450808720672245960000007831739076510600832_);}
	.st26{fill:url(#SVGID_00000041980032380866890610000017919861021903899557_);}
	.st27{fill:url(#SVGID_00000098942032033917183510000009477403867478402485_);}
	.st28{fill:url(#SVGID_00000072274757060544827390000012024692475109231030_);}
	.st29{fill:url(#SVGID_00000049943884056150454870000001006142962615100293_);}
	.st30{fill:url(#SVGID_00000114787918144779791320000010233803163061544579_);}
	.st31{fill:url(#SVGID_00000008133113138168623500000017685887761025888900_);}
	.st32{fill:url(#SVGID_00000033334889331805626830000014792593320206028450_);}
	.st33{fill:url(#SVGID_00000011731554595091405380000005223951145926624692_);}
	.st34{fill:url(#SVGID_00000080173088809026411520000008069486809925504441_);}
	.st35{fill:url(#SVGID_00000164513808019235994820000008320818276853312911_);}
</style>
<g id="Layer_1_00000127738083828796131330000012587129893987934373_">
	
		<linearGradient id="SVGID_1_" gradientUnits="userSpaceOnUse" x1="214.057" y1="55.9181" x2="213.267" y2="78.6282" gradientTransform="matrix(1 0 0 -1 0 568)">
		<stop  offset="0" style="stop-color:#B4882D"/>
		<stop  offset="0.16" style="stop-color:#B3812C"/>
		<stop  offset="0.3" style="stop-color:#855522"/>
		<stop  offset="0.49" style="stop-color:#70451B"/>
		<stop  offset="0.54" style="stop-color:#C8C996"/>
		<stop  offset="0.56" style="stop-color:#CCC47C"/>
		<stop  offset="0.69" style="stop-color:#AF954C"/>
		<stop  offset="0.75" style="stop-color:#875723"/>
		<stop  offset="0.85" style="stop-color:#AB8C42"/>
		<stop  offset="1" style="stop-color:#BAA562"/>
	</linearGradient>
	<path class="st0" d="M196,508.5c0,0.2,0,0.3,0,0.5c0.2,1.1,1.4,1.9,3.2,2.5c2.1,0.6,4.3,1,6.5,1.2c8.6,0.7,17.2,0.5,25.6-0.8
		c0.4-0.1,0.6-0.4,0.5-0.8c0-0.1-0.1-0.2-0.1-0.2l-14-22.3c-0.1-0.2-0.4-0.3-0.6-0.3c-3.3,0.2-6.9,0.6-10.6,0.9s-7.3,0.7-10.4,0.9
		c-0.4,0-0.6,0.3-0.6,0.7l0,0L196,508.5z M197.3,508.7L197.3,508.7v-0.2l-0.3-17.1c3.1-0.2,6.4-0.5,9.8-0.9
		c3.5-0.3,7.1-0.7,10.2-0.9l13.3,21.1c-8.1,1.1-16.2,1.3-24.3,0.6c-2.1-0.2-4.2-0.5-6.2-1.1C198.3,509.8,197.5,509.3,197.3,508.7
		L197.3,508.7z"/>
	
		<linearGradient id="SVGID_00000094586208320961068670000010712694299371223190_" gradientUnits="userSpaceOnUse" x1="227.12" y1="67.522" x2="196.66" y2="66.992" gradientTransform="matrix(1 0 0 -1 0 568)">
		<stop  offset="0" style="stop-color:#73481C"/>
		<stop  offset="4.000000e-02" style="stop-color:#562F0F"/>
		<stop  offset="0.15" style="stop-color:#8D6D39"/>
		<stop  offset="0.23" style="stop-color:#7F5221"/>
		<stop  offset="0.51" style="stop-color:#845A26"/>
		<stop  offset="0.68" style="stop-color:#7B5020"/>
		<stop  offset="0.76" style="stop-color:#8B7045"/>
		<stop  offset="0.9" style="stop-color:#562F0F"/>
		<stop  offset="1" style="stop-color:#75491D"/>
	</linearGradient>
	<path style="fill-rule:evenodd;clip-rule:evenodd;fill:url(#SVGID_00000094586208320961068670000010712694299371223190_);" d="
		M196.7,508.5c-0.5,4.6,24.3,4.6,34.7,2.7l-14-22.3c-6.5,0.4-14.6,1.4-21,1.8L196.7,508.5z"/>
	
		<linearGradient id="SVGID_00000046330349028358246010000012017861127539857066_" gradientUnits="userSpaceOnUse" x1="350.9545" y1="97.3522" x2="351.7245" y2="75.2023" gradientTransform="matrix(1 0 0 -1 0 568)">
		<stop  offset="0" style="stop-color:#B4882D"/>
		<stop  offset="0.16" style="stop-color:#B3812C"/>
		<stop  offset="0.3" style="stop-color:#855522"/>
		<stop  offset="0.49" style="stop-color:#70451B"/>
		<stop  offset="0.54" style="stop-color:#C8C996"/>
		<stop  offset="0.56" style="stop-color:#CCC47C"/>
		<stop  offset="0.69" style="stop-color:#AF954C"/>
		<stop  offset="0.75" style="stop-color:#875723"/>
		<stop  offset="0.85" style="stop-color:#AB8C42"/>
		<stop  offset="1" style="stop-color:#BAA562"/>
	</linearGradient>
	<path style="fill-rule:evenodd;clip-rule:evenodd;fill:url(#SVGID_00000046330349028358246010000012017861127539857066_);" d="
		M369,474c0-0.2,0-0.3,0-0.5c-0.2-1.1-1.4-1.9-3.2-2.5c-2.1-0.6-4.3-1-6.5-1.2c-8.6-0.7-17.2-0.5-25.6,0.8c-0.4,0.1-0.6,0.4-0.5,0.8
		c0,0.1,0.1,0.2,0.1,0.2l14,22.3c0.1,0.2,0.4,0.3,0.6,0.3c3.3-0.2,6.9-0.6,10.6-0.9s7.3-0.7,10.4-0.9c0.4,0,0.6-0.3,0.6-0.7l0,0
		L369,474z M367.7,473.8L367.7,473.8c0,0,0,0.1,0,0.1v0.1l0.4,17.1c-3.1,0.2-6.4,0.5-9.8,0.9c-3.5,0.4-7.1,0.7-10.2,0.9l-13.3-21.1
		c8-1.1,16.2-1.3,24.2-0.7c2.1,0.2,4.2,0.5,6.3,1.1C366.7,472.7,367.5,473.2,367.7,473.8L367.7,473.8z"/>
	
		<linearGradient id="SVGID_00000075162761364735689690000009292484441345545870_" gradientUnits="userSpaceOnUse" x1="338.2701" y1="86.0369" x2="367.9301" y2="86.5469" gradientTransform="matrix(1 0 0 -1 0 568)">
		<stop  offset="0" style="stop-color:#73481C"/>
		<stop  offset="4.000000e-02" style="stop-color:#562F0F"/>
		<stop  offset="0.15" style="stop-color:#8D6D39"/>
		<stop  offset="0.23" style="stop-color:#7F5221"/>
		<stop  offset="0.51" style="stop-color:#845A26"/>
		<stop  offset="0.68" style="stop-color:#7B5020"/>
		<stop  offset="0.76" style="stop-color:#8B7045"/>
		<stop  offset="0.9" style="stop-color:#562F0F"/>
		<stop  offset="1" style="stop-color:#75491D"/>
	</linearGradient>
	<path style="fill-rule:evenodd;clip-rule:evenodd;fill:url(#SVGID_00000075162761364735689690000009292484441345545870_);" d="
		M368.3,473.9c0.5-4.6-24.3-4.6-34.7-2.7l14,22.3c6.5-0.4,14.6-1.4,21-1.8C368.5,485.8,368.4,479.9,368.3,473.9z"/>
	<path class="st4" d="M280.5,38.3h2.7c0.4,0,0.6-0.4,0.6-0.8c0-0.3-0.3-0.6-0.6-0.6h-4.9c-0.4,0-0.6,0.4-0.6,0.8
		c0,0.3,0.3,0.6,0.6,0.6H280.5L280.5,38.3z M280.5,31.2c-0.4,0-0.7,0.2-0.8,0.6c0,0.4,0.2,0.7,0.6,0.8c0.1,0,0.1,0,0.2,0h2.7
		c0.4,0,0.6-0.4,0.6-0.8c0-0.3-0.3-0.6-0.6-0.6L280.5,31.2L280.5,31.2z M278.5,32.5c0.4,0,0.6-0.4,0.6-0.8c0-0.3-0.3-0.6-0.6-0.6
		h-0.8h-1.4h-0.6c-0.4,0-0.7,0.3-0.7,0.7c0,0.4,0.3,0.7,0.7,0.7h0.6h1.3L278.5,32.5z M271.7,32.7c0.4-0.1,0.6-0.4,0.6-0.8
		c0-0.3-0.3-0.6-0.6-0.6h-0.7l-1.3,0.1h-0.6c-0.4,0.1-0.6,0.4-0.6,0.8c0.1,0.3,0.3,0.6,0.6,0.6h0.6l1.3-0.1L271.7,32.7L271.7,32.7z
		 M265,33.1c0.4-0.1,0.6-0.4,0.6-0.8c-0.1-0.3-0.3-0.6-0.7-0.6h-0.6l-1.2,0.2l-0.7,0.1c-0.4,0-0.7,0.3-0.7,0.7
		c0,0.4,0.3,0.7,0.7,0.7c0,0,0.1,0,0.1,0l0.7-0.1l1.3-0.1L265,33.1L265,33.1z M258.3,33.7c0.4,0,0.6-0.4,0.6-0.7
		c0-0.4-0.4-0.6-0.7-0.6l0,0h-0.5l-1.3,0.2l-0.8,0.1c-0.4,0-0.6,0.4-0.6,0.8c0,0.4,0.4,0.6,0.8,0.6l0.8-0.1l1.3-0.2L258.3,33.7
		L258.3,33.7z M251.6,34.5c0.4-0.1,0.6-0.5,0.5-0.8c-0.1-0.3-0.4-0.5-0.7-0.5H251l-1.3,0.2l-1,0.2c-0.4,0.1-0.6,0.4-0.6,0.8
		s0.4,0.6,0.8,0.6l1-0.1l1.3-0.2L251.6,34.5L251.6,34.5z M244.9,35.5c0.4-0.1,0.6-0.4,0.5-0.8c-0.1-0.4-0.4-0.6-0.8-0.5h-0.2
		l-1.3,0.2l-1.2,0.2c-0.4,0.1-0.6,0.5-0.5,0.8c0.1,0.3,0.4,0.5,0.7,0.5l1.2-0.2l1.3-0.2L244.9,35.5L244.9,35.5z M238.3,36.8
		c0.4-0.1,0.6-0.4,0.5-0.8s-0.4-0.6-0.8-0.5l0,0l-1.2,0.3l-1.3,0.3h-0.1c-0.4,0.1-0.5,0.5-0.4,0.9c0.1,0.3,0.4,0.5,0.7,0.5h0.1
		l1.3-0.3L238.3,36.8z M231.7,38.2c0.4-0.1,0.6-0.5,0.5-0.8c-0.1-0.4-0.5-0.6-0.8-0.5l-1,0.2l-1.3,0.3l-0.4,0.1
		c-0.4,0.1-0.5,0.5-0.4,0.9c0.1,0.3,0.4,0.5,0.7,0.4l0.4-0.1l1.2-0.3L231.7,38.2L231.7,38.2z M225.2,39.9c0.4-0.1,0.6-0.5,0.5-0.8
		c-0.1-0.4-0.5-0.6-0.8-0.5l-0.7,0.2l-1.2,0.3l-0.6,0.2c-0.3,0.1-0.5,0.5-0.4,0.9c0.1,0.3,0.4,0.5,0.7,0.4l0.6-0.2l1.2-0.3
		C224.5,40.1,225.2,39.9,225.2,39.9z M218.7,41.8c0.3-0.2,0.5-0.6,0.3-0.9c-0.1-0.3-0.4-0.4-0.7-0.4l-0.4,0.1l-1.2,0.4l-0.9,0.3
		c-0.3,0.1-0.5,0.5-0.4,0.9c0.1,0.3,0.5,0.5,0.8,0.4l0.9-0.3l1.2-0.4L218.7,41.8z M212.3,43.9c0.3-0.2,0.5-0.6,0.3-0.9
		c-0.1-0.3-0.5-0.5-0.8-0.4h-0.1l-1.2,0.4l-1.2,0.4l0,0c-0.3,0.2-0.5,0.6-0.3,0.9c0.1,0.3,0.5,0.4,0.8,0.4l0,0l1.2-0.4L212.3,43.9
		L212.3,43.9L212.3,43.9z M206,46.2c0.3-0.2,0.5-0.6,0.3-0.9c-0.1-0.3-0.5-0.4-0.8-0.3l-0.9,0.4l-1.2,0.5l-0.4,0.2
		c-0.3,0.2-0.4,0.6-0.3,0.9c0.2,0.3,0.5,0.4,0.8,0.3l0.4-0.1l1.2-0.5L206,46.2L206,46.2z M199.7,48.7c0.3-0.1,0.5-0.5,0.4-0.9
		c-0.1-0.3-0.5-0.5-0.9-0.4l-0.6,0.2l-1.2,0.5l-0.7,0.3c-0.3,0.2-0.4,0.6-0.3,0.9c0.2,0.3,0.5,0.4,0.8,0.3l0.7-0.3l1.2-0.5
		L199.7,48.7L199.7,48.7z M193.6,51.4c0.3-0.2,0.4-0.6,0.3-0.9c-0.2-0.3-0.5-0.4-0.8-0.3l-0.2,0.1l-1.2,0.5l-1.1,0.5
		c-0.3,0.2-0.4,0.6-0.2,0.9c0.2,0.3,0.5,0.4,0.8,0.3l1.1-0.5l1.1-0.5L193.6,51.4L193.6,51.4z M187.5,54.3c0.3-0.2,0.5-0.6,0.3-0.9
		c-0.2-0.3-0.6-0.5-0.9-0.3l-1,0.5l-1.1,0.6l-0.3,0.2c-0.3,0.2-0.4,0.6-0.2,0.9c0.2,0.3,0.5,0.4,0.8,0.3l0.3-0.1l1.1-0.6L187.5,54.3
		L187.5,54.3z M181.5,57.4c0.3-0.2,0.4-0.6,0.3-0.9s-0.6-0.4-0.9-0.3l0,0l-0.6,0.3l-1.1,0.6l-0.6,0.4c-0.3,0.2-0.4,0.6-0.2,0.9
		c0.2,0.3,0.5,0.4,0.8,0.2l0.6-0.4l1.1-0.6L181.5,57.4L181.5,57.4z M175.6,60.7c0.3-0.2,0.4-0.6,0.2-0.9c-0.2-0.3-0.5-0.4-0.8-0.2
		l-0.2,0.1l-1.1,0.6l-1,0.6c-0.3,0.2-0.4,0.6-0.2,0.9c0.2,0.3,0.6,0.4,0.9,0.2l1-0.6l1.1-0.6C175.4,60.8,175.6,60.7,175.6,60.7z
		 M169.8,64.1c0.7-0.5,0-1.6-0.7-1.2l-0.9,0.6l-1.1,0.7l-0.3,0.2c-0.3,0.2-0.4,0.6-0.2,0.9c0.1,0.2,0.4,0.3,0.7,0.3
		c0.1,0,0.2-0.1,0.2-0.1l0.3-0.2l1.1-0.7L169.8,64.1z M164.2,67.8c0.7-0.4,0-1.6-0.8-1.1l-0.5,0.3l-1.1,0.7l-0.7,0.5
		c-0.3,0.2-0.4,0.7-0.1,1c0.2,0.2,0.5,0.3,0.8,0.2h0.1l0.7-0.5l1-0.7L164.2,67.8L164.2,67.8z M158.6,71.7c0.2-0.1,0.3-0.4,0.3-0.6
		c0-0.4-0.4-0.6-0.8-0.6c-0.1,0-0.2,0.1-0.3,0.1l-0.1,0.1l-1,0.7l-1,0.8l0,0c-0.3,0.2-0.4,0.6-0.2,0.9c0.2,0.3,0.6,0.4,0.9,0.3
		c0,0,0.1,0,0.1-0.1l0,0l1-0.8l1-0.7L158.6,71.7L158.6,71.7z M153.2,75.7c0.3-0.2,0.4-0.6,0.2-0.9c-0.2-0.3-0.6-0.4-0.9-0.2
		c0,0-0.1,0-0.1,0.1l-0.8,0.6l-1,0.8l-0.4,0.3c-0.3,0.3-0.3,0.7,0,1c0.2,0.2,0.6,0.3,0.8,0.1l0.4-0.3l1-0.8L153.2,75.7L153.2,75.7z
		 M148,79.9c0.2-0.3,0.2-0.7-0.1-0.9c-0.2-0.2-0.5-0.2-0.8-0.1l-0.4,0.3l-1,0.8l-0.7,0.6c-0.2,0.3-0.2,0.7,0.1,0.9
		c0.2,0.2,0.5,0.2,0.8,0.1l0.7-0.6l1-0.8L148,79.9L148,79.9z M142.9,84.3c0.3-0.3,0.3-0.7,0-0.9c-0.2-0.2-0.6-0.3-0.9-0.1l0,0
		l-1,0.8l-0.9,0.8l-0.1,0.1c-0.2,0.3-0.2,0.7,0.1,1c0.2,0.2,0.6,0.2,0.9,0l0.1-0.1l0.9-0.8L142.9,84.3L142.9,84.3z M137.9,88.8
		c0.3-0.3,0.3-0.7,0-1s-0.7-0.3-1,0l-0.6,0.5l-0.9,0.9l-0.5,0.5c-0.3,0.3-0.3,0.7,0,1s0.7,0.3,1,0l0.5-0.4l0.9-0.9L137.9,88.8
		L137.9,88.8z M133,93.5c0.3-0.3,0.3-0.7,0-1s-0.7-0.3-1,0l-0.2,0.2l-0.9,0.9l-0.8,0.8c-0.3,0.3-0.3,0.7,0,1s0.7,0.3,1,0l0,0
		l0.8-0.8l0.9-0.9L133,93.5L133,93.5z M128.3,98.3c0.3-0.3,0.3-0.7,0-1c-0.3-0.3-0.7-0.3-1,0c0,0,0,0,0,0l-0.7,0.8l-0.9,0.9
		l-0.2,0.3c-0.3,0.3-0.3,0.7,0,0.9c0.2,0.2,0.6,0.3,0.9,0.1l0.1-0.1l0.2-0.3l0.8-0.9L128.3,98.3L128.3,98.3z M123.8,103.3
		c0.6-0.6-0.3-1.6-1-0.9l-0.4,0.5l-0.8,1l-0.5,0.6c-0.2,0.3-0.2,0.6,0,0.9c0.3,0.3,0.7,0.3,1,0c0,0,0,0,0,0l0.6-0.6l0.8-0.9
		L123.8,103.3L123.8,103.3z M119.4,108.4c0.6-0.6-0.4-1.5-1-0.9l-0.1,0.1l-0.1,0.1l-0.8,1l-0.8,1l0,0c-0.5,0.5,0.2,1.5,0.9,1
		l0.1-0.1l0,0l0.8-1l0.8-1L119.4,108.4L119.4,108.4z M115.2,113.7c0.2-0.3,0.2-0.7-0.1-0.9s-0.7-0.2-0.9,0.1l-0.6,0.7l-0.8,1
		l-0.3,0.4c-0.2,0.3-0.1,0.7,0.3,0.9c0.3,0.2,0.6,0.1,0.8-0.1l0.3-0.4l0.8-1L115.2,113.7L115.2,113.7z M111.2,119.1
		c0.2-0.3,0.1-0.7-0.2-0.9c-0.3-0.2-0.6-0.1-0.9,0.1l-0.3,0.4l-0.7,1l-0.6,0.8c-0.2,0.3-0.1,0.7,0.3,0.9c0.3,0.1,0.6,0.1,0.8-0.2
		l0.6-0.8l0.7-1L111.2,119.1L111.2,119.1z M107.3,124.6c0.2-0.3,0.1-0.7-0.2-0.9c-0.3-0.2-0.7-0.1-0.9,0.2l-0.7,1l-0.7,1l-0.1,0.2
		c-0.2,0.3,0,0.7,0.3,0.9c0.3,0.1,0.6,0.1,0.8-0.2l0.1-0.2l0.7-1L107.3,124.6L107.3,124.6z M103.7,130.3c0.2-0.3,0.1-0.7-0.3-0.9
		c-0.3-0.2-0.7-0.1-0.9,0.2l-0.4,0.7l-0.7,1.1l-0.3,0.5c-0.2,0.3-0.1,0.7,0.2,0.9c0.3,0.2,0.7,0.1,0.9-0.2l0.3-0.5l0.7-1.1
		L103.7,130.3z M100.2,136c0.2-0.3,0-0.7-0.3-0.9c-0.3-0.1-0.6,0-0.8,0.2l-0.2,0.3l-0.6,1.1l-0.5,0.9c-0.2,0.3-0.1,0.7,0.2,0.9
		s0.7,0.1,0.9-0.2l0.5-0.9l0.6-1.1L100.2,136L100.2,136z M96.8,141.9c0.1-0.3,0-0.7-0.4-0.9c-0.3-0.1-0.6,0-0.8,0.2l0,0l-0.6,1.1
		l-0.6,1.1l-0.1,0.2c-0.2,0.3,0,0.7,0.3,0.9c0.2,0.1,0.4,0.1,0.5,0c0.1-0.1,0.3-0.2,0.3-0.3l0.1-0.2l0.6-1.1L96.8,141.9L96.8,141.9z
		 M93.7,147.9c0.2-0.3,0-0.7-0.2-0.9c-0.3-0.2-0.7-0.1-0.9,0.2c0,0,0,0.1-0.1,0.1l-0.3,0.7l-0.6,1.1l-0.3,0.6
		c-0.1,0.4,0,0.7,0.4,0.9c0.3,0.1,0.7,0,0.8-0.3l0.3-0.6l0.6-1.1L93.7,147.9L93.7,147.9z M90.8,153.9c0.1-0.4-0.1-0.7-0.4-0.9
		c-0.3-0.1-0.6,0-0.8,0.3l-0.2,0.3l-0.5,1.2l-0.4,1c-0.2,0.3,0,0.7,0.3,0.9c0.3,0.2,0.7,0,0.9-0.3l0.4-1l0.5-1.2L90.8,153.9
		L90.8,153.9z M88.1,160.1c0.1-0.4-0.1-0.7-0.4-0.9c-0.3-0.1-0.6,0-0.8,0.3l-0.5,1.2l-0.5,1.2l-0.1,0.2c-0.1,0.4,0.1,0.7,0.5,0.8
		c0.3,0.1,0.7-0.1,0.8-0.3l0.1-0.1l0.5-1.2L88.1,160.1L88.1,160.1z M85.6,166.4c0.1-0.4-0.1-0.7-0.4-0.9c-0.3-0.1-0.7,0.1-0.8,0.4
		l-0.3,0.8l-0.4,1.2l-0.2,0.5c-0.1,0.4,0.1,0.7,0.5,0.8c0.3,0.1,0.6-0.1,0.8-0.4l0.2-0.5l0.4-1.2L85.6,166.4z M83.2,172.7
		c0.1-0.4-0.1-0.7-0.5-0.8c-0.3-0.1-0.6,0.1-0.8,0.4l-0.2,0.5l-0.4,1.2l-0.3,0.9c-0.3,0.8,0.9,1.3,1.3,0.4l0.3-0.8l0.4-1.2
		C83.1,173.2,83.2,172.7,83.2,172.7z M81.1,179.1c0.1-0.4-0.1-0.7-0.5-0.8c-0.1,0-0.2,0-0.3,0c-0.3,0-0.5,0.2-0.6,0.5l-0.1,0.2
		l-0.4,1.2l-0.4,1.1c-0.1,0.4,0.1,0.7,0.5,0.8c0.3,0.1,0.6-0.1,0.7-0.3v-0.1l0.3-1.2l0.4-1.2L81.1,179.1L81.1,179.1z M79.2,185.6
		c0.1-0.4-0.1-0.7-0.5-0.8c-0.4-0.1-0.7,0.1-0.8,0.5l0,0l-0.3,1.1l-0.3,1.3l-0.1,0.2c-0.1,0.4,0.2,0.7,0.6,0.8
		c0.3,0.1,0.6-0.1,0.7-0.4l0.1-0.2l0.3-1.2L79.2,185.6L79.2,185.6z M77.5,192c0.1-0.4-0.1-0.7-0.5-0.8s-0.7,0.1-0.8,0.5l-0.2,0.9
		l-0.3,1.3l-0.1,0.5c0,0.4,0.2,0.7,0.6,0.7c0.3,0,0.6-0.2,0.7-0.5l0.1-0.5l0.3-1.3L77.5,192z M76,198.6c0.1-0.4-0.2-0.7-0.5-0.8
		c-0.4-0.1-0.7,0.2-0.8,0.5l0,0l-0.1,0.6l-0.3,1.3l-0.2,0.7c0,0.4,0.2,0.7,0.6,0.7c0.3,0,0.6-0.2,0.7-0.5l0.1-0.7l0.3-1.3L76,198.6
		L76,198.6z M74.7,205.2c0-0.4-0.3-0.7-0.6-0.7c-0.3,0-0.6,0.2-0.7,0.5l-0.1,0.4l-0.2,1.3l-0.2,1c-0.1,0.4,0.2,0.7,0.6,0.8
		s0.7-0.2,0.8-0.6l0,0l0.2-0.9l0.2-1.3L74.7,205.2L74.7,205.2z M73.7,211.9c0-0.4-0.3-0.7-0.7-0.7c-0.3,0-0.6,0.2-0.7,0.5v0.2
		l-0.2,1.3l-0.2,1.1c0,0.4,0.3,0.7,0.7,0.7c0.3,0,0.6-0.2,0.7-0.5l0.2-1.1l0.2-1.3L73.7,211.9L73.7,211.9z M72.9,218.6
		c0-0.4-0.3-0.7-0.6-0.7c-0.3,0-0.7,0.2-0.7,0.6v0.1l-0.1,1.3l-0.1,1.3c0,0.4,0.2,0.7,0.6,0.7s0.7-0.2,0.7-0.6l0.1-1.3L72.9,218.6
		L72.9,218.6L72.9,218.6z M72.3,225.3c0-0.4-0.3-0.7-0.7-0.7c-0.3,0-0.6,0.2-0.7,0.6l-0.1,1.3l-0.1,1.3v0.1c0,0.4,0.3,0.7,0.7,0.6
		c0.3,0,0.6-0.3,0.6-0.6v-0.1l0.1-1.3L72.3,225.3L72.3,225.3z M71.9,232c0-0.4-0.4-0.6-0.8-0.6c-0.3,0-0.6,0.3-0.6,0.6v1.2v1.4v0.1
		c0,0.4,0.4,0.6,0.8,0.6c0.3,0,0.6-0.3,0.6-0.6v-0.1v-1.3V232L71.9,232z M71.7,238.7c0-0.4-0.4-0.6-0.8-0.6c-0.3,0-0.6,0.3-0.6,0.6
		v2.7c0,0.4,0.4,0.6,0.8,0.6c0.3,0,0.6-0.3,0.6-0.6V238.7L71.7,238.7z M71.7,245.5c0-0.4-0.4-0.6-0.8-0.6c-0.3,0-0.6,0.3-0.6,0.6
		v1.2v0.7l1.3,1.1c0.1-0.1,0.1-0.2,0.1-0.4V248v-1.4L71.7,245.5L71.7,245.5z M489.2,246.2c0,0.4,0.3,0.7,0.7,0.7
		c0.4,0,0.7-0.3,0.7-0.7v-0.9V244v-0.5c0-0.4-0.4-0.6-0.8-0.6c-0.3,0-0.6,0.3-0.6,0.6v0.5v1.4L489.2,246.2L489.2,246.2z
		 M489.2,239.5c0,0.4,0.4,0.6,0.8,0.6c0.3,0,0.6-0.3,0.6-0.6v-0.9v-1.4v-0.5c0-0.4-0.4-0.6-0.8-0.6c-0.3,0-0.6,0.3-0.6,0.6v0.5v1.4
		V239.5L489.2,239.5z M489.1,232.8c0.1,0.4,0.4,0.6,0.8,0.6c0.3,0,0.6-0.3,0.6-0.6v-0.8l-0.1-1.3V230c-0.1-0.4-0.4-0.6-0.8-0.6
		c-0.3,0.1-0.6,0.3-0.6,0.6v0.5l0.1,1.3V232.8L489.1,232.8z M488.7,226c0.1,0.4,0.4,0.6,0.8,0.6c0.3-0.1,0.6-0.3,0.6-0.7l-0.1-0.8
		l-0.1-1.3v-0.6c0-0.4-0.4-0.6-0.7-0.6c-0.4,0-0.6,0.4-0.6,0.7l0,0.6l0.1,1.3L488.7,226L488.7,226z M488.1,219.3
		c0.1,0.4,0.4,0.6,0.8,0.6c0.3-0.1,0.6-0.4,0.6-0.7l-0.1-0.7l-0.1-1.3l-0.1-0.7c-0.1-0.4-0.4-0.6-0.8-0.6c-0.4,0.1-0.6,0.4-0.6,0.7
		l0.1,0.7l0.1,1.3L488.1,219.3L488.1,219.3z M487.3,212.6c0.1,0.4,0.5,0.6,0.8,0.5c0.3-0.1,0.5-0.4,0.5-0.7l-0.1-0.5l-0.2-1.3
		l-0.1-0.9c-0.1-0.4-0.5-0.6-0.8-0.5c-0.3,0.1-0.5,0.4-0.5,0.7l0.1,0.9l0.2,1.3L487.3,212.6L487.3,212.6z M486.3,206
		c0.1,0.4,0.4,0.6,0.8,0.6c0.4-0.1,0.6-0.4,0.5-0.8l0-0.3l-0.2-1.3l-0.2-1.1c-0.1-0.4-0.5-0.6-0.8-0.5c-0.3,0.1-0.5,0.4-0.5,0.7
		l0.2,1.1l0.2,1.3L486.3,206z M485,199.3c0.1,0.4,0.4,0.6,0.8,0.5c0.4-0.1,0.6-0.4,0.5-0.8V199l-0.3-1.3l-0.3-1.3l0,0
		c-0.1-0.4-0.5-0.5-0.9-0.4c-0.3,0.1-0.5,0.4-0.5,0.7l0,0l0.3,1.3L485,199.3L485,199.3L485,199.3z M483.6,192.8
		c0.1,0.4,0.5,0.6,0.8,0.5c0.3-0.1,0.5-0.4,0.5-0.8l-0.3-1.1l-0.3-1.3l-0.1-0.3c-0.1-0.4-0.5-0.5-0.9-0.4c-0.3,0.1-0.5,0.4-0.4,0.7
		l0.1,0.2l0.3,1.3L483.6,192.8L483.6,192.8z M481.9,186.2c0.1,0.4,0.5,0.6,0.9,0.4c0.3-0.1,0.5-0.5,0.5-0.8L483,185l-0.4-1.2
		l-0.1-0.5c-0.1-0.3-0.5-0.5-0.9-0.4c-0.3,0.1-0.5,0.4-0.4,0.8l0.1,0.5l0.4,1.2L481.9,186.2L481.9,186.2z M480,179.8
		c0.1,0.4,0.5,0.6,0.8,0.4c0.4-0.1,0.6-0.5,0.5-0.8l-0.2-0.5l-0.4-1.2l-0.3-0.8c-0.1-0.3-0.5-0.5-0.9-0.4c-0.3,0.1-0.5,0.4-0.4,0.8
		l0.3,0.8l0.4,1.2L480,179.8L480,179.8z M477.9,173.4c0.1,0.4,0.5,0.5,0.9,0.4c0.4-0.1,0.5-0.5,0.4-0.9l0,0l-0.1-0.2l-0.4-1.2
		l-0.4-1.1c-0.1-0.4-0.5-0.5-0.9-0.4c-0.4,0.1-0.5,0.5-0.4,0.9l0.4,1.1l0.4,1.2L477.9,173.4z M475.6,167c0.2,0.3,0.6,0.5,0.9,0.3
		c0.3-0.1,0.4-0.5,0.3-0.8l-0.4-1.1l-0.5-1.2l-0.1-0.3c-0.2-0.3-0.6-0.5-0.9-0.3c-0.3,0.1-0.4,0.5-0.3,0.8l0.1,0.3l0.5,1.2
		L475.6,167L475.6,167z M473.1,160.8c0.1,0.3,0.5,0.5,0.9,0.4c0.3-0.1,0.5-0.5,0.4-0.9l0,0l-0.3-0.7l-0.5-1.2l-0.3-0.6
		c-0.2-0.3-0.6-0.4-0.9-0.3c-0.3,0.2-0.4,0.5-0.3,0.8l0.3,0.6l0.5,1.2L473.1,160.8L473.1,160.8z M470.4,154.6
		c0.2,0.3,0.6,0.5,0.9,0.3c0.3-0.2,0.5-0.6,0.3-0.9l0,0l-0.1-0.3l-0.5-1.2l-0.5-1c-0.2-0.3-0.6-0.5-0.9-0.3c0,0-0.1,0-0.1,0.1
		c-0.3,0.2-0.4,0.6-0.2,0.9l0.5,0.9l0.5,1.1L470.4,154.6L470.4,154.6z M467.5,148.5c0.2,0.3,0.6,0.4,0.9,0.2
		c0.3-0.2,0.4-0.5,0.3-0.8l-0.5-1.1l-0.6-1.1l-0.1-0.2c-0.2-0.3-0.6-0.4-0.9-0.2c-0.3,0.2-0.4,0.5-0.3,0.8l0.1,0.2l0.6,1.1
		L467.5,148.5z M464.4,142.5c0.2,0.3,0.6,0.4,0.9,0.3c0.3-0.2,0.4-0.6,0.3-0.9l-0.4-0.7l-0.6-1.1l-0.3-0.6c-0.2-0.3-0.6-0.4-0.9-0.2
		c-0.3,0.2-0.4,0.5-0.2,0.8l0.3,0.5l0.6,1.1L464.4,142.5z M461.1,136.6c0.2,0.3,0.6,0.4,0.9,0.2c0.3-0.2,0.4-0.6,0.2-0.9l-0.2-0.3
		l-0.6-1.1l-0.5-0.9c-0.2-0.3-0.6-0.4-1-0.1c-0.3,0.2-0.4,0.6-0.2,0.8l0.5,0.9l0.6,1.1L461.1,136.6z M457.6,130.9
		c0.2,0.3,0.6,0.4,0.9,0.2c0.3-0.2,0.4-0.6,0.2-0.9l-0.6-1l-0.7-1.1l-0.1-0.2c-0.2-0.3-0.6-0.4-0.9-0.2s-0.4,0.6-0.2,0.9l0.1,0.2
		l0.7,1.1L457.6,130.9L457.6,130.9z M454,125.2c0.1,0.2,0.4,0.3,0.7,0.3c0.4-0.1,0.6-0.4,0.5-0.8c0-0.1,0-0.1-0.1-0.2l-0.4-0.6
		l-0.7-1l-0.4-0.6c-0.2-0.3-0.7-0.3-1-0.1c-0.2,0.2-0.3,0.5-0.2,0.8v0.1l0.4,0.6l0.7,1L454,125.2L454,125.2z M450.1,119.7
		c0.4,0.7,1.6,0,1.1-0.7l0-0.1l-0.2-0.2l-0.8-1l-0.7-0.9c-0.3-0.3-0.7-0.3-1,0c-0.2,0.2-0.3,0.6-0.1,0.8l0.7,0.9l0.7,1L450.1,119.7z
		 M446.1,114.3c0.2,0.3,0.6,0.4,0.9,0.2s0.4-0.6,0.2-0.9c0,0,0-0.1-0.1-0.1l-0.7-0.9l-0.8-1l-0.2-0.3c-0.3-0.3-0.7-0.3-1,0
		c-0.2,0.2-0.3,0.6-0.1,0.8l0.2,0.3l0.8,1C445.5,113.4,446.1,114.3,446.1,114.3z M442,109c0.3,0.2,0.7,0.2,0.9-0.1
		c0.2-0.2,0.2-0.5,0.1-0.8l-0.4-0.5l-0.8-1l-0.5-0.7c-0.3-0.2-0.7-0.2-0.9,0.1c-0.2,0.2-0.2,0.5-0.1,0.8l0.5,0.6l0.8,1L442,109
		L442,109z M437.6,103.8c0.3,0.3,0.7,0.3,0.9,0c0.2-0.2,0.3-0.6,0.1-0.9l-0.1-0.1l-0.8-0.9l-0.8-0.9l0,0c-0.3-0.2-0.7-0.2-1,0.1
		c-0.2,0.2-0.2,0.6,0,0.9l0,0l0.8,0.9l0.8,0.9L437.6,103.8L437.6,103.8z M433.1,98.8c0.3,0.3,0.7,0.3,1,0c0.3-0.3,0.3-0.7,0-1l0,0
		l-0.6-0.7l-0.9-0.9l-0.4-0.4c-0.3-0.3-0.7-0.3-1,0s-0.3,0.7,0,1l0,0l0.4,0.4l0.9,0.9L433.1,98.8z M428.4,94c0.3,0.3,0.7,0.3,1,0
		s0.3-0.7,0-1l-0.3-0.3l-0.9-0.9l-0.7-0.7c-0.6-0.6-1.6,0.3-1,1l0.7,0.7l0.9,0.9L428.4,94L428.4,94z M423.6,89.3
		c0.3,0.2,0.7,0.2,1-0.1c0.2-0.3,0.2-0.7,0-0.9l-0.9-0.8l-0.9-0.8l-0.2-0.2c-0.3-0.2-0.7-0.2-1,0.1c-0.2,0.3-0.2,0.6,0,0.9l0.2,0.2
		l0.9,0.8L423.6,89.3L423.6,89.3z M418.6,84.8c0.6,0.6,1.6-0.3,0.9-1l-0.5-0.5l-1-0.8l-0.5-0.5c-0.6-0.6-1.5,0.3-0.9,1l0.5,0.5
		l1,0.8L418.6,84.8L418.6,84.8z M413.5,80.4c0.3,0.2,0.7,0,0.9-0.3c0.1-0.2,0.1-0.5-0.1-0.7l-0.2-0.2l-1-0.8l-0.9-0.8
		c-0.5-0.5-1.6,0.3-0.8,1l0.9,0.8l1,0.8L413.5,80.4L413.5,80.4z M408.2,76.2c0.3,0.2,0.7,0.2,1-0.1s0.2-0.7-0.1-1l0,0l-0.8-0.6
		l-1-0.8l-0.3-0.2c-0.3-0.2-0.7-0.1-0.9,0.3c-0.2,0.3-0.1,0.6,0.1,0.8l0.3,0.2l1,0.8L408.2,76.2L408.2,76.2z M402.8,72.2
		c0.3,0.2,0.7,0.1,0.9-0.2c0.2-0.3,0.1-0.6-0.1-0.9l-0.5-0.3l-1-0.7l-0.7-0.5c-0.3-0.2-0.7-0.1-0.9,0.3c-0.1,0.3-0.1,0.6,0.2,0.8
		l0.7,0.5l1,0.7L402.8,72.2L402.8,72.2z M397.3,68.3c0.3,0.2,0.7,0.1,0.9-0.3c0.2-0.3,0.1-0.6-0.2-0.8l-0.1-0.1l-1-0.7l-1.1-0.7h0
		c-0.3-0.2-0.7,0-0.9,0.3c-0.1,0.3-0.1,0.6,0.2,0.8h0l1,0.7l1,0.7L397.3,68.3L397.3,68.3z M391.6,64.6c0.3,0.2,0.7,0.1,0.9-0.2
		c0.2-0.3,0.1-0.7-0.2-0.9l-0.8-0.5l-1.1-0.7l-0.4-0.3c-0.3-0.2-0.7-0.1-0.9,0.2c-0.2,0.3-0.1,0.7,0.2,0.9l0.4,0.3l1.1,0.7
		L391.6,64.6z M385.9,61.1c0.3,0.2,0.7,0,0.9-0.3c0.1-0.3,0-0.6-0.2-0.8l0,0l-0.4-0.2l-1.1-0.7l-0.8-0.5c-0.3-0.2-0.7-0.1-0.9,0.2
		c-0.2,0.3-0.1,0.7,0.2,0.9l0.8,0.5l1.1,0.6L385.9,61.1L385.9,61.1z M380,57.8c0.3,0.2,0.7,0.1,0.9-0.2c0.2-0.3,0.1-0.7-0.2-0.9
		c0,0-0.1-0.1-0.1-0.1l0,0l-1.1-0.6l-1.1-0.6l-0.1-0.1c-0.7-0.4-1.4,0.7-0.6,1.2l0,0h0.1l1.1,0.6L380,57.8L380,57.8L380,57.8z
		 M374,54.6c0.3,0.2,0.7,0,0.9-0.3c0.2-0.3,0.2-0.7-0.1-0.9c0,0-0.1-0.1-0.1-0.1l-0.8-0.4l-1.1-0.6l-0.5-0.2c-0.4-0.1-0.7,0-0.9,0.4
		c-0.1,0.3,0,0.7,0.3,0.8l0.5,0.2l1.1,0.6L374,54.6L374,54.6z M368,51.7c0.4,0.1,0.7-0.1,0.9-0.4c0.1-0.3,0-0.6-0.3-0.8l-0.4-0.2
		l-1.1-0.5l-0.9-0.4c-0.3-0.2-0.7,0-0.9,0.3c-0.2,0.3,0,0.7,0.3,0.9l0.9,0.4l1.1,0.5L368,51.7L368,51.7z M361.8,49
		c0.3,0.1,0.7,0,0.9-0.4c0.1-0.3,0-0.7-0.4-0.9h-0.1l-1.2-0.5l-1.2-0.5h-0.1c-0.4-0.1-0.7,0.1-0.8,0.5c-0.1,0.3,0.1,0.7,0.3,0.8l0,0
		l1.2,0.5l1.2,0.5L361.8,49L361.8,49z M355.6,46.5c0.3,0.1,0.7,0,0.9-0.4c0.1-0.3,0-0.7-0.4-0.9l-0.9-0.4l-1.2-0.5l-0.4-0.2
		c-0.4-0.1-0.7,0.1-0.8,0.5c-0.1,0.3,0.1,0.6,0.4,0.8l0,0l0.4,0.2l1.2,0.5L355.6,46.5L355.6,46.5z M349.3,44.2
		c0.4,0.1,0.7-0.1,0.8-0.5c0.1-0.3-0.1-0.6-0.4-0.8l0,0l-0.6-0.2l-1.2-0.4l-0.7-0.2c-0.4-0.1-0.7,0.2-0.8,0.5
		c-0.1,0.3,0.1,0.6,0.4,0.8l0.7,0.2l1.2,0.4L349.3,44.2L349.3,44.2z M342.9,42c0.2,0,0.4,0,0.5,0c0.3-0.2,0.5-0.6,0.3-0.9
		c-0.1-0.2-0.2-0.3-0.4-0.4l-0.3-0.1l-1.2-0.4l-1.1-0.3c-0.8-0.3-1.3,1-0.4,1.3l0,0l1,0.3l1.2,0.4L342.9,42L342.9,42z M336.4,40.1
		c0.4,0.1,0.7-0.1,0.8-0.5c0.1-0.3-0.1-0.6-0.3-0.7l-0.2-0.1l0,0l-1.2-0.3l-1.2-0.3h-0.1c-0.4-0.1-0.7,0.2-0.8,0.6
		c-0.1,0.3,0.1,0.6,0.4,0.7h0.1l1.2,0.3L336.4,40.1L336.4,40.1z M329.9,38.4c0.4,0.1,0.7-0.1,0.8-0.5c0.1-0.4-0.1-0.7-0.5-0.8
		l-1-0.2l-1.3-0.3l-0.4-0.1c-0.4,0-0.7,0.2-0.7,0.6c0,0.3,0.2,0.6,0.5,0.7l0.4,0.1l1.3,0.3C328.9,38.2,329.9,38.4,329.9,38.4z
		 M323.3,36.9c0.4,0.1,0.7-0.2,0.8-0.5c0.1-0.4-0.2-0.7-0.5-0.8l-0.8-0.2l-1.3-0.3l-0.6-0.1c-0.4,0-0.7,0.2-0.7,0.6
		c0,0.3,0.2,0.6,0.5,0.7l0.6,0.1l1.3,0.3L323.3,36.9L323.3,36.9z M316.7,35.6c0.4,0.1,0.7-0.2,0.8-0.5c0.1-0.4-0.2-0.7-0.5-0.8l0,0
		l-0.5-0.1l-1.3-0.2l-0.8-0.1c-0.4,0-0.7,0.2-0.7,0.6c0,0.3,0.2,0.6,0.5,0.7l0.8,0.1l1.3,0.2L316.7,35.6L316.7,35.6z M310,34.6
		c0.4,0,0.7-0.3,0.7-0.7c0-0.3-0.2-0.6-0.5-0.7l-0.4,0l-1.3-0.2l-1-0.1c-0.4,0-0.7,0.3-0.7,0.7c0,0.3,0.2,0.6,0.5,0.7l1,0.1l1.3,0.2
		h0.4L310,34.6z M303.3,33.8c0.4,0,0.7-0.2,0.7-0.6c0-0.4-0.2-0.7-0.6-0.7l0,0h-0.2l-1.3-0.2l-1.2-0.1c-0.4,0-0.7,0.3-0.7,0.7
		c0,0.3,0.2,0.6,0.6,0.7l1.2,0.1l1.3,0.1L303.3,33.8L303.3,33.8z M296.6,33.2c0.4,0,0.7-0.3,0.7-0.7c0-0.3-0.2-0.6-0.6-0.7h-0.1
		l-1.3-0.1l-1.3-0.1c-0.4,0-0.7,0.3-0.7,0.7c0,0.3,0.2,0.6,0.6,0.6l1.3,0.1l1.3,0.1L296.6,33.2z M289.9,32.8c0.4,0,0.7-0.4,0.6-0.7
		c0-0.3-0.3-0.6-0.6-0.6l0,0l-1.4,0l-1.3,0c-0.4,0-0.6,0.4-0.6,0.8c0,0.3,0.3,0.6,0.6,0.6h1.3L289.9,32.8L289.9,32.8z M274.3,38.4
		c0.4-0.1,0.6-0.4,0.6-0.8c0-0.3-0.3-0.5-0.6-0.6h-0.4h-1.3h-1c-0.4,0.1-0.6,0.4-0.6,0.8c0,0.3,0.3,0.6,0.6,0.6h1h1.3H274.3z
		 M267.6,38.8c0.4-0.1,0.6-0.4,0.6-0.8c-0.1-0.3-0.3-0.6-0.6-0.6h-0.1l-1.3,0.1l-1.3,0.1c-0.4,0.1-0.6,0.4-0.6,0.8
		c0.1,0.3,0.3,0.6,0.7,0.6l1.3-0.1l1.3-0.1H267.6z M260.9,39.3c0.4,0,0.6-0.4,0.6-0.7c0-0.4-0.4-0.6-0.7-0.6l-1.1,0.1l-1.3,0.1H258
		c-0.4,0.1-0.6,0.4-0.6,0.8c0.1,0.4,0.4,0.6,0.7,0.6h0.3l1.3-0.1L260.9,39.3z M254.2,40c0.4-0.1,0.6-0.5,0.5-0.8
		c-0.1-0.3-0.4-0.5-0.7-0.5l-0.8,0.1l-1.3,0.2l-0.6,0.1c-0.4,0.1-0.6,0.5-0.5,0.8c0.1,0.3,0.4,0.5,0.7,0.5l0.6-0.1l1.3-0.2
		C253.3,40.1,254.2,40,254.2,40z M247.5,41c0.4-0.1,0.6-0.4,0.6-0.8c-0.1-0.4-0.4-0.6-0.8-0.6l-0.4,0.1l-1.3,0.2l-1,0.2
		c-0.4,0.1-0.6,0.5-0.5,0.8c0.1,0.3,0.4,0.5,0.7,0.5l0.9-0.2l1.3-0.2L247.5,41L247.5,41z M240.9,42.2c0.4-0.1,0.6-0.5,0.5-0.8
		c-0.1-0.3-0.4-0.5-0.7-0.5h-0.1l-1.2,0.2l-1.2,0.3h-0.1c-0.4,0.1-0.6,0.4-0.5,0.8s0.4,0.6,0.8,0.5h0.1l1.2-0.3L240.9,42.2
		L240.9,42.2z M234.3,43.7c0.4-0.1,0.6-0.5,0.5-0.8c-0.1-0.3-0.4-0.5-0.8-0.5l-0.9,0.2l-1.2,0.3l-0.5,0.1c-0.4,0.1-0.6,0.5-0.5,0.8
		c0.1,0.3,0.4,0.5,0.8,0.5l0.5-0.1l1.2-0.3L234.3,43.7L234.3,43.7z M227.7,45.3c0.4-0.1,0.6-0.5,0.5-0.8c-0.1-0.4-0.5-0.6-0.8-0.5
		l0,0l-0.4,0l-1.2,0.3l-1,0.3c-0.3,0.1-0.5,0.5-0.4,0.9c0.1,0.3,0.4,0.5,0.7,0.4l1-0.3l1.2-0.3l0.4-0.1L227.7,45.3z M221.3,47.2
		c0.3-0.2,0.5-0.6,0.3-0.9c-0.1-0.3-0.4-0.4-0.7-0.4l-1.1,0.3l-1.2,0.4l-0.2,0.1c-0.3,0.1-0.5,0.5-0.4,0.9c0.1,0.3,0.5,0.5,0.8,0.4
		l0.2-0.1l1.2-0.4L221.3,47.2z M214.8,49.2c0.3-0.2,0.5-0.6,0.3-0.9c-0.1-0.3-0.5-0.5-0.8-0.4l-0.7,0.2l-1.2,0.4l-0.7,0.2
		c-0.3,0.1-0.5,0.5-0.4,0.9c0.1,0.3,0.5,0.5,0.8,0.4l0.7-0.3l1.2-0.4L214.8,49.2L214.8,49.2z M208.5,51.5c0.3-0.1,0.5-0.5,0.4-0.9
		c-0.1-0.3-0.5-0.5-0.9-0.4l0,0l-0.2,0.1l-1.2,0.5l-1.2,0.5h-0.1c-0.3,0.2-0.5,0.6-0.3,0.9c0.1,0.3,0.5,0.4,0.8,0.3h0l1.1-0.5
		l1.2-0.5L208.5,51.5L208.5,51.5z M202.2,54c0.3-0.2,0.5-0.6,0.3-0.9c-0.2-0.3-0.5-0.5-0.8-0.3l-0.8,0.3l-1.1,0.5l-0.6,0.2
		c-0.3,0.2-0.4,0.6-0.3,0.9c0.2,0.3,0.5,0.4,0.8,0.3l0.6-0.2l1.1-0.5C201.5,54.3,202.2,54,202.2,54z M196.1,56.7
		c0.3-0.2,0.4-0.6,0.2-0.9c-0.2-0.3-0.5-0.4-0.8-0.3l-0.3,0.1l-1.1,0.5l-1.1,0.5c-0.3,0.2-0.4,0.6-0.2,0.9c0.2,0.3,0.5,0.4,0.8,0.3
		l1.1-0.5l1.1-0.5L196.1,56.7L196.1,56.7z M190,59.5c0.3-0.2,0.5-0.6,0.3-0.9c-0.2-0.3-0.6-0.5-0.9-0.3l0,0l-0.9,0.4l-1.1,0.6
		l-0.5,0.2c-0.3,0.2-0.4,0.6-0.2,0.9c0.2,0.3,0.5,0.4,0.8,0.3l0.5-0.2l1.1-0.5L190,59.5L190,59.5z M184,62.7
		c0.3-0.2,0.4-0.6,0.2-0.9c-0.2-0.3-0.5-0.4-0.8-0.2l-0.3,0.2l-1.1,0.6l-1,0.5c-0.3,0.2-0.4,0.6-0.2,0.9c0.2,0.3,0.5,0.4,0.8,0.2
		l1-0.5l1.1-0.6L184,62.7L184,62.7z M178.1,66c0.3-0.2,0.4-0.6,0.2-0.9c-0.2-0.3-0.6-0.4-0.9-0.2l-0.8,0.5l-1.1,0.6l-0.4,0.3
		c-0.3,0.2-0.4,0.6-0.1,1c0.2,0.3,0.6,0.4,0.8,0.2l0,0l0.4-0.3l1.1-0.6L178.1,66L178.1,66z M172.4,69.5c0.8-0.4,0-1.6-0.7-1.2
		l-0.3,0.2l-1,0.7l-1,0.6c-0.1,0.1-0.2,0.2-0.2,0.3c-0.2,0.3,0,0.7,0.3,0.9c0.2,0.1,0.5,0.1,0.7-0.1l1-0.6l1-0.7L172.4,69.5
		L172.4,69.5z M166.7,73.2c0.3-0.2,0.4-0.6,0.2-1c-0.2-0.3-0.6-0.4-1-0.2l0,0l-0.8,0.5l-1,0.7l-0.4,0.3c-0.3,0.2-0.4,0.6-0.2,0.9
		c0.2,0.3,0.6,0.4,0.9,0.3c0,0,0.1,0,0.1,0l0.4-0.3l1-0.7L166.7,73.2L166.7,73.2z M161.2,77c0.7-0.4,0.1-1.6-0.8-1.1l-0.2,0.2
		l-1,0.7l-0.9,0.7c-0.3,0.2-0.4,0.6-0.3,0.9c0.2,0.3,0.6,0.4,0.9,0.3c0,0,0.1-0.1,0.1-0.1l0.9-0.7l1-0.7L161.2,77L161.2,77z
		 M155.8,81.1c0.3-0.3,0.3-0.7,0-1c-0.2-0.2-0.6-0.3-0.8-0.1l-0.7,0.6l-1,0.8l-0.5,0.4c-0.3,0.2-0.3,0.7-0.1,1
		c0.2,0.3,0.6,0.3,0.9,0.1l0.4-0.4l1-0.8L155.8,81.1L155.8,81.1z M150.6,85.3c0.2-0.3,0.2-0.7-0.1-0.9c-0.2-0.2-0.5-0.2-0.8-0.1
		l-0.2,0.2l-0.9,0.8l-0.9,0.8l0,0c-0.2,0.3-0.2,0.7,0.1,1c0.2,0.2,0.5,0.2,0.8,0l0,0l0.9-0.8l0.9-0.8L150.6,85.3L150.6,85.3z
		 M145.5,89.7c0.2-0.3,0.2-0.7-0.1-1c-0.2-0.2-0.6-0.2-0.8,0l-0.6,0.6l-0.9,0.8l-0.5,0.4c-0.2,0.3-0.2,0.7,0.1,1
		c0.2,0.2,0.6,0.2,0.9,0l0.5-0.4l0.9-0.8L145.5,89.7L145.5,89.7z M140.5,94.2c0.3-0.3,0.3-0.7,0-1s-0.7-0.3-1,0l0,0l-0.1,0.1
		l-0.9,0.8l-0.9,0.9l-0.1,0.1c-0.3,0.3-0.3,0.7,0,1s0.7,0.3,1,0l0.1-0.1l0.9-0.8l0.9-0.8L140.5,94.2L140.5,94.2z M135.7,99
		c0.3-0.3,0.2-0.7,0-1s-0.7-0.2-1,0l-0.5,0.5l-0.9,0.9l-0.5,0.5c-0.3,0.3-0.2,0.7,0,1s0.7,0.2,1,0l0,0l0.5-0.5l0.9-0.9L135.7,99
		L135.7,99z M131.1,103.9c0.6-0.6-0.3-1.6-1-0.9l0,0L130,103l-0.8,0.9l-0.8,0.9l-0.1,0.1c-0.6,0.6,0.4,1.6,1,0.9l0,0l0.1-0.1
		l0.8-0.9L131.1,103.9L131.1,103.9L131.1,103.9z M126.6,108.9c0.6-0.6-0.4-1.6-1-0.9l-0.4,0.5l-0.8,0.9l-0.5,0.6
		c-0.2,0.3-0.1,0.7,0.3,0.9c0.2,0.1,0.5,0.1,0.7-0.1l0.5-0.6l0.8-0.9L126.6,108.9L126.6,108.9z M122.3,114c0.2-0.2,0.2-0.6,0-0.8
		c-0.2-0.3-0.7-0.3-0.9-0.1c0,0,0,0-0.1,0.1l0,0l-0.8,1l-0.8,1l-0.2,0.2c-0.2,0.3-0.2,0.7,0.1,0.9s0.7,0.2,0.9-0.1l0.2-0.2l0.8-0.9
		L122.3,114L122.3,114z M118.1,119.4c0.2-0.3,0.1-0.7-0.3-0.9c-0.3-0.2-0.6-0.1-0.8,0.1l-0.4,0.5l-0.7,1l-0.5,0.7
		c-0.2,0.3-0.1,0.7,0.2,0.9c0.3,0.2,0.6,0.1,0.8-0.1l0.5-0.7l0.7-1C117.8,119.8,118.1,119.4,118.1,119.4z M114.1,124.8
		c0.2-0.3,0.1-0.7-0.3-0.9c-0.3-0.1-0.6-0.1-0.8,0.2l-0.7,1l-0.7,1l-0.2,0.2c-0.2,0.3-0.1,0.7,0.2,0.9s0.7,0.1,0.9-0.2l0.2-0.2
		l0.7-1L114.1,124.8L114.1,124.8z M110.4,130.4c0.2-0.3,0.1-0.7-0.2-0.9c-0.3-0.2-0.7-0.1-0.9,0.2l-0.3,0.5l-0.7,1l-0.5,0.8
		c-0.2,0.3,0,0.7,0.3,0.9c0.3,0.1,0.6,0.1,0.8-0.2l0.5-0.8l0.7-1L110.4,130.4L110.4,130.4z M106.8,136.1c0.2-0.3,0-0.7-0.3-0.9
		c-0.3-0.1-0.7-0.1-0.8,0.2l-0.6,1l-0.6,1.1l-0.2,0.3c-0.2,0.3-0.1,0.7,0.2,0.9s0.7,0.1,0.9-0.2l0.2-0.3l0.6-1L106.8,136.1
		L106.8,136.1z M103.4,141.9c0.1-0.3,0-0.7-0.4-0.9c-0.3-0.1-0.6,0-0.8,0.2l-0.3,0.5l-0.6,1.1l-0.4,0.8c-0.2,0.3,0,0.7,0.3,0.9
		c0.3,0.1,0.7,0,0.9-0.2l0,0l0.4-0.8l0.6-1.1L103.4,141.9L103.4,141.9z M100.2,147.8c0.4-0.7-0.7-1.4-1.2-0.6l-0.5,1l-0.6,1.1
		l-0.1,0.3c-0.2,0.3,0,0.7,0.3,0.9c0.3,0.2,0.7,0.1,0.9-0.2c0,0,0-0.1,0.1-0.1l0.1-0.3l0.6-1.1L100.2,147.8L100.2,147.8z
		 M97.2,153.8c0.1-0.4-0.1-0.7-0.4-0.9c-0.3-0.1-0.6,0-0.8,0.3l-0.2,0.5l-0.5,1.2l-0.4,0.8c-0.1,0.4,0,0.7,0.4,0.9
		c0.3,0.1,0.7,0,0.8-0.3l0.4-0.8l0.5-1.1L97.2,153.8L97.2,153.8z M94.4,160c0.1-0.4-0.1-0.7-0.4-0.9c-0.3-0.1-0.6,0-0.8,0.3l0,0
		l-0.5,1.1l-0.5,1.1l-0.1,0.2c-0.1,0.4,0.1,0.7,0.4,0.9c0.3,0.1,0.6,0,0.8-0.3l0.1-0.2l0.5-1.1L94.4,160L94.4,160z M91.8,166.2
		c0.1-0.4-0.1-0.7-0.5-0.8c-0.3-0.1-0.7,0.1-0.8,0.3l-0.2,0.7l-0.5,1.2l-0.3,0.7c-0.1,0.3,0,0.7,0.4,0.9s0.7,0,0.9-0.4l0,0l0,0
		l0.3-0.7l0.4-1.2L91.8,166.2L91.8,166.2z M89.4,172.5c0.1-0.4-0.1-0.7-0.5-0.8c-0.3-0.1-0.6,0.1-0.8,0.4l0,0l-0.1,0.1l-0.4,1.2
		l-0.4,1.2v0.1c-0.1,0.4,0.2,0.7,0.5,0.8c0.3,0.1,0.6-0.1,0.8-0.4l0,0l0.4-1.2l0.4-1.2L89.4,172.5L89.4,172.5z M87.2,178.9
		c0.3-0.8-1-1.2-1.3-0.5v0.1l-0.3,0.9l-0.4,1.2l-0.2,0.5c-0.1,0.3,0.1,0.7,0.4,0.8c0.3,0.1,0.7,0,0.9-0.3c0,0,0-0.1,0-0.1l0.2-0.5
		l0.4-1.2L87.2,178.9L87.2,178.9z M85.2,185.4c0.1-0.4-0.1-0.7-0.4-0.8c-0.3-0.1-0.7,0-0.8,0.3l0,0.1l-0.1,0.4l-0.3,1.2l-0.3,1
		c-0.1,0.4,0.1,0.7,0.4,0.9c0.4,0.1,0.7-0.1,0.9-0.4c0,0,0-0.1,0-0.1l0.3-1l0.3-1.2L85.2,185.4L85.2,185.4z M83.5,191.9
		c0.1-0.4-0.2-0.7-0.5-0.8c-0.3-0.1-0.7,0.1-0.8,0.5l-0.3,1.2l-0.3,1.2l-0.1,0.2c0,0.4,0.2,0.7,0.6,0.8c0.3,0,0.6-0.2,0.7-0.5
		l0.1-0.2l0.3-1.2L83.5,191.9L83.5,191.9z M82,198.4c0.1-0.4-0.2-0.7-0.5-0.8c-0.4-0.1-0.7,0.2-0.8,0.5l0,0l-0.2,0.7l-0.3,1.2
		l-0.1,0.7c-0.1,0.4,0.2,0.7,0.5,0.8c0.4,0.1,0.7-0.2,0.8-0.5l0.1-0.7l0.2-1.2L82,198.4z M80.7,205.1c0-0.4-0.3-0.7-0.6-0.7
		c-0.3,0-0.6,0.2-0.7,0.5l-0.1,0.4l-0.2,1.3l-0.2,1.1c-0.1,0.4,0.2,0.7,0.6,0.8c0.4,0.1,0.7-0.2,0.8-0.6l0,0l0.2-1l0.2-1.2
		L80.7,205.1L80.7,205.1z M79.6,211.7c0-0.4-0.3-0.7-0.7-0.7c-0.3,0-0.6,0.2-0.7,0.5l-0.2,1.2l-0.2,1.2v0.2c0,0.4,0.3,0.7,0.7,0.7
		c0.3,0,0.6-0.2,0.7-0.5v-0.2l0.2-1.3L79.6,211.7L79.6,211.7z M78.7,218.4c0-0.4-0.3-0.7-0.6-0.7c-0.3,0-0.7,0.2-0.7,0.6l-0.1,0.9
		l-0.1,1.3v0.5c0,0.4,0.2,0.7,0.6,0.7s0.7-0.2,0.7-0.6v-0.5l0.1-1.3L78.7,218.4L78.7,218.4z M78.1,225.1c0-0.4-0.3-0.7-0.7-0.7
		c-0.3,0-0.6,0.2-0.7,0.6v0.6l-0.1,1.3v0.8c0,0.4,0.3,0.7,0.7,0.7c0.3,0,0.6-0.2,0.6-0.6V227l0.1-1.3L78.1,225.1L78.1,225.1z
		 M77.7,231.8c0-0.4-0.4-0.7-0.7-0.6c-0.3,0-0.6,0.3-0.6,0.6v0.4v1.3v1c0,0.4,0.4,0.6,0.8,0.6c0.3,0,0.6-0.3,0.6-0.6v-1l0.1-1.3
		L77.7,231.8L77.7,231.8z M77.5,238.5c0-0.4-0.4-0.6-0.8-0.6c-0.3,0-0.6,0.3-0.6,0.6v0.1v1.3v1.2c0,0.4,0.2,0.7,0.6,0.8
		c0.4,0,0.7-0.2,0.8-0.6c0-0.1,0-0.1,0-0.2V238.5L77.5,238.5z M77.5,245.3c0-0.4-0.4-0.6-0.8-0.6c-0.3,0-0.6,0.3-0.6,0.6v1.3v1.3
		v0.1c0.1,0.4,0.4,0.6,0.8,0.6c0.3,0,0.5-0.3,0.6-0.6v-0.1v-1.3V245.3L77.5,245.3z M77.7,252c-0.1-0.4-0.4-0.6-0.8-0.6
		c-0.3,0.1-0.6,0.3-0.6,0.6v0.4l1.4,1.2v-0.6L77.7,252L77.7,252z M484.4,253.7v-0.6v-0.5c0-0.4-0.3-0.7-0.7-0.6
		c-0.3,0-0.6,0.3-0.6,0.6v0.5l-0.1,1.3l-0.1,0.9L484.4,253.7L484.4,253.7z M483.3,248.6c0,0.4,0.3,0.7,0.7,0.7
		c0.4,0,0.7-0.3,0.7-0.7v-0.7v-1.3v-0.7c0-0.4-0.4-0.6-0.8-0.6c-0.3,0-0.6,0.3-0.6,0.6v0.7v1.3L483.3,248.6L483.3,248.6z
		 M483.5,241.8c0,0.4,0.2,0.7,0.6,0.8c0.4,0,0.7-0.2,0.8-0.6c0-0.1,0-0.1,0-0.2v-2.7c0-0.4-0.4-0.6-0.8-0.6c-0.3,0-0.6,0.3-0.6,0.6
		V241.8L483.5,241.8z M483.4,235.1c0,0.4,0.3,0.7,0.7,0.7c0.4,0,0.7-0.3,0.7-0.7v-0.3l0-1.3v-1.1c0-0.4-0.3-0.7-0.7-0.6
		s-0.7,0.3-0.6,0.7v1.1l0,1.3V235.1L483.4,235.1z M483.1,228.3c0.1,0.4,0.4,0.6,0.8,0.6c0.3-0.1,0.6-0.3,0.6-0.6l0,0l-0.1-1.3
		l-0.1-1.3v-0.1c-0.1-0.4-0.4-0.6-0.8-0.6c-0.3,0.1-0.6,0.3-0.6,0.7v0.1l0.1,1.2L483.1,228.3L483.1,228.3L483.1,228.3z M482.5,221.6
		c0,0.4,0.4,0.6,0.7,0.6c0.4,0,0.6-0.4,0.6-0.7l-0.1-1.1l-0.1-1.3v-0.4c0-0.4-0.4-0.6-0.8-0.6s-0.6,0.4-0.6,0.8l0,0v0.4l0.1,1.3
		L482.5,221.6L482.5,221.6z M481.8,214.9c0.1,0.4,0.5,0.6,0.8,0.5c0.3-0.1,0.5-0.4,0.5-0.7L483,214l-0.2-1.3l-0.1-0.7
		c-0.1-0.4-0.5-0.6-0.8-0.5c-0.3,0.1-0.5,0.4-0.5,0.7l0.1,0.7l0.2,1.3L481.8,214.9L481.8,214.9z M480.8,208.3
		c0.1,0.4,0.4,0.6,0.8,0.6s0.6-0.4,0.6-0.8l0,0l-0.1-0.4l-0.2-1.3l-0.2-1c-0.1-0.4-0.4-0.6-0.8-0.5c-0.4,0.1-0.6,0.4-0.5,0.8
		l0.2,1.1l0.2,1.2L480.8,208.3L480.8,208.3z M479.6,201.6c0.1,0.4,0.4,0.6,0.8,0.5c0.4-0.1,0.6-0.4,0.5-0.8l-0.2-1.2l-0.3-1.2v-0.2
		c-0.1-0.4-0.4-0.6-0.8-0.5c-0.4,0.1-0.6,0.4-0.5,0.8l0,0v0.2l0.3,1.2L479.6,201.6z M478.1,195c0.1,0.4,0.5,0.6,0.8,0.5
		s0.6-0.5,0.5-0.8l-0.2-0.8l-0.3-1.2l-0.1-0.6c-0.1-0.4-0.5-0.6-0.8-0.5s-0.6,0.5-0.5,0.8l0,0l0.1,0.6l0.3,1.2L478.1,195L478.1,195z
		 M476.5,188.5c0.1,0.4,0.5,0.6,0.8,0.5c0.4-0.1,0.6-0.5,0.5-0.8l-0.1-0.3l-0.3-1.2l-0.3-1.1c-0.1-0.3-0.5-0.5-0.9-0.4
		c-0.3,0.1-0.5,0.4-0.4,0.7l0.3,1.1l0.3,1.2L476.5,188.5z M474.7,182c0.2,0.3,0.6,0.5,0.9,0.3c0.3-0.1,0.4-0.4,0.4-0.7l-0.3-1.1
		l-0.4-1.2l-0.1-0.3c-0.1-0.4-0.5-0.5-0.9-0.4c-0.4,0.1-0.5,0.5-0.4,0.9l0.1,0.3l0.4,1.2L474.7,182L474.7,182z M472.6,175.6
		c0.2,0.3,0.6,0.5,0.9,0.3c0.3-0.1,0.5-0.5,0.4-0.8l-0.2-0.6l-0.4-1.2l-0.3-0.8c-0.2-0.3-0.6-0.5-0.9-0.3c-0.3,0.1-0.4,0.5-0.4,0.8
		l0.3,0.8l0.4,1.2L472.6,175.6z M470.3,169.2c0.2,0.3,0.6,0.5,0.9,0.3c0.3-0.1,0.5-0.5,0.4-0.8v-0.1l-0.5-1.2l-0.5-1.2l-0.1-0.1
		c-0.1-0.3-0.5-0.5-0.9-0.4s-0.5,0.5-0.4,0.9l0,0.1l0.5,1.2L470.3,169.2L470.3,169.2L470.3,169.2z M467.8,163
		c0.2,0.3,0.6,0.5,0.9,0.3c0.3-0.2,0.4-0.5,0.3-0.8l-0.3-0.7l-0.5-1.1L468,160c-0.2-0.3-0.6-0.4-0.9-0.3c-0.3,0.2-0.4,0.5-0.3,0.8
		l0.3,0.6l0.5,1.1L467.8,163L467.8,163z M465.1,156.8c0.2,0.3,0.6,0.4,0.9,0.2c0.3-0.2,0.4-0.5,0.3-0.8l-0.1-0.2l-0.5-1.1l-0.5-1.1
		l0,0c-0.3-0.8-1.6-0.3-1.2,0.6l0,0l0.5,1.1l0.5,1.1L465.1,156.8L465.1,156.8z M462.2,150.7c0.2,0.3,0.6,0.4,0.9,0.2
		c0.3-0.2,0.4-0.5,0.3-0.8l-0.4-0.8l-0.6-1.1l-0.3-0.5c-0.2-0.3-0.6-0.4-0.9-0.2c-0.3,0.2-0.4,0.5-0.3,0.8l0.3,0.5l0.6,1.1
		L462.2,150.7L462.2,150.7z M459.1,144.7c0.2,0.3,0.6,0.4,0.9,0.2c0.3-0.2,0.4-0.5,0.2-0.8l-0.1-0.2l-0.6-1.1l-0.6-1.1
		c-0.2-0.3-0.6-0.4-0.9-0.2c-0.3,0.2-0.4,0.5-0.2,0.8l0.6,1.1l0.6,1.1L459.1,144.7L459.1,144.7z M455.8,138.9
		c0.2,0.3,0.6,0.4,0.9,0.2c0.3-0.2,0.4-0.6,0.2-0.9l-0.5-0.8l-0.6-1.1l-0.3-0.5c-0.2-0.3-0.6-0.4-1-0.1c-0.3,0.2-0.4,0.6-0.2,0.8
		l0,0l0.3,0.5l0.6,1L455.8,138.9L455.8,138.9z M452.3,133.1c0.2,0.3,0.6,0.4,0.9,0.2c0.3-0.2,0.4-0.6,0.2-0.9l-0.1-0.2l-0.7-1
		l-0.7-1c-0.2-0.3-0.6-0.4-0.9-0.2c-0.3,0.2-0.4,0.6-0.2,0.9l0,0l0.7,1l0.6,1L452.3,133.1L452.3,133.1z M448.6,127.5
		c0.4,0.7,1.6,0,1.1-0.7l0,0l-0.5-0.7l-0.7-1l-0.4-0.5c-0.2-0.3-0.6-0.4-0.9-0.2s-0.4,0.6-0.2,0.9l0.4,0.5l0.7,1L448.6,127.5
		L448.6,127.5z M444.7,122c0.2,0.3,0.7,0.3,1,0.1c0.2-0.2,0.3-0.5,0.2-0.8v-0.1l-0.1-0.2l-0.7-1l-0.7-1l0,0
		c-0.2-0.3-0.5-0.3-0.8-0.2c-0.3,0.2-0.5,0.5-0.3,0.9c0,0,0,0.1,0.1,0.1l0,0l0.7,1l0.7,1L444.7,122L444.7,122z M440.7,116.6
		c0.2,0.3,0.7,0.3,0.9,0.1c0.3-0.2,0.3-0.7,0.1-0.9l-0.5-0.6l-0.8-1l-0.4-0.5c-0.3-0.3-0.7-0.3-1,0c-0.2,0.2-0.3,0.6-0.1,0.8
		l0.4,0.5l0.8,0.9L440.7,116.6L440.7,116.6z M436.5,111.4c0.3,0.2,0.7,0.2,0.9-0.1c0.2-0.2,0.2-0.5,0.1-0.8l-0.1-0.1l-0.8-0.9
		l-0.8-0.9l-0.1-0.1c-0.3-0.2-0.7-0.2-1,0.1c-0.2,0.2-0.2,0.5,0,0.8l0.1,0.1l0.8,0.9l0.8,0.9L436.5,111.4L436.5,111.4z M432.1,106.3
		c0.2,0.3,0.7,0.3,1,0c0.3-0.2,0.3-0.7,0-0.9l-0.5-0.6l-0.8-0.9l-0.5-0.6c-0.3-0.3-0.7-0.3-1,0c-0.3,0.3-0.3,0.7,0,1l0.5,0.6
		l0.8,0.9L432.1,106.3L432.1,106.3z M427.5,101.3c0.3,0.3,0.7,0.3,1,0s0.3-0.7,0-1l-0.1-0.1l-0.9-0.9l-0.9-0.9l-0.1-0.1
		c-0.3-0.3-0.7-0.3-1,0s-0.3,0.7,0,1l0.1,0.1l0.9,0.9L427.5,101.3L427.5,101.3L427.5,101.3z M422.8,96.5c0.6,0.6,1.6-0.3,1-1
		l-0.5-0.5l-0.9-0.9l-0.6-0.6c-0.3-0.3-0.7-0.2-1,0s-0.2,0.7,0,1l0,0l0,0l0.6,0.6l0.9,0.8L422.8,96.5L422.8,96.5z M417.9,91.8
		c0.2,0.3,0.7,0.3,1,0.1c0.3-0.2,0.3-0.7,0.1-1c0,0-0.1-0.1-0.1-0.1l0,0l-0.9-0.8l-0.9-0.8l-0.2-0.2c-0.6-0.6-1.6,0.3-0.9,1l0.2,0.2
		L417,91L417.9,91.8L417.9,91.8z M412.9,87.3c0.2,0.2,0.6,0.2,0.8,0c0.3-0.2,0.4-0.6,0.2-0.9c0-0.1-0.1-0.1-0.1-0.1l-0.4-0.4
		l-0.9-0.8l-0.7-0.6c-0.6-0.6-1.5,0.4-0.9,1l0,0l0.7,0.6l0.9,0.8L412.9,87.3L412.9,87.3z M407.7,83c0.5,0.5,1.5-0.3,0.9-1l-0.1-0.1
		l-0.9-0.7l-1-0.8l-0.3-0.2c-0.3-0.2-0.7-0.2-0.9,0.1c-0.2,0.3-0.2,0.7,0.1,0.9l0.3,0.2l1,0.8L407.7,83L407.7,83z M402.4,79
		c0.3,0.2,0.7,0.1,0.9-0.3c0.2-0.3,0.1-0.6-0.1-0.8l-0.4-0.3l-1-0.7l-0.8-0.6c-0.3-0.2-0.7-0.2-0.9,0.2c-0.2,0.3-0.2,0.7,0.1,0.9
		L401,78l1,0.7L402.4,79L402.4,79z M396.9,75c0.3,0.2,0.7,0.1,0.9-0.3c0.1-0.3,0.1-0.6-0.2-0.8l-0.9-0.6l-1-0.7l-0.3-0.2
		c-0.3-0.2-0.7-0.1-0.9,0.2c-0.2,0.3-0.1,0.7,0.2,0.9l0.3,0.2l1,0.7L396.9,75L396.9,75z M391.3,71.2c0.3,0.2,0.7,0.1,0.9-0.2
		c0.2-0.3,0.1-0.7-0.2-0.9l-0.4-0.2l-1-0.7l-0.9-0.6c-0.3-0.2-0.7-0.1-0.9,0.2c-0.2,0.3-0.1,0.7,0.2,0.9l0,0l0.9,0.5l1,0.7
		L391.3,71.2L391.3,71.2z M385.6,67.6c0.3,0.2,0.7,0,0.9-0.3c0.1-0.3,0.1-0.7-0.2-0.8l0,0l-0.9-0.6l-1.1-0.6l-0.4-0.2
		c-0.3-0.2-0.7,0-0.9,0.3c-0.1,0.3,0,0.6,0.2,0.8l0,0l0.3,0.2l1,0.6L385.6,67.6L385.6,67.6z M379.8,64.2c0.3,0.2,0.7,0,0.9-0.3
		c0.1-0.3,0-0.7-0.2-0.9l0,0l-0.4-0.2l-1.1-0.6l-0.9-0.5c-0.3-0.2-0.7-0.1-0.9,0.2c-0.2,0.3-0.1,0.7,0.2,0.9c0,0,0,0,0,0l0.9,0.5
		l1.1,0.6L379.8,64.2L379.8,64.2z M373.9,61c0.4,0.1,0.7,0,0.9-0.4c0.1-0.3,0-0.6-0.3-0.8l-1-0.5l-1.1-0.6l-0.4-0.2
		c-0.3-0.2-0.7-0.1-0.9,0.2c-0.2,0.3-0.1,0.7,0.2,0.9c0,0,0.1,0.1,0.1,0.1l0.3,0.2l1.1,0.5L373.9,61L373.9,61z M367.9,58
		c0.4,0.1,0.7-0.1,0.9-0.4c0.1-0.3,0-0.6-0.3-0.8l-0.5-0.2l-1.1-0.5l-0.9-0.4c-0.3-0.2-0.7,0-0.9,0.3c-0.2,0.3,0,0.7,0.3,0.9
		l0.9,0.4l1.1,0.5L367.9,58L367.9,58z M361.7,55.2c0.4,0.1,0.7-0.1,0.9-0.4c0.1-0.3,0-0.6-0.3-0.8l-1.1-0.5L360,53l-0.3-0.1
		c-0.4-0.1-0.7,0.1-0.9,0.4c-0.1,0.3,0,0.6,0.3,0.8l0.3,0.1l1.1,0.5L361.7,55.2L361.7,55.2z M355.5,52.6c0.3,0.1,0.7,0,0.9-0.4
		s0-0.7-0.4-0.9l0,0l-0.6-0.2l-1.2-0.5l-0.8-0.3c-0.3-0.1-0.7,0-0.9,0.4c-0.1,0.3,0,0.7,0.4,0.9l0.8,0.3l1.1,0.5L355.5,52.6z
		 M349.2,50.2c0.4,0.1,0.7-0.1,0.9-0.4s-0.1-0.7-0.4-0.9l0,0h-0.1l-1.2-0.4l-1.2-0.4h-0.1c-0.8-0.3-1.3,0.9-0.5,1.3h0.1h0.1l1.2,0.4
		L349.2,50.2L349.2,50.2L349.2,50.2z M342.8,48c0.4,0.1,0.7-0.1,0.8-0.5c0.1-0.3-0.1-0.6-0.4-0.8l0,0l-0.8-0.2l-1.2-0.4l-0.6-0.2
		c-0.3-0.1-0.6,0-0.8,0.2c-0.2,0.3-0.1,0.7,0.2,0.9c0,0,0.1,0.1,0.2,0.1l0.6,0.2l1.2,0.4L342.8,48L342.8,48z M336.4,46
		c0.3,0.1,0.7,0,0.9-0.4c0.1-0.3,0-0.7-0.4-0.9l-0.1-0.1l-0.3-0.1l-1.2-0.3l-1.1-0.3c-0.4-0.1-0.7,0.1-0.8,0.5
		c-0.1,0.4,0.1,0.7,0.5,0.8l0,0l1.1,0.3l1.2,0.3L336.4,46L336.4,46z M329.9,44.3c0.4,0.1,0.7-0.1,0.8-0.5c0.1-0.4-0.1-0.7-0.5-0.8
		l-1.1-0.3l-1.2-0.3l-0.3-0.1c-0.4,0-0.7,0.2-0.8,0.6c0,0.3,0.2,0.6,0.5,0.7l0.3,0.1l1.2,0.3L329.9,44.3L329.9,44.3z M323.3,42.8
		c0.4,0.1,0.7-0.2,0.8-0.5c0.1-0.4-0.2-0.7-0.5-0.8l-0.7-0.2l-1.2-0.3l-0.8-0.2c-0.4-0.1-0.7,0.2-0.8,0.6c0,0.3,0.2,0.7,0.5,0.7
		l0.8,0.2l1.2,0.3L323.3,42.8L323.3,42.8z M316.7,41.5c0.4,0,0.7-0.3,0.7-0.6c0-0.3-0.2-0.6-0.5-0.7h-0.3l-1.3-0.2l-1.2-0.2
		c-0.4-0.1-0.7,0.2-0.8,0.6c-0.1,0.4,0.2,0.7,0.6,0.8l1.1,0.2l1.2,0.2L316.7,41.5L316.7,41.5z M310,40.5c0.4,0,0.7-0.3,0.7-0.7
		c0-0.3-0.2-0.6-0.5-0.7L309,39l-1.3-0.2h-0.3c-0.4,0-0.7,0.3-0.7,0.7c0,0.3,0.2,0.6,0.5,0.7h0.2l1.3,0.2L310,40.5L310,40.5z
		 M303.3,39.6c0.4,0,0.7-0.3,0.7-0.7c0-0.3-0.2-0.6-0.6-0.7l-0.8-0.1l-1.3-0.2l-0.6-0.1c-0.4,0-0.7,0.3-0.7,0.7
		c0,0.3,0.2,0.6,0.6,0.7h0.6l1.3,0.1L303.3,39.6L303.3,39.6z M296.6,39c0.4,0,0.7-0.3,0.7-0.7c0-0.3-0.2-0.6-0.6-0.7h-0.5l-1.3-0.1
		l-0.9,0c-0.4,0-0.7,0.3-0.7,0.7c0,0.3,0.2,0.6,0.6,0.6l0.9,0l1.3,0.1H296.6z M289.9,38.6c0.4,0,0.7-0.4,0.6-0.7
		c0-0.3-0.3-0.6-0.6-0.6h-0.3l-1.3-0.1h-1.1c-0.4,0-0.6,0.4-0.6,0.8c0,0.3,0.3,0.6,0.6,0.6h1.1l1.3,0.1H289.9z"/>
	
		<linearGradient id="SVGID_00000048489461709543120640000016829163246090121911_" gradientUnits="userSpaceOnUse" x1="296.3097" y1="464.2005" x2="264.7097" y2="465.3105" gradientTransform="matrix(1 0 0 -1 0 568)">
		<stop  offset="0" style="stop-color:#DFAB4A"/>
		<stop  offset="0.15" style="stop-color:#FEEBA7"/>
		<stop  offset="0.35" style="stop-color:#DDB05D"/>
		<stop  offset="0.45" style="stop-color:#FADD85"/>
		<stop  offset="0.72" style="stop-color:#EFC56C"/>
		<stop  offset="0.81" style="stop-color:#EFD479"/>
		<stop  offset="0.91" style="stop-color:#F0CF81"/>
		<stop  offset="1" style="stop-color:#E2BC5E"/>
	</linearGradient>
	<path style="fill-rule:evenodd;clip-rule:evenodd;fill:url(#SVGID_00000048489461709543120640000016829163246090121911_);" d="
		M214.2,101.5l5.6,3.6l6.4-2.3l-1.7,6.4l4.2,5.4l-6.6,0.4l-3.8,5.6l-2.4-6.2l-6.6-1.9l5.1-4.2L214.2,101.5L214.2,101.5z
		 M346.7,101.5L346.7,101.5l-0.3,6.6l5.2,4.4l-6.4,1.8l-2.6,6.3l-3.7-5.5l-6.8-0.5l4.1-5.2l-1.6-6.6l6.2,2.3L346.7,101.5
		L346.7,101.5z M314.7,88.2L314.7,88.2l1.4,6.5l6.2,2.9l-5.7,3.3l-0.9,6.8l-4.9-4.4l-6.7,1.3l2.6-6.1l-3.3-6l6.6,0.6L314.7,88.2
		L314.7,88.2z M280.4,83.7L280.4,83.7l3,5.9l6.7,1.2l-4.6,4.7l0.9,6.8l-5.9-3l-6.1,3l1-6.5l-4.7-4.9l6.5-1.1L280.4,83.7L280.4,83.7z
		 M246.1,88.2L246.1,88.2l4.5,4.9l6.8-0.6l-3.3,5.7l2.6,6.3l-6.5-1.3l-5.2,4.4l-0.7-6.6l-5.8-3.6l6-2.7L246.1,88.2z"/>
	
		<linearGradient id="SVGID_00000141425616120407890860000013941925229362106041_" gradientUnits="userSpaceOnUse" x1="519.5501" y1="171.8828" x2="96.5501" y2="194.0428" gradientTransform="matrix(1 0 0 -1 0 568)">
		<stop  offset="0" style="stop-color:#DFAB4A"/>
		<stop  offset="0.15" style="stop-color:#FEEBA7"/>
		<stop  offset="0.35" style="stop-color:#DDB05D"/>
		<stop  offset="0.45" style="stop-color:#FADD85"/>
		<stop  offset="0.72" style="stop-color:#EFC56C"/>
		<stop  offset="0.81" style="stop-color:#EFD479"/>
		<stop  offset="0.91" style="stop-color:#F0CF81"/>
		<stop  offset="1" style="stop-color:#E2BC5E"/>
	</linearGradient>
	<path style="fill-rule:evenodd;clip-rule:evenodd;fill:url(#SVGID_00000141425616120407890860000013941925229362106041_);" d="
		M358.9,453.8c2,0,3.6,1.6,3.6,3.6c0,2-1.6,3.6-3.6,3.6c-2,0-3.6-1.6-3.6-3.6S356.9,453.8,358.9,453.8L358.9,453.8z M87.1,259
		c2.5,41.2,17.9,80.5,43.9,112.5c28.5,35.2,68.5,59.2,112.9,67.9c2.5,0.5,4.9,1,7.3,1.5c7,1.6,14.1,2.8,21.2,3.6
		c-7.4,3.3-22.8,18.6-36.5,35.1c-14.1,16.9-26.5,34.9-26.5,42.2c-0.1,1.9,0.4,3.8,1.6,5.3c0.3,0.4,0.5,0.8,0.7,1.2l0.2,0.4h5.6
		l0.2-0.3c2.5-4,4.7-8.4,6.9-12.9c2.1-4.2,4.2-8.5,6.6-12.3c1.8-3,4.2-6.6,6.7-10.2c2.9-4.2,5.9-8.4,8.2-11.4
		c2.8-3.7,13.1-15.6,21.8-24.3c5.4-5.4,10.1-9.5,11.7-9.5h1.1c1.5,0,6.2,4.2,11.7,9.7c8.7,8.8,19.1,20.7,21.8,24.2
		c2.3,3,5.8,7.8,8.9,12.4c2.3,3.4,4.5,6.7,6,9.3c2.1,3.6,4,7.5,6,11.3c2.4,4.8,4.8,9.6,7.5,13.9l0.2,0.3h5.6l0.2-0.4
		c0.2-0.4,0.4-0.8,0.7-1.2c1.1-1.6,1.6-3.4,1.5-5.3c0-3.4-3.8-10.5-8.8-18.2c-7.6-11.8-18-25.1-20.9-28c-2-2-4-4.2-6-6.5
		c-3.5-3.9-7-7.9-10.9-10.9c-1.4-1.1-3.2-2.7-5.1-4.5c-3.7-3.5-8-7.5-11.5-9.1c3.1-0.3,6.1-0.7,9.1-1.2c-1.8,0.4-3.6,1-5.4,1.8
		c26.7,17.6,30.7,19.5,62.9,19c-8.5-14.7-34.3-23.9-53.1-21.6c3.5-0.7,7-1.4,10.5-2.1c2.3-0.5,4.5-1,6.5-1.4
		c44-9,83.5-33.2,111.6-68.3c25.7-31.9,40.9-71,43.3-111.9l-8.4-0.2c-1.2,11.2-3.3,22.3-6.3,33.1c-8.2,29-22.7,55.9-42.5,78.7
		c-24.7,28.3-57,48.9-93.3,56.6c-13.5,2.9-27.6,1.9-42,0.9h-0.6H280c-7.1,0.9-14.1,1.9-21,2.3c-6.8,0.5-13.6,0.2-20.3-0.8
		c-35.4-6-67.3-25.6-91.8-53.4c-28.6-32.8-46.2-73.7-50.3-117H87.1z M96.7,259h2l-1.5,1.8C97.1,260.2,96.9,259.6,96.7,259L96.7,259z
		 M116,243.5L116,243.5c3.3,26.5,2.1,29.9-10,53.5C97.7,282.7,102.5,253.4,116,243.5L116,243.5z M119.4,278.7L119.4,278.7
		c8.6,25.3,8.1,28.9,1,54.4C109.4,320.9,108.2,291.2,119.4,278.7z M129.6,310.5L129.6,310.5c16.5,25.6,16.9,29.7,16.1,59.9
		C130.2,359.9,120.7,327.4,129.6,310.5z M149.3,344.7L149.3,344.7c22.2,20.9,23.6,24.8,30.1,54.2
		C161.7,392.5,144.6,363.3,149.3,344.7z M179.4,372.2L179.4,372.2c28.4,15.2,31,18.8,45.8,47.1C205.3,417.6,179.7,392.5,179.4,372.2
		L179.4,372.2z M216.7,396.6L216.7,396.6c31.7,5.8,35.2,8.5,58,30.9C255.2,431.9,223.2,415.8,216.7,396.6L216.7,396.6z M65.6,250.2
		L65.6,250.2c13.6,4.3,25.4,26.6,22.6,40.4C72.1,274.9,70.2,272.5,65.6,250.2z M64,281.1L64,281.1c16.4,2,34.8,24.9,34.6,41.2
		C76.7,307.8,74,305.5,64,281.1z M70.2,318.8L70.2,318.8c16.5-1.4,39.2,17.3,42.2,33.3C88.1,342.4,85,340.7,70.2,318.8L70.2,318.8z
		 M79.9,350.8L79.9,350.8c17.6-4.7,45.6,11.2,52,27.9C103.8,372.9,100.1,371.6,79.9,350.8L79.9,350.8z M103.5,384.4L103.5,384.4
		c16.5-7.7,46.9,3,56.1,18.3C130.9,401.9,127,401.3,103.5,384.4z M129.6,418.4L129.6,418.4c16.3-12,51.8-7,65.3,7.7
		C163.4,431.5,159,431.7,129.6,418.4z M166.4,444.7L166.4,444.7c13.5-15.1,49.3-17.4,65.5-5.7C202.1,450.7,197.9,451.8,166.4,444.7z
		 M205.6,464.2L205.6,464.2c10.1-17.5,44.7-27.1,62.9-19C241.8,462.8,237.8,464.8,205.6,464.2z M443.8,243.5L443.8,243.5
		c13.5,9.9,18.3,39.3,10,53.5C441.8,273.4,440.5,270,443.8,243.5L443.8,243.5z M440.4,278.7L440.4,278.7c11.2,12.4,10,42.1-1,54.4
		C432.3,307.6,431.8,304,440.4,278.7z M430.2,310.5L430.2,310.5c9,16.9-0.6,49.4-16.1,59.9C413.3,340.2,413.7,336.1,430.2,310.5z
		 M410.6,344.7L410.6,344.7c4.6,18.5-12.5,47.8-30.1,54.2C387,369.5,388.4,365.6,410.6,344.7z M380.5,372.2L380.5,372.2
		c-0.4,20.2-26,45.4-45.8,47.1C349.5,391,352,387.4,380.5,372.2L380.5,372.2z M343.2,396.6L343.2,396.6c-6.5,19.1-38.6,35.3-58,30.9
		C307.9,405.1,311.4,402.4,343.2,396.6z M494.2,250.2L494.2,250.2c-4.5,22.2-6.5,24.7-22.6,40.4
		C468.8,276.9,480.6,254.5,494.2,250.2z M495.9,281.1L495.9,281.1c-10,24.4-12.7,26.8-34.6,41.2C461,306,479.4,283,495.9,281.1
		L495.9,281.1z M489.7,318.8L489.7,318.8c-14.8,21.9-17.9,23.6-42.2,33.3C450.5,336.1,473.2,317.4,489.7,318.8z M480,350.8
		L480,350.8c-20.1,20.8-23.9,22.1-52,27.9C434.4,362,462.4,346.1,480,350.8L480,350.8z M456.4,384.4L456.4,384.4
		c-23.5,16.9-27.4,17.5-56.1,18.3C409.5,387.4,439.9,376.7,456.4,384.4L456.4,384.4z M430.2,418.4L430.2,418.4
		c-29.4,13.3-33.8,13.1-65.3,7.7C378.4,411.4,414,406.4,430.2,418.4z M393.4,444.7L393.4,444.7c-31.5,7.1-35.7,6-65.5-5.7
		C344.1,427.3,380,429.7,393.4,444.7z M459.4,372.3L459.4,372.3c1.6,0,3,1.3,3,2.9s-1.3,3-2.9,3s-3-1.3-3-2.9c0,0,0,0,0,0
		C456.5,373.6,457.8,372.3,459.4,372.3z M100.3,372.3L100.3,372.3c1.6,0,3,1.3,3,2.9c0,1.6-1.3,3-2.9,3c-1.6,0-3-1.3-3-2.9
		c0,0,0,0,0,0C97.4,373.6,98.7,372.3,100.3,372.3C100.3,372.3,100.3,372.3,100.3,372.3z M66.5,271.3L66.5,271.3
		c-1.5,0-2.6,1.2-2.6,2.6s1.2,2.6,2.6,2.6s2.7-1.2,2.7-2.6l0,0C69.1,272.5,68,271.3,66.5,271.3z M71,305.8L71,305.8
		c-1.6,0-2.9,1.3-2.9,3c0,1.6,1.3,3,3,2.9c1.6,0,2.9-1.3,2.9-3c0,0,0,0,0,0C74,307.1,72.7,305.8,71,305.8L71,305.8z M81,338.5
		L81,338.5c-1.6,0-3,1.3-3,2.9c0,1.6,1.3,3,2.9,3c1.6,0,3-1.3,3-2.9c0,0,0,0,0,0C83.9,339.8,82.6,338.5,81,338.5
		C81,338.5,81,338.5,81,338.5z M129.7,404.3L129.7,404.3c1.6,0,3,1.3,3,2.9c0,1.6-1.3,3-2.9,3c-1.6,0-3-1.3-3-2.9c0,0,0,0,0,0
		C126.8,405.6,128.1,404.3,129.7,404.3z M158.8,432.9L158.8,432.9c1.6,0,3,1.3,3,2.9s-1.3,3-2.9,3s-3-1.3-3-2.9c0,0,0,0,0,0
		C155.9,434.3,157.2,432.9,158.8,432.9L158.8,432.9z M201,453.8L201,453.8c2,0,3.6,1.6,3.6,3.6S203,461,201,461
		c-2,0-3.6-1.6-3.6-3.6C197.4,455.4,199,453.8,201,453.8z M493.4,271.3L493.4,271.3c-1.5,0-2.6,1.2-2.6,2.6c0,1.5,1.2,2.6,2.6,2.6
		c1.5,0,2.6-1.2,2.6-2.6l0,0C496.1,272.5,494.9,271.3,493.4,271.3z M488.9,305.8L488.9,305.8c-1.6,0-3,1.3-3,2.9s1.3,3,2.9,3
		s3-1.3,3-2.9c0,0,0,0,0,0C491.8,307.1,490.5,305.8,488.9,305.8z M478.9,338.5L478.9,338.5c-1.6,0-2.9,1.3-2.9,3
		c0,1.6,1.3,2.9,3,2.9c1.6,0,2.9-1.3,2.9-3c0,0,0,0,0,0C481.9,339.8,480.6,338.5,478.9,338.5C478.9,338.5,478.9,338.5,478.9,338.5z
		 M430.2,404.3L430.2,404.3c1.6,0,3,1.3,3,2.9c0,1.6-1.3,3-2.9,3c-1.6,0-3-1.3-3-2.9c0,0,0,0,0,0
		C427.3,405.6,428.6,404.3,430.2,404.3z M401.1,432.9L401.1,432.9c1.6,0,3,1.3,3,2.9s-1.3,3-2.9,3s-3-1.3-3-2.9c0,0,0,0,0,0
		C398.2,434.3,399.5,433,401.1,432.9L401.1,432.9z"/>
	
		<linearGradient id="SVGID_00000037662742320300582560000008570429191797500080_" gradientUnits="userSpaceOnUse" x1="283.4727" y1="51.1915" x2="281.5828" y2="105.2915" gradientTransform="matrix(1 0 0 -1 0 568)">
		<stop  offset="0" style="stop-color:#DBA73E"/>
		<stop  offset="0.16" style="stop-color:#D89D3A"/>
		<stop  offset="0.3" style="stop-color:#A46B28"/>
		<stop  offset="0.49" style="stop-color:#8E5723"/>
		<stop  offset="0.54" style="stop-color:#F4F3B8"/>
		<stop  offset="0.56" style="stop-color:#F7ED9A"/>
		<stop  offset="0.69" style="stop-color:#D5B767"/>
		<stop  offset="0.75" style="stop-color:#A76F29"/>
		<stop  offset="0.85" style="stop-color:#D0AB5B"/>
		<stop  offset="1" style="stop-color:#E0C77D"/>
	</linearGradient>
	<path style="fill-rule:evenodd;clip-rule:evenodd;fill:url(#SVGID_00000037662742320300582560000008570429191797500080_);" d="
		M367.8,473c-2.6,4.7-11,7.7-21.8,8.8c-12.9,1.1-25.8,0.1-38.4-3c-13.9-3.5-27.5-6.5-41.1-8.8c-13.4-2.3-26.9-3.6-40.5-4
		c-6.6-0.2-13.3,0.9-19.5,3.2c-5.3,2.1-9.5,5.1-11.1,9c0,0.1,0,0.2,0,0.3c0.1,5.2,0.2,10.1,0.4,15.1s0.3,10,0.4,15.2
		c0,0.4,0.3,0.7,0.7,0.7c0.3,0,0.5-0.2,0.6-0.5c1.3-3.2,5.7-5.8,11.4-7.6c7.4-2.2,15.1-3.1,22.8-2.9c16.4,0.5,32,4.3,47,7.9
		c10.4,2.5,20.5,4.9,30.5,6.2c10.5,1.4,21,1.7,31.6,0.9c8.4-0.7,15.5-2.1,20.5-4c5.2-2,8.4-4.6,8.8-7.5c0-0.3,0-0.6,0-0.9l0,0
		c-0.2-4.7-0.4-9.3-0.5-13.9s-0.3-9.2-0.4-13.7c0-0.4-0.3-0.7-0.7-0.7c0,0,0,0,0,0c-0.2,0-0.5,0.1-0.6,0.4L367.8,473z M346,483.1
		L346,483.1c9.9-1,18-3.6,21.7-7.7c0.1,3.9,0.2,7.8,0.3,11.7c0.2,4.6,0.4,9.2,0.5,13.9l0,0c0,0.2,0,0.5,0,0.7
		c-0.3,2.4-3.1,4.6-7.9,6.4c-5,1.9-11.9,3.3-20.2,3.9c-10.4,0.7-20.9,0.4-31.3-0.9c-9.9-1.2-20-3.7-30.3-6.1
		c-15-3.6-30.7-7.4-47.2-7.9c-7.9-0.3-15.7,0.8-23.3,3c-4.9,1.5-8.9,3.6-11,6.3c-0.1-4.4-0.2-8.6-0.3-12.8c-0.1-4.9-0.3-9.9-0.4-15
		c1.5-3.4,5.4-6.2,10.3-8.1c6.1-2.2,12.5-3.3,19-3.1c13.5,0.4,27,1.7,40.3,4c13.5,2.2,27.1,5.3,41,8.8
		C319.9,483.2,333,484.2,346,483.1z"/>
	
		<linearGradient id="SVGID_00000042006184450610509300000017958197366921303965_" gradientUnits="userSpaceOnUse" x1="371.4796" y1="79.7962" x2="191.8395" y2="76.6662" gradientTransform="matrix(1 0 0 -1 0 568)">
		<stop  offset="0" style="stop-color:#C89749"/>
		<stop  offset="4.000000e-02" style="stop-color:#8E5523"/>
		<stop  offset="0.15" style="stop-color:#FFEE9D"/>
		<stop  offset="0.23" style="stop-color:#DEAC55"/>
		<stop  offset="0.51" style="stop-color:#E8C576"/>
		<stop  offset="0.81" style="stop-color:#DBAA4D"/>
		<stop  offset="0.86" style="stop-color:#FCF6B2"/>
		<stop  offset="0.95" style="stop-color:#8B5623"/>
		<stop  offset="1" style="stop-color:#CA983E"/>
	</linearGradient>
	<path style="fill-rule:evenodd;clip-rule:evenodd;fill:url(#SVGID_00000042006184450610509300000017958197366921303965_);" d="
		M368.3,473.3c-5.5,10.2-36.2,12.3-61,6.1c-27.8-7-54.5-12.1-81.4-12.8c-13-0.3-26.7,4.2-30,11.8c0.2,10.3,0.6,20,0.7,30.3
		c2.9-7.5,20.6-11.4,34.9-11c27.9,0.9,53.2,11,77.5,14c33.6,4.3,60.8-2.2,60.1-10.8C368.9,491.6,368.5,482.5,368.3,473.3z"/>
	
		<linearGradient id="SVGID_00000093871392365774495100000004449339755912106417_" gradientUnits="userSpaceOnUse" x1="283.3943" y1="51.6302" x2="281.5343" y2="105.0801" gradientTransform="matrix(1 0 0 -1 0 568)">
		<stop  offset="0" style="stop-color:#DBA73E"/>
		<stop  offset="0.16" style="stop-color:#D89D3A"/>
		<stop  offset="0.3" style="stop-color:#A46B28"/>
		<stop  offset="0.49" style="stop-color:#8E5723"/>
		<stop  offset="0.54" style="stop-color:#F4F3B8"/>
		<stop  offset="0.56" style="stop-color:#F7ED9A"/>
		<stop  offset="0.69" style="stop-color:#D5B767"/>
		<stop  offset="0.75" style="stop-color:#A76F29"/>
		<stop  offset="0.85" style="stop-color:#D0AB5B"/>
		<stop  offset="1" style="stop-color:#E0C77D"/>
	</linearGradient>
	<path style="fill-rule:evenodd;clip-rule:evenodd;fill:url(#SVGID_00000093871392365774495100000004449339755912106417_);" d="
		M365.3,478.2L365.3,478.2L365.3,478.2c-0.9,1.2-2.1,2.2-3.5,2.9c-1.9,0.9-3.9,1.7-5.9,2.1c-12,3-32,2.2-48.9-2
		c-13.3-3.3-26.3-6.2-39.3-8.5c-12.8-2.3-25.8-3.8-38.8-4.5l0,0c-1.8-0.1-3.5-0.1-5.3,0s-3.5,0.2-5.2,0.4
		c-8.9,1.1-16.6,4.2-19.2,8.8l-0.1,0.2c-0.1,4.3-0.1,8.4-0.1,12.6s0,8.3-0.1,12.6l1,0.2l0,0c0.5-0.9,1.1-1.6,1.9-2.2
		c1-0.8,2.1-1.4,3.3-1.9c6.8-3,18.4-4.3,28.2-3.7c15.8,0.9,30.7,4.5,45.1,7.9c9.9,2.4,19.6,4.7,29.2,6c10.8,1.6,21.6,2.1,32.5,1.6
		c6.3-0.2,12.5-1.2,18.5-2.9c4.7-1.5,7.5-3.5,7.8-5.9c0-0.2,0-0.4,0-0.6c0-3.9-0.1-7.7-0.1-11.6s0-7.6,0.1-11.4L365.3,478.2
		L365.3,478.2z M362.3,482.1L362.3,482.1c1.1-0.5,2.1-1.2,2.9-2.1c0,3.3,0,6.6,0,10c0,3.8,0,7.7,0.1,11.6l0,0c0,0.1,0,0.3,0,0.5
		c-0.3,1.9-2.8,3.6-7.1,5c-5.9,1.7-12,2.6-18.2,2.9c-10.8,0.5-21.6,0-32.3-1.6c-9.5-1.3-19.1-3.6-29.1-6c-14.4-3.4-29.3-7-45.2-7.9
		c-9.9-0.6-21.7,0.7-28.7,3.8c-1.3,0.5-2.5,1.2-3.5,2c-0.4,0.3-0.8,0.7-1.2,1.1c0.1-3.7,0.1-7.3,0.1-10.9c0-4.1,0-8.2,0.1-12.5
		c2.4-4.2,9.8-7.1,18.3-8.2c1.7-0.2,3.4-0.4,5.1-0.4s3.5-0.1,5.2,0l0,0c13,0.7,25.9,2.2,38.7,4.5c12.9,2.3,26,5.2,39.2,8.5
		c17.1,4.2,37.3,5,49.4,2C358.2,483.8,360.3,483.1,362.3,482.1L362.3,482.1z"/>
	<path class="st10" d="M80.2,256.3c-0.3-4.8-0.5-9.6-0.5-14.4c0-110.9,89.8-200.8,200.7-200.8c110.9,0,200.8,89.8,200.8,200.7
		c0,0,0,0.1,0,0.1c0,4.9-0.2,9.7-0.5,14.4c-0.5-0.5-0.9-1-1.3-1.5c0.3-4.3,0.4-8.6,0.4-12.9c0-110.1-89.2-199.3-199.3-199.3
		S81.1,131.8,81.1,241.9c0,4.3,0.1,8.7,0.4,12.9C81.1,255.3,80.7,255.8,80.2,256.3L80.2,256.3z M103.4,234c1.8-1.5,3.7-3,5.5-4.5
		c6.7-94.8,89-166.1,183.7-159.4C378,76.2,446,144.1,452,229.5c1.9,1.5,3.7,3,5.5,4.5c-4.4-97.8-87.3-173.5-185.1-169.1
		C180.9,69,107.5,142.4,103.4,234z M92.8,243.4c1.1-1,2.1-2,3.2-3c1.1-101.9,84.5-183.6,186.4-182.5c100.4,1,181.5,82.2,182.5,182.5
		c1.1,1,2.2,2,3.2,3v-1.5c0-103.7-84-187.7-187.6-187.7s-187.7,84-187.7,187.6c0,0,0,0.1,0,0.1L92.8,243.4L92.8,243.4z M85.9,250.2
		c0.6-0.7,1.3-1.3,2-2c-0.1-2.1-0.1-4.2-0.1-6.3c0-106.4,86.3-192.7,192.7-192.6c106.4,0,192.6,86.3,192.6,192.6
		c0,2.1,0,4.2-0.1,6.3c0.7,0.7,1.3,1.3,2,2c0.1-2.8,0.2-5.5,0.2-8.3c0-107.5-87.1-194.7-194.7-194.7S85.8,134.3,85.8,241.8
		c0,0,0,0,0,0.1C85.8,244.6,85.8,247.4,85.9,250.2L85.9,250.2z"/>
</g>
<g id="_Layer_1-9_00000016039962887611735030000009502534562647934105_">
	
		<linearGradient id="SVGID_00000116200306302907301530000013618129271788204682_" gradientUnits="userSpaceOnUse" x1="225.81" y1="405.1764" x2="252.43" y2="405.1764" gradientTransform="matrix(1 0 0 -1 0 568)">
		<stop  offset="0" style="stop-color:#DBA73E"/>
		<stop  offset="0.16" style="stop-color:#D89D3A"/>
		<stop  offset="0.54" style="stop-color:#F4F3B8"/>
		<stop  offset="0.56" style="stop-color:#F7ED9A"/>
		<stop  offset="0.69" style="stop-color:#D5B767"/>
		<stop  offset="0.85" style="stop-color:#D0AB5B"/>
		<stop  offset="1" style="stop-color:#E0C77D"/>
	</linearGradient>
	<path style="fill:url(#SVGID_00000116200306302907301530000013618129271788204682_);" d="M225.8,182.6V143h12.4c2,0,4,0.2,6,0.7
		c1.5,0.4,2.9,1.1,4.1,2.1c1.1,0.9,1.9,2,2.4,3.3c0.5,1.4,0.8,2.9,0.7,4.4c0,0.9-0.1,1.8-0.4,2.7c-0.2,0.9-0.6,1.7-1.1,2.4
		c-0.6,0.8-1.2,1.4-2,2c-0.9,0.6-1.8,1.2-2.9,1.5c4.9,1.2,7.4,4.2,7.4,8.8c0,1.6-0.3,3.2-0.9,4.7c-0.6,1.4-1.4,2.7-2.5,3.7
		c-1.2,1.1-2.6,1.9-4.1,2.4c-1.8,0.6-3.7,0.9-5.6,0.9L225.8,182.6z M232.5,160.1h5.3c1.8,0.1,3.6-0.4,5.2-1.4
		c1.2-1.1,1.9-2.7,1.8-4.4c0-2.1-0.5-3.5-1.6-4.4c-1.5-1-3.2-1.5-5-1.3h-5.7L232.5,160.1z M232.5,165.2v11.6h6.8
		c1.1,0,2.1-0.1,3.1-0.5c0.8-0.3,1.4-0.7,2-1.3c0.5-0.6,0.9-1.2,1.1-1.9c0.2-0.8,0.3-1.5,0.3-2.3c0-0.8-0.1-1.6-0.4-2.3
		c-0.2-0.7-0.6-1.3-1.2-1.8c-0.6-0.5-1.3-0.9-2-1.1c-1-0.3-2-0.4-3-0.4H232.5z"/>
	
		<linearGradient id="SVGID_00000108285857992690330450000012802936128454195627_" gradientUnits="userSpaceOnUse" x1="258.17" y1="405.17" x2="280.81" y2="405.17" gradientTransform="matrix(1 0 0 -1 0 568)">
		<stop  offset="0" style="stop-color:#DBA73E"/>
		<stop  offset="0.16" style="stop-color:#D89D3A"/>
		<stop  offset="0.54" style="stop-color:#F4F3B8"/>
		<stop  offset="0.56" style="stop-color:#F7ED9A"/>
		<stop  offset="0.69" style="stop-color:#D5B767"/>
		<stop  offset="0.85" style="stop-color:#D0AB5B"/>
		<stop  offset="1" style="stop-color:#E0C77D"/>
	</linearGradient>
	<path style="fill:url(#SVGID_00000108285857992690330450000012802936128454195627_);" d="M280.8,143v5.9h-15.9v11h12.5v5.7h-12.5
		v11.2h15.9v5.9h-22.6V143H280.8z"/>
	
		<linearGradient id="SVGID_00000073679489994051995820000004062839660712394172_" gradientUnits="userSpaceOnUse" x1="283.87" y1="405.2641" x2="308.1335" y2="405.2641" gradientTransform="matrix(1 0 0 -1 0 568)">
		<stop  offset="0" style="stop-color:#DBA73E"/>
		<stop  offset="0.16" style="stop-color:#D89D3A"/>
		<stop  offset="0.54" style="stop-color:#F4F3B8"/>
		<stop  offset="0.56" style="stop-color:#F7ED9A"/>
		<stop  offset="0.69" style="stop-color:#D5B767"/>
		<stop  offset="0.85" style="stop-color:#D0AB5B"/>
		<stop  offset="1" style="stop-color:#E0C77D"/>
	</linearGradient>
	<path style="fill:url(#SVGID_00000073679489994051995820000004062839660712394172_);" d="M305.8,150.2c-0.1,0.3-0.3,0.6-0.6,0.9
		c-0.3,0.2-0.6,0.3-0.9,0.2c-0.4,0-0.8-0.2-1.1-0.4c-0.4-0.3-0.9-0.6-1.5-0.9c-0.6-0.4-1.3-0.7-2-0.9c-0.9-0.3-1.8-0.4-2.7-0.4
		c-0.8,0-1.6,0.1-2.4,0.4c-0.6,0.2-1.2,0.6-1.7,1c-0.5,0.4-0.8,1-1.1,1.6c-0.2,0.6-0.3,1.3-0.3,2c0,0.8,0.2,1.7,0.7,2.3
		c0.5,0.7,1.2,1.2,1.9,1.6c0.8,0.5,1.7,0.9,2.6,1.2c1,0.4,2,0.7,3,1.1c1,0.4,2,0.9,3,1.4c1,0.5,1.9,1.2,2.7,2
		c0.8,0.8,1.4,1.8,1.9,2.9c0.5,1.3,0.7,2.8,0.7,4.2c0,1.7-0.3,3.4-0.8,5c-0.5,1.5-1.4,2.9-2.4,4.1c-1.1,1.2-2.4,2.1-3.9,2.7
		c-1.7,0.7-3.5,1-5.3,1c-1.1,0-2.3-0.1-3.4-0.4c-1.1-0.2-2.2-0.6-3.2-1.1c-1-0.5-2-1-2.9-1.6c-0.9-0.6-1.7-1.3-2.4-2.1l1.9-3.5
		c0.2-0.3,0.4-0.5,0.7-0.6c0.3-0.2,0.6-0.3,0.9-0.3c0.5,0,1,0.2,1.3,0.6c0.5,0.4,1,0.8,1.7,1.2c0.7,0.5,1.5,0.9,2.3,1.2
		c1,0.4,2.1,0.6,3.2,0.6c1.6,0.1,3.2-0.4,4.4-1.5c1.1-1.2,1.7-2.7,1.6-4.3c0-0.9-0.2-1.8-0.7-2.6c-0.5-0.7-1.1-1.2-1.9-1.7
		c-0.8-0.5-1.7-0.8-2.6-1.1c-1-0.3-2-0.6-3-1c-1-0.4-2-0.8-3-1.3c-1-0.5-1.9-1.2-2.7-2c-0.8-0.9-1.5-1.9-1.9-3.1
		c-0.5-1.5-0.8-3-0.7-4.6c0-1.4,0.3-2.9,0.8-4.2c0.5-1.4,1.3-2.6,2.3-3.6c1-1.1,2.3-2,3.7-2.6c1.6-0.7,3.3-1,5-1c2,0,4,0.4,5.9,1.1
		c1.7,0.7,3.3,1.7,4.6,3.1L305.8,150.2z"/>
	
		<linearGradient id="SVGID_00000053546003746934019200000014685878723322153914_" gradientUnits="userSpaceOnUse" x1="310.22" y1="405.2" x2="338.55" y2="405.2" gradientTransform="matrix(1 0 0 -1 0 568)">
		<stop  offset="0" style="stop-color:#DBA73E"/>
		<stop  offset="0.16" style="stop-color:#D89D3A"/>
		<stop  offset="0.54" style="stop-color:#F4F3B8"/>
		<stop  offset="0.56" style="stop-color:#F7ED9A"/>
		<stop  offset="0.69" style="stop-color:#D5B767"/>
		<stop  offset="0.85" style="stop-color:#D0AB5B"/>
		<stop  offset="1" style="stop-color:#E0C77D"/>
	</linearGradient>
	<path style="fill:url(#SVGID_00000053546003746934019200000014685878723322153914_);" d="M338.5,143v6h-10.8v33.6h-6.7V149h-10.9
		v-6H338.5z"/>
	
		<linearGradient id="SVGID_00000032638086373565516990000011181791812299125428_" gradientUnits="userSpaceOnUse" x1="152.47" y1="339.37" x2="175.12" y2="339.37" gradientTransform="matrix(1 0 0 -1 0 568)">
		<stop  offset="0" style="stop-color:#DBA73E"/>
		<stop  offset="0.16" style="stop-color:#D89D3A"/>
		<stop  offset="0.54" style="stop-color:#F4F3B8"/>
		<stop  offset="0.56" style="stop-color:#F7ED9A"/>
		<stop  offset="0.69" style="stop-color:#D5B767"/>
		<stop  offset="0.85" style="stop-color:#D0AB5B"/>
		<stop  offset="1" style="stop-color:#E0C77D"/>
	</linearGradient>
	<path style="fill:url(#SVGID_00000032638086373565516990000011181791812299125428_);" d="M175.1,208.8v5.9h-15.9v11.7h13.4v5.9
		h-13.4v16.1h-6.7v-39.7H175.1z"/>
	
		<linearGradient id="SVGID_00000112619770916891302080000006304098856291292840_" gradientUnits="userSpaceOnUse" x1="181.18" y1="339.37" x2="187.88" y2="339.37" gradientTransform="matrix(1 0 0 -1 0 568)">
		<stop  offset="0" style="stop-color:#DBA73E"/>
		<stop  offset="0.16" style="stop-color:#D89D3A"/>
		<stop  offset="0.54" style="stop-color:#F4F3B8"/>
		<stop  offset="0.56" style="stop-color:#F7ED9A"/>
		<stop  offset="0.69" style="stop-color:#D5B767"/>
		<stop  offset="0.85" style="stop-color:#D0AB5B"/>
		<stop  offset="1" style="stop-color:#E0C77D"/>
	</linearGradient>
	<path style="fill:url(#SVGID_00000112619770916891302080000006304098856291292840_);" d="M187.9,248.5h-6.7v-39.7h6.7V248.5z"/>
	
		<linearGradient id="SVGID_00000141426130518615560690000001540432175385955774_" gradientUnits="userSpaceOnUse" x1="195.95" y1="339.369" x2="226.24" y2="339.369" gradientTransform="matrix(1 0 0 -1 0 568)">
		<stop  offset="0" style="stop-color:#DBA73E"/>
		<stop  offset="0.16" style="stop-color:#D89D3A"/>
		<stop  offset="0.54" style="stop-color:#F4F3B8"/>
		<stop  offset="0.56" style="stop-color:#F7ED9A"/>
		<stop  offset="0.69" style="stop-color:#D5B767"/>
		<stop  offset="0.85" style="stop-color:#D0AB5B"/>
		<stop  offset="1" style="stop-color:#E0C77D"/>
	</linearGradient>
	<path style="fill:url(#SVGID_00000141426130518615560690000001540432175385955774_);" d="M200.2,208.8c0.2,0,0.4,0.1,0.5,0.2
		c0.2,0.1,0.3,0.2,0.5,0.4c0.2,0.2,0.3,0.4,0.5,0.6l18.8,26.5c-0.1-0.6-0.1-1.3-0.1-1.9s0-1.2,0-1.7v-24.1h5.9v39.7h-3.5
		c-0.5,0-0.9-0.1-1.3-0.3c-0.4-0.2-0.8-0.6-1-1l-18.8-26.4c0.1,0.6,0.1,1.2,0.1,1.7s0,1.1,0,1.6v24.4H196v-39.6h3.5
		C199.7,208.8,200,208.8,200.2,208.8z"/>
	
		<linearGradient id="SVGID_00000112595918905662413820000008213115044396248498_" gradientUnits="userSpaceOnUse" x1="230" y1="339.3691" x2="265.06" y2="339.3691" gradientTransform="matrix(1 0 0 -1 0 568)">
		<stop  offset="0" style="stop-color:#DBA73E"/>
		<stop  offset="0.16" style="stop-color:#D89D3A"/>
		<stop  offset="0.54" style="stop-color:#F4F3B8"/>
		<stop  offset="0.56" style="stop-color:#F7ED9A"/>
		<stop  offset="0.69" style="stop-color:#D5B767"/>
		<stop  offset="0.85" style="stop-color:#D0AB5B"/>
		<stop  offset="1" style="stop-color:#E0C77D"/>
	</linearGradient>
	<path style="fill:url(#SVGID_00000112595918905662413820000008213115044396248498_);" d="M265.1,248.5h-5.2c-0.5,0-1-0.1-1.4-0.5
		c-0.4-0.3-0.7-0.7-0.8-1.2l-2.7-8.1h-14.9l-2.7,8.1c-0.1,0.4-0.4,0.8-0.8,1.1c-0.4,0.3-0.9,0.5-1.4,0.5H230l14.1-39.7h6.9
		L265.1,248.5z M241.8,233.5h11.4l-4.4-13.2c-0.2-0.6-0.4-1.3-0.6-2.1s-0.5-1.7-0.7-2.6c-0.2,0.9-0.5,1.8-0.7,2.6
		c-0.2,0.8-0.4,1.5-0.6,2.1L241.8,233.5z"/>
	
		<linearGradient id="SVGID_00000025417586776320205810000004775359921450214847_" gradientUnits="userSpaceOnUse" x1="268.75" y1="339.3694" x2="299.04" y2="339.3694" gradientTransform="matrix(1 0 0 -1 0 568)">
		<stop  offset="0" style="stop-color:#DBA73E"/>
		<stop  offset="0.16" style="stop-color:#D89D3A"/>
		<stop  offset="0.54" style="stop-color:#F4F3B8"/>
		<stop  offset="0.56" style="stop-color:#F7ED9A"/>
		<stop  offset="0.69" style="stop-color:#D5B767"/>
		<stop  offset="0.85" style="stop-color:#D0AB5B"/>
		<stop  offset="1" style="stop-color:#E0C77D"/>
	</linearGradient>
	<path style="fill:url(#SVGID_00000025417586776320205810000004775359921450214847_);" d="M273,208.8c0.2,0,0.4,0.1,0.5,0.2
		c0.2,0.1,0.3,0.2,0.5,0.4c0.2,0.2,0.3,0.4,0.5,0.6l18.9,26.5c-0.1-0.6-0.1-1.3-0.1-1.9s0-1.2,0-1.7v-24.1h5.9v39.7h-3.5
		c-0.5,0-0.9-0.1-1.3-0.3c-0.4-0.2-0.8-0.6-1-1l-18.8-26.4c0.1,0.6,0.1,1.2,0.1,1.7c0,0.6,0,1.1,0,1.6v24.4h-5.9v-39.6h3.5
		C272.5,208.8,272.8,208.8,273,208.8z"/>
	
		<linearGradient id="SVGID_00000175285535372944812430000011347820594248383421_" gradientUnits="userSpaceOnUse" x1="304.2281" y1="339.3701" x2="334.77" y2="339.3701" gradientTransform="matrix(1 0 0 -1 0 568)">
		<stop  offset="0" style="stop-color:#DBA73E"/>
		<stop  offset="0.16" style="stop-color:#D89D3A"/>
		<stop  offset="0.54" style="stop-color:#F4F3B8"/>
		<stop  offset="0.56" style="stop-color:#F7ED9A"/>
		<stop  offset="0.69" style="stop-color:#D5B767"/>
		<stop  offset="0.85" style="stop-color:#D0AB5B"/>
		<stop  offset="1" style="stop-color:#E0C77D"/>
	</linearGradient>
	<path style="fill:url(#SVGID_00000175285535372944812430000011347820594248383421_);" d="M331,239.1c0.4,0,0.7,0.2,0.9,0.5l2.6,3.2
		c-1.4,1.9-3.2,3.5-5.4,4.6c-2.4,1.1-5,1.7-7.7,1.6c-2.5,0-4.9-0.5-7.2-1.5c-2.1-1-4-2.4-5.5-4.2c-1.6-1.9-2.7-4.1-3.5-6.4
		c-0.8-2.6-1.2-5.4-1.2-8.1c0-2.8,0.4-5.6,1.3-8.2c0.8-2.4,2.1-4.5,3.8-6.4c1.6-1.8,3.6-3.2,5.8-4.2c2.4-1,4.9-1.5,7.5-1.5
		c4.6-0.1,9,1.7,12.1,5.2l-2.2,3.5c-0.1,0.2-0.3,0.4-0.5,0.6c-0.2,0.2-0.6,0.3-0.9,0.2c-0.4,0-0.8-0.2-1.2-0.5
		c-0.5-0.4-1-0.7-1.5-1.1c-0.7-0.4-1.5-0.8-2.3-1.1c-2.7-0.8-5.6-0.6-8.2,0.5c-1.4,0.6-2.7,1.6-3.6,2.8c-1.1,1.3-1.9,2.8-2.4,4.4
		c-0.6,1.9-0.9,3.9-0.9,5.8c0,2,0.2,4.1,0.9,6c0.5,1.6,1.3,3.1,2.3,4.4c0.9,1.2,2.1,2.1,3.5,2.7c1.3,0.6,2.8,1,4.3,0.9
		c0.8,0,1.7,0,2.5-0.2c0.7-0.1,1.4-0.3,2-0.5c0.6-0.2,1.2-0.5,1.8-0.9c0.6-0.4,1.1-0.9,1.6-1.4c0.2-0.2,0.3-0.3,0.5-0.4
		C330.5,239.2,330.8,239.1,331,239.1z"/>
	
		<linearGradient id="SVGID_00000085967959982692640450000000757179773370289794_" gradientUnits="userSpaceOnUse" x1="340.42" y1="339.37" x2="347.13" y2="339.37" gradientTransform="matrix(1 0 0 -1 0 568)">
		<stop  offset="0" style="stop-color:#DBA73E"/>
		<stop  offset="0.16" style="stop-color:#D89D3A"/>
		<stop  offset="0.54" style="stop-color:#F4F3B8"/>
		<stop  offset="0.56" style="stop-color:#F7ED9A"/>
		<stop  offset="0.69" style="stop-color:#D5B767"/>
		<stop  offset="0.85" style="stop-color:#D0AB5B"/>
		<stop  offset="1" style="stop-color:#E0C77D"/>
	</linearGradient>
	<path style="fill:url(#SVGID_00000085967959982692640450000000757179773370289794_);" d="M347.1,248.5h-6.7v-39.7h6.7V248.5z"/>
	
		<linearGradient id="SVGID_00000110470819372898954750000008961885075838743981_" gradientUnits="userSpaceOnUse" x1="351.72" y1="339.3692" x2="386.76" y2="339.3692" gradientTransform="matrix(1 0 0 -1 0 568)">
		<stop  offset="0" style="stop-color:#DBA73E"/>
		<stop  offset="0.16" style="stop-color:#D89D3A"/>
		<stop  offset="0.54" style="stop-color:#F4F3B8"/>
		<stop  offset="0.56" style="stop-color:#F7ED9A"/>
		<stop  offset="0.69" style="stop-color:#D5B767"/>
		<stop  offset="0.85" style="stop-color:#D0AB5B"/>
		<stop  offset="1" style="stop-color:#E0C77D"/>
	</linearGradient>
	<path style="fill:url(#SVGID_00000110470819372898954750000008961885075838743981_);" d="M386.8,248.5h-5.2c-0.5,0-1-0.2-1.4-0.5
		c-0.4-0.3-0.6-0.7-0.8-1.2l-2.7-8.1h-14.9l-2.7,8.1c-0.1,0.4-0.4,0.8-0.8,1.1c-0.4,0.3-0.9,0.5-1.4,0.5h-5.2l14.1-39.7h6.8
		L386.8,248.5z M363.5,233.5H375l-4.4-13.2c-0.2-0.6-0.4-1.3-0.7-2.1c-0.2-0.8-0.5-1.7-0.7-2.6c-0.2,0.9-0.5,1.8-0.7,2.6
		s-0.4,1.5-0.6,2.1L363.5,233.5z"/>
	
		<linearGradient id="SVGID_00000045609732764090985930000001849446244430812043_" gradientUnits="userSpaceOnUse" x1="390.46" y1="339.37" x2="411.52" y2="339.37" gradientTransform="matrix(1 0 0 -1 0 568)">
		<stop  offset="0" style="stop-color:#DBA73E"/>
		<stop  offset="0.16" style="stop-color:#D89D3A"/>
		<stop  offset="0.54" style="stop-color:#F4F3B8"/>
		<stop  offset="0.56" style="stop-color:#F7ED9A"/>
		<stop  offset="0.69" style="stop-color:#D5B767"/>
		<stop  offset="0.85" style="stop-color:#D0AB5B"/>
		<stop  offset="1" style="stop-color:#E0C77D"/>
	</linearGradient>
	<path style="fill:url(#SVGID_00000045609732764090985930000001849446244430812043_);" d="M397.1,242.4h14.4v6.1h-21.1v-39.7h6.7
		L397.1,242.4z"/>
	
		<linearGradient id="SVGID_00000165226493180933532220000003578716514423587995_" gradientUnits="userSpaceOnUse" x1="147.04" y1="273.5542" x2="171.31" y2="273.5542" gradientTransform="matrix(1 0 0 -1 0 568)">
		<stop  offset="0" style="stop-color:#DBA73E"/>
		<stop  offset="0.16" style="stop-color:#D89D3A"/>
		<stop  offset="0.54" style="stop-color:#F4F3B8"/>
		<stop  offset="0.56" style="stop-color:#F7ED9A"/>
		<stop  offset="0.69" style="stop-color:#D5B767"/>
		<stop  offset="0.85" style="stop-color:#D0AB5B"/>
		<stop  offset="1" style="stop-color:#E0C77D"/>
	</linearGradient>
	<path style="fill:url(#SVGID_00000165226493180933532220000003578716514423587995_);" d="M169,281.8c-0.1,0.3-0.3,0.6-0.6,0.9
		c-0.3,0.2-0.6,0.2-0.9,0.2c-0.4,0-0.8-0.2-1.1-0.4c-0.4-0.3-0.9-0.6-1.5-1c-0.6-0.4-1.3-0.7-2-0.9c-0.9-0.3-1.8-0.5-2.7-0.4
		c-0.8,0-1.6,0.1-2.4,0.4c-0.6,0.2-1.2,0.6-1.7,1c-0.5,0.4-0.8,1-1.1,1.6c-0.2,0.6-0.4,1.3-0.4,2c0,0.8,0.2,1.7,0.7,2.3
		c0.5,0.7,1.1,1.2,1.9,1.6c0.8,0.5,1.7,0.9,2.7,1.2c1,0.4,2,0.7,3,1.1c1,0.4,2,0.9,3,1.4c1,0.5,1.9,1.2,2.6,2
		c0.8,0.8,1.4,1.8,1.9,2.9c0.5,1.3,0.7,2.8,0.7,4.2c0,1.7-0.3,3.4-0.8,5c-0.5,1.5-1.3,2.9-2.3,4.2c-1.1,1.2-2.4,2.1-3.9,2.7
		c-1.7,0.7-3.5,1-5.3,1c-1.1,0-2.3-0.1-3.4-0.4c-1.1-0.2-2.2-0.6-3.2-1.1c-1-0.4-2-1-2.9-1.6c-0.9-0.6-1.7-1.3-2.4-2.1l2-3.5
		c0.2-0.3,0.4-0.5,0.7-0.6c0.3-0.2,0.6-0.3,0.9-0.3c0.5,0,1,0.2,1.3,0.6c0.5,0.4,1,0.8,1.7,1.2c0.7,0.5,1.5,0.9,2.3,1.2
		c1,0.4,2.1,0.6,3.2,0.6c1.6,0.1,3.2-0.4,4.4-1.5c1.1-1.2,1.6-2.7,1.5-4.3c0-0.9-0.2-1.8-0.7-2.5c-0.5-0.7-1.1-1.2-1.9-1.7
		c-0.8-0.5-1.7-0.9-2.7-1.1c-1-0.3-2-0.6-3-1c-1-0.4-2-0.8-3-1.3c-1-0.5-1.9-1.2-2.6-2c-0.8-0.9-1.5-1.9-1.9-3.1
		c-0.5-1.5-0.8-3-0.7-4.6c0-1.4,0.3-2.9,0.8-4.2c0.5-1.4,1.3-2.6,2.3-3.6c1-1.1,2.3-2,3.7-2.6c1.6-0.7,3.3-1,5-1c2,0,4,0.4,5.9,1.1
		c1.7,0.7,3.3,1.7,4.6,3.1L169,281.8z"/>
	
		<linearGradient id="SVGID_00000080175431143481310130000015442502734827162532_" gradientUnits="userSpaceOnUse" x1="174.4599" y1="273.5525" x2="210.8611" y2="273.5525" gradientTransform="matrix(1 0 0 -1 0 568)">
		<stop  offset="0" style="stop-color:#DBA73E"/>
		<stop  offset="0.16" style="stop-color:#D89D3A"/>
		<stop  offset="0.54" style="stop-color:#F4F3B8"/>
		<stop  offset="0.56" style="stop-color:#F7ED9A"/>
		<stop  offset="0.69" style="stop-color:#D5B767"/>
		<stop  offset="0.85" style="stop-color:#D0AB5B"/>
		<stop  offset="1" style="stop-color:#E0C77D"/>
	</linearGradient>
	<path style="fill:url(#SVGID_00000080175431143481310130000015442502734827162532_);" d="M210.9,294.5c0,2.7-0.4,5.5-1.3,8.1
		c-0.8,2.4-2.1,4.5-3.7,6.4c-1.6,1.8-3.5,3.3-5.7,4.2c-4.7,2-10.1,2-14.9,0c-2.2-1-4.2-2.4-5.8-4.2c-1.6-1.9-2.9-4.1-3.7-6.4
		c-1.7-5.2-1.7-10.9,0-16.1c0.8-2.4,2.1-4.6,3.7-6.4c1.6-1.8,3.6-3.3,5.8-4.2c4.7-2,10.1-2,14.9,0c2.2,1,4.1,2.4,5.7,4.2
		c1.6,1.9,2.9,4.1,3.7,6.4C210.4,289,210.9,291.7,210.9,294.5z M204,294.5c0-2-0.2-3.9-0.8-5.9c-0.5-1.6-1.2-3.1-2.2-4.4
		c-1-1.2-2.2-2.1-3.6-2.8c-1.5-0.7-3.1-1-4.7-1c-1.6,0-3.3,0.3-4.7,1c-1.4,0.6-2.6,1.6-3.6,2.8c-1,1.3-1.8,2.8-2.3,4.4
		c-1.1,3.8-1.1,7.9,0,11.7c0.5,1.6,1.2,3.1,2.3,4.4c1,1.2,2.2,2.1,3.6,2.8c1.5,0.7,3.1,1,4.7,1c1.6,0,3.2-0.3,4.7-1
		c1.4-0.6,2.6-1.6,3.6-2.8c1-1.3,1.8-2.8,2.2-4.4C203.8,298.4,204,296.4,204,294.5L204,294.5z"/>
	
		<linearGradient id="SVGID_00000044868534497986181460000006087279116534897056_" gradientUnits="userSpaceOnUse" x1="216.13" y1="273.55" x2="238.77" y2="273.55" gradientTransform="matrix(1 0 0 -1 0 568)">
		<stop  offset="0" style="stop-color:#DBA73E"/>
		<stop  offset="0.16" style="stop-color:#D89D3A"/>
		<stop  offset="0.54" style="stop-color:#F4F3B8"/>
		<stop  offset="0.56" style="stop-color:#F7ED9A"/>
		<stop  offset="0.69" style="stop-color:#D5B767"/>
		<stop  offset="0.85" style="stop-color:#D0AB5B"/>
		<stop  offset="1" style="stop-color:#E0C77D"/>
	</linearGradient>
	<path style="fill:url(#SVGID_00000044868534497986181460000006087279116534897056_);" d="M238.8,274.6v5.9h-15.9v11.7h13.4v5.9
		h-13.4v16.1h-6.7v-39.7H238.8z"/>
	
		<linearGradient id="SVGID_00000083078992623432629350000005006850880454279079_" gradientUnits="userSpaceOnUse" x1="241" y1="273.55" x2="269.32" y2="273.55" gradientTransform="matrix(1 0 0 -1 0 568)">
		<stop  offset="0" style="stop-color:#DBA73E"/>
		<stop  offset="0.16" style="stop-color:#D89D3A"/>
		<stop  offset="0.54" style="stop-color:#F4F3B8"/>
		<stop  offset="0.56" style="stop-color:#F7ED9A"/>
		<stop  offset="0.69" style="stop-color:#D5B767"/>
		<stop  offset="0.85" style="stop-color:#D0AB5B"/>
		<stop  offset="1" style="stop-color:#E0C77D"/>
	</linearGradient>
	<path style="fill:url(#SVGID_00000083078992623432629350000005006850880454279079_);" d="M269.3,274.6v6.1h-10.8v33.6h-6.7v-33.6
		H241v-6.1H269.3z"/>
	
		<linearGradient id="SVGID_00000013903922635605495590000006477771220786801836_" gradientUnits="userSpaceOnUse" x1="270.23" y1="273.5509" x2="321.61" y2="273.5509" gradientTransform="matrix(1 0 0 -1 0 568)">
		<stop  offset="0" style="stop-color:#DBA73E"/>
		<stop  offset="0.16" style="stop-color:#D89D3A"/>
		<stop  offset="0.54" style="stop-color:#F4F3B8"/>
		<stop  offset="0.56" style="stop-color:#F7ED9A"/>
		<stop  offset="0.69" style="stop-color:#D5B767"/>
		<stop  offset="0.85" style="stop-color:#D0AB5B"/>
		<stop  offset="1" style="stop-color:#E0C77D"/>
	</linearGradient>
	<path style="fill:url(#SVGID_00000013903922635605495590000006477771220786801836_);" d="M270.2,274.6h5.6c0.5,0,1,0.1,1.5,0.5
		c0.4,0.3,0.7,0.7,0.8,1.2l6.1,23.7c0.1,0.6,0.3,1.2,0.4,1.9s0.2,1.4,0.4,2.2c0.1-0.8,0.3-1.5,0.4-2.2s0.3-1.3,0.5-1.9l7.1-23.7
		c0.2-0.4,0.4-0.8,0.8-1.2c0.4-0.3,0.9-0.5,1.4-0.5h2c0.5,0,1,0.1,1.4,0.5c0.4,0.3,0.7,0.7,0.8,1.2l7,23.7c0.4,1.3,0.7,2.6,1,3.9
		c0.1-0.7,0.2-1.4,0.4-2s0.2-1.3,0.4-1.8l6.1-23.7c0.1-0.5,0.4-0.9,0.8-1.2c0.4-0.3,0.9-0.5,1.4-0.5h5.2l-11.1,39.7h-6l-7.9-27.1
		c-0.1-0.3-0.2-0.7-0.3-1.1s-0.2-0.8-0.3-1.3c-0.1,0.5-0.2,0.9-0.3,1.3s-0.2,0.8-0.3,1.1l-7.9,27.1h-6L270.2,274.6z"/>
	
		<linearGradient id="SVGID_00000052801153464471057960000003253045030775983788_" gradientUnits="userSpaceOnUse" x1="319.13" y1="273.5493" x2="354.17" y2="273.5493" gradientTransform="matrix(1 0 0 -1 0 568)">
		<stop  offset="0" style="stop-color:#DBA73E"/>
		<stop  offset="0.16" style="stop-color:#D89D3A"/>
		<stop  offset="0.54" style="stop-color:#F4F3B8"/>
		<stop  offset="0.56" style="stop-color:#F7ED9A"/>
		<stop  offset="0.69" style="stop-color:#D5B767"/>
		<stop  offset="0.85" style="stop-color:#D0AB5B"/>
		<stop  offset="1" style="stop-color:#E0C77D"/>
	</linearGradient>
	<path style="fill:url(#SVGID_00000052801153464471057960000003253045030775983788_);" d="M354.2,314.3H349c-0.5,0-1-0.2-1.4-0.5
		c-0.4-0.3-0.6-0.7-0.8-1.2l-2.7-8.1h-14.9l-2.7,8.1c-0.2,0.4-0.4,0.8-0.8,1.1c-0.4,0.3-0.9,0.5-1.4,0.5h-5.2l14.1-39.7h6.8
		L354.2,314.3z M330.9,299.3h11.5l-4.4-13.2c-0.2-0.6-0.4-1.3-0.7-2.1s-0.5-1.7-0.7-2.6c-0.2,0.9-0.5,1.8-0.7,2.6s-0.4,1.5-0.7,2.1
		L330.9,299.3z"/>
	
		<linearGradient id="SVGID_00000077290511407797497910000004768020425499450512_" gradientUnits="userSpaceOnUse" x1="358.09" y1="273.5517" x2="386.12" y2="273.5517" gradientTransform="matrix(1 0 0 -1 0 568)">
		<stop  offset="0" style="stop-color:#DBA73E"/>
		<stop  offset="0.16" style="stop-color:#D89D3A"/>
		<stop  offset="0.54" style="stop-color:#F4F3B8"/>
		<stop  offset="0.56" style="stop-color:#F7ED9A"/>
		<stop  offset="0.69" style="stop-color:#D5B767"/>
		<stop  offset="0.85" style="stop-color:#D0AB5B"/>
		<stop  offset="1" style="stop-color:#E0C77D"/>
	</linearGradient>
	<path style="fill:url(#SVGID_00000077290511407797497910000004768020425499450512_);" d="M364.8,298.8v15.5h-6.7v-39.7h11
		c2.1,0,4.2,0.2,6.3,0.8c1.6,0.5,3,1.3,4.3,2.3c1.1,1,1.9,2.2,2.5,3.6c0.5,1.5,0.8,3,0.8,4.6c0,1.3-0.2,2.6-0.5,3.8
		c-0.3,1.2-0.9,2.2-1.5,3.2c-0.7,1-1.5,1.8-2.5,2.5c-1,0.8-2.2,1.4-3.4,1.8c0.9,0.6,1.6,1.4,2.2,2.3l9,14.6h-6c-0.5,0-1-0.1-1.5-0.4
		c-0.4-0.3-0.8-0.7-1-1.1l-7.5-12.7c-0.2-0.4-0.5-0.7-0.9-1c-0.5-0.2-1-0.3-1.5-0.3L364.8,298.8z M364.8,293.5h4.2
		c1.1,0,2.2-0.2,3.3-0.5c0.9-0.3,1.7-0.8,2.3-1.4c0.6-0.6,1.1-1.4,1.4-2.2c0.3-0.9,0.5-1.8,0.5-2.8c0.1-1.7-0.5-3.4-1.8-4.6
		c-1.2-1.1-3-1.6-5.5-1.6h-4.3L364.8,293.5z"/>
	
		<linearGradient id="SVGID_00000006707157913241370970000008047703898962090167_" gradientUnits="userSpaceOnUse" x1="390.39" y1="273.55" x2="413.04" y2="273.55" gradientTransform="matrix(1 0 0 -1 0 568)">
		<stop  offset="0" style="stop-color:#DBA73E"/>
		<stop  offset="0.16" style="stop-color:#D89D3A"/>
		<stop  offset="0.54" style="stop-color:#F4F3B8"/>
		<stop  offset="0.56" style="stop-color:#F7ED9A"/>
		<stop  offset="0.69" style="stop-color:#D5B767"/>
		<stop  offset="0.85" style="stop-color:#D0AB5B"/>
		<stop  offset="1" style="stop-color:#E0C77D"/>
	</linearGradient>
	<path style="fill:url(#SVGID_00000006707157913241370970000008047703898962090167_);" d="M413,274.6v5.9h-15.9v11h12.5v5.7h-12.5
		v11.2H413v5.9h-22.6v-39.7H413z"/>
	
		<linearGradient id="SVGID_00000179612182035899758640000000523654455890430876_" gradientUnits="userSpaceOnUse" x1="243.57" y1="223.1211" x2="260.0314" y2="223.1211" gradientTransform="matrix(1 0 0 -1 0 568)">
		<stop  offset="0" style="stop-color:#DBA73E"/>
		<stop  offset="0.16" style="stop-color:#D89D3A"/>
		<stop  offset="0.54" style="stop-color:#F4F3B8"/>
		<stop  offset="0.56" style="stop-color:#F7ED9A"/>
		<stop  offset="0.69" style="stop-color:#D5B767"/>
		<stop  offset="0.85" style="stop-color:#D0AB5B"/>
		<stop  offset="1" style="stop-color:#E0C77D"/>
	</linearGradient>
	<path style="fill:url(#SVGID_00000179612182035899758640000000523654455890430876_);" d="M252.2,331.5c1,0,2,0.2,3,0.5
		c0.9,0.3,1.7,0.9,2.4,1.5c0.7,0.7,1.2,1.5,1.5,2.4c0.4,1,0.6,2,0.5,3.1c0,0.9-0.1,1.8-0.4,2.7c-0.2,0.8-0.6,1.6-1,2.4
		c-0.4,0.8-1,1.5-1.5,2.2c-0.6,0.7-1.2,1.4-1.8,2.2l-5.4,6.1c0.5-0.2,1-0.3,1.6-0.4c0.5-0.1,1-0.1,1.5-0.1h6.2c0.4,0,0.8,0.1,1,0.4
		c0.3,0.3,0.4,0.7,0.4,1.1v2.7h-16.5v-1.5c0-0.3,0.1-0.6,0.2-1c0.1-0.3,0.3-0.7,0.6-0.9l7.3-8.1c0.6-0.7,1.2-1.3,1.6-2
		c0.5-0.6,0.9-1.2,1.2-1.9c0.3-0.6,0.6-1.2,0.8-1.9c0.2-0.7,0.3-1.3,0.2-2c0-0.6-0.1-1.1-0.2-1.7c-0.1-0.5-0.4-0.9-0.7-1.2
		c-0.3-0.3-0.7-0.6-1.1-0.7c-0.5-0.2-0.9-0.3-1.4-0.2c-0.9,0-1.7,0.3-2.4,0.8c-0.7,0.6-1.1,1.4-1.3,2.2c-0.1,0.4-0.3,0.7-0.5,1
		c-0.3,0.2-0.6,0.3-0.9,0.3c-0.2,0-0.4,0-0.6,0l-2.2-0.4c0.2-1.2,0.5-2.3,1-3.4c0.4-0.9,1-1.7,1.8-2.4c0.7-0.6,1.5-1.1,2.4-1.5
		C250.2,331.6,251.2,331.5,252.2,331.5z"/>
	
		<linearGradient id="SVGID_00000057149272665923557720000010029045098568896900_" gradientUnits="userSpaceOnUse" x1="262.25" y1="223.0153" x2="279.85" y2="223.0153" gradientTransform="matrix(1 0 0 -1 0 568)">
		<stop  offset="0" style="stop-color:#DBA73E"/>
		<stop  offset="0.16" style="stop-color:#D89D3A"/>
		<stop  offset="0.54" style="stop-color:#F4F3B8"/>
		<stop  offset="0.56" style="stop-color:#F7ED9A"/>
		<stop  offset="0.69" style="stop-color:#D5B767"/>
		<stop  offset="0.85" style="stop-color:#D0AB5B"/>
		<stop  offset="1" style="stop-color:#E0C77D"/>
	</linearGradient>
	<path style="fill:url(#SVGID_00000057149272665923557720000010029045098568896900_);" d="M279.9,345c0,2-0.2,4-0.7,6
		c-0.4,1.5-1,2.9-1.9,4.2c-0.7,1-1.7,1.9-2.8,2.5c-2.2,1.1-4.8,1.1-7,0c-1.1-0.6-2.1-1.4-2.8-2.5c-0.9-1.3-1.5-2.7-1.8-4.2
		c-0.9-4-0.9-8.1,0-12c0.4-1.5,1-2.9,1.8-4.2c0.7-1,1.7-1.9,2.8-2.5c2.2-1.1,4.8-1.1,7,0c1.1,0.6,2.1,1.4,2.8,2.5
		c0.9,1.3,1.5,2.7,1.9,4.2C279.7,340.9,279.9,343,279.9,345z M275.6,345c0-1.6-0.1-3.2-0.4-4.8c-0.2-1-0.5-2.1-1-3
		c-0.3-0.7-0.8-1.2-1.5-1.6c-0.5-0.3-1.1-0.4-1.7-0.5c-0.6,0-1.2,0.2-1.7,0.5c-0.6,0.4-1.1,0.9-1.5,1.6c-0.5,0.9-0.8,2-1,3
		c-0.5,3.2-0.5,6.4,0,9.5c0.2,1,0.5,2.1,1,3c0.3,0.6,0.8,1.2,1.5,1.6c0.5,0.3,1.1,0.4,1.7,0.5c0.6,0,1.2-0.2,1.7-0.5
		c0.6-0.4,1.1-0.9,1.5-1.6c0.5-0.9,0.8-2,1-3C275.5,348.2,275.6,346.6,275.6,345L275.6,345z"/>
	
		<linearGradient id="SVGID_00000088101338743977657370000012834538225965913750_" gradientUnits="userSpaceOnUse" x1="283.42" y1="223.035" x2="298.42" y2="223.035" gradientTransform="matrix(1 0 0 -1 0 568)">
		<stop  offset="0" style="stop-color:#DBA73E"/>
		<stop  offset="0.16" style="stop-color:#D89D3A"/>
		<stop  offset="0.54" style="stop-color:#F4F3B8"/>
		<stop  offset="0.56" style="stop-color:#F7ED9A"/>
		<stop  offset="0.69" style="stop-color:#D5B767"/>
		<stop  offset="0.85" style="stop-color:#D0AB5B"/>
		<stop  offset="1" style="stop-color:#E0C77D"/>
	</linearGradient>
	<path style="fill:url(#SVGID_00000088101338743977657370000012834538225965913750_);" d="M285.1,354.9h4.9v-15.5c0-0.6,0-1.2,0-1.9
		l-3.5,3.2c-0.1,0.1-0.3,0.2-0.4,0.3c-0.1,0-0.3,0.1-0.4,0.1c-0.2,0-0.4,0-0.6-0.1c-0.2-0.1-0.3-0.2-0.4-0.4l-1.3-2l7.3-6.9h3.4
		v23.2h4.3v3.4h-13.3V354.9z"/>
	
		<linearGradient id="SVGID_00000156588641921128466150000016332943287611449250_" gradientUnits="userSpaceOnUse" x1="302.7223" y1="222.7999" x2="324.2623" y2="222.7999" gradientTransform="matrix(1 0 0 -1 0 568)">
		<stop  offset="0" style="stop-color:#C89749"/>
		<stop  offset="4.000000e-02" style="stop-color:#8E5523"/>
		<stop  offset="0.15" style="stop-color:#FFEE9D"/>
		<stop  offset="0.23" style="stop-color:#DEAC55"/>
		<stop  offset="0.38" style="stop-color:#EFC978"/>
		<stop  offset="0.59" style="stop-color:#FDDD90"/>
		<stop  offset="0.83" style="stop-color:#DBAA4D"/>
		<stop  offset="0.88" style="stop-color:#FCF6B2"/>
		<stop  offset="0.95" style="stop-color:#8B5623"/>
		<stop  offset="1" style="stop-color:#CA983E"/>
	</linearGradient>
	<path style="fill:url(#SVGID_00000156588641921128466150000016332943287611449250_);" d="M323.3,347c0.7,1.1,1.1,2.3,1,3.6
		c0.1,1.5-0.4,3-1.4,4.2c-1,1.2-2.3,2.1-3.8,2.8c-1.8,0.7-3.8,1-5.7,1c-1.9,0.1-3.8-0.3-5.6-1c-1.5-0.6-2.8-1.5-3.8-2.8
		c-1-1.2-1.5-2.7-1.4-4.2c0-1.3,0.3-2.5,1-3.6c0.8-1,1.8-1.9,2.9-2.5c-0.9-0.6-1.7-1.3-2.2-2.2c-0.5-0.9-0.8-2-0.8-3
		c0-1.4,0.4-2.8,1.2-3.9c0.9-1.2,2.1-2,3.5-2.5c1.6-0.6,3.4-1,5.1-1c1.8,0,3.5,0.3,5.1,1c1.3,0.6,2.6,1.5,3.6,2.5
		c0.9,1.1,1.4,2.5,1.2,3.9c0,1.1-0.3,2.1-0.8,3c-0.5,0.9-1.3,1.7-2.2,2.2C321.6,345,322.6,345.9,323.3,347z M317,353
		c0.9-0.6,1.3-1.7,1.2-2.8c0.1-1-0.4-2-1.2-2.6c-1.1-0.7-2.3-1-3.6-1c-1.2-0.1-2.5,0.3-3.5,1c-0.8,0.6-1.2,1.6-1.2,2.6
		c0,1.1,0.4,2.1,1.2,2.8c1,0.7,2.2,1.1,3.5,1C314.7,354.2,316,353.8,317,353L317,353z M310.5,337.2c-0.7,0.6-1.1,1.5-1,2.4
		c-0.1,0.9,0.3,1.7,1,2.2c0.8,0.6,1.9,0.9,2.9,0.8c1,0,2.1-0.2,2.9-0.8c0.7-0.5,1.1-1.4,1.1-2.2c0.1-0.9-0.3-1.8-1.1-2.4
		c-0.8-0.7-1.9-1-2.9-1C312.4,336.2,311.4,336.6,310.5,337.2L310.5,337.2z"/>
</g>
</svg>
